solid OpenSCAD_Model
  facet normal -1 0 0
    outer loop
      vertex 0 2.22045e-016 -1
      vertex 0 15 -1
      vertex 0 1.11022e-015 -5
    endloop
  endfacet
  facet normal -1 0 0
    outer loop
      vertex 0 1.11022e-015 -5
      vertex 0 15 -1
      vertex 0 15 -5
    endloop
  endfacet
  facet normal 0 -2.22045e-016 1
    outer loop
      vertex 0 15 -1
      vertex 0 2.22045e-016 -1
      vertex 1 2.22045e-016 -1
    endloop
  endfacet
  facet normal 0 -2.22045e-016 1
    outer loop
      vertex 1 15 -1
      vertex 0 15 -1
      vertex 1 2.22045e-016 -1
    endloop
  endfacet
  facet normal 0 -1 -2.22045e-016
    outer loop
      vertex 1 2.22045e-016 -1
      vertex 0 2.22045e-016 -1
      vertex 0 1.11022e-015 -5
    endloop
  endfacet
  facet normal 0 -1 -2.22045e-016
    outer loop
      vertex 1 1.11022e-015 -5
      vertex 1 2.22045e-016 -1
      vertex 0 1.11022e-015 -5
    endloop
  endfacet
  facet normal 0 2.22045e-016 -1
    outer loop
      vertex 0 1.11022e-015 -5
      vertex 0 15 -5
      vertex 1 1.11022e-015 -5
    endloop
  endfacet
  facet normal 0 2.22045e-016 -1
    outer loop
      vertex 1 2.5 -5
      vertex 0 15 -5
      vertex 12.5 15 -5
    endloop
  endfacet
  facet normal 0 2.22045e-016 -1
    outer loop
      vertex 11.5 1.11022e-015 -5
      vertex 12.5 15 -5
      vertex 12.5 1.11022e-015 -5
    endloop
  endfacet
  facet normal 0 2.22045e-016 -1
    outer loop
      vertex 11.5 2.5 -5
      vertex 12.5 15 -5
      vertex 11.5 1.11022e-015 -5
    endloop
  endfacet
  facet normal 0 2.22045e-016 -1
    outer loop
      vertex 1 1.11022e-015 -5
      vertex 0 15 -5
      vertex 1 2.5 -5
    endloop
  endfacet
  facet normal 0 2.22045e-016 -1
    outer loop
      vertex 1 2.5 -5
      vertex 12.5 15 -5
      vertex 11.5 2.5 -5
    endloop
  endfacet
  facet normal 0 1 2.22045e-016
    outer loop
      vertex 0 15 -1
      vertex 1 15 -1
      vertex 0 15 -5
    endloop
  endfacet
  facet normal 0 1 2.22045e-016
    outer loop
      vertex 0 15 -5
      vertex 1 15 -1
      vertex 1 15 -3.8
    endloop
  endfacet
  facet normal 0 1 2.22045e-016
    outer loop
      vertex 0 15 -5
      vertex 1 15 -3.8
      vertex 11.5 15 -3.8
    endloop
  endfacet
  facet normal 0 1 2.22045e-016
    outer loop
      vertex 11.5 15 -3.8
      vertex 11.5 15 -1
      vertex 12.5 15 -1
    endloop
  endfacet
  facet normal 0 1 2.22045e-016
    outer loop
      vertex 11.5 15 -3.8
      vertex 12.5 15 -1
      vertex 12.5 15 -5
    endloop
  endfacet
  facet normal 0 1 2.22045e-016
    outer loop
      vertex 11.5 15 -3.8
      vertex 12.5 15 -5
      vertex 0 15 -5
    endloop
  endfacet
  facet normal 1 0 0
    outer loop
      vertex 1 1.11022e-015 -5
      vertex 1 2.5 -5
      vertex 1 2.5 -3.8
    endloop
  endfacet
  facet normal 1 0 0
    outer loop
      vertex 1 2.22045e-016 -1
      vertex 1 1.11022e-015 -5
      vertex 1 2.5 -3.8
    endloop
  endfacet
  facet normal 1 0 0
    outer loop
      vertex 1 15 -3.8
      vertex 1 15 -1
      vertex 1 2.5 -3.8
    endloop
  endfacet
  facet normal 1 0 0
    outer loop
      vertex 1 15 -1
      vertex 1 2.22045e-016 -1
      vertex 1 2.5 -3.8
    endloop
  endfacet
  facet normal 0 -1 -2.22045e-016
    outer loop
      vertex 1 2.5 -5
      vertex 11.5 2.5 -5
      vertex 11.5 2.5 -3.8
    endloop
  endfacet
  facet normal 0 -1 -2.22045e-016
    outer loop
      vertex 1 2.5 -3.8
      vertex 1 2.5 -5
      vertex 11.5 2.5 -3.8
    endloop
  endfacet
  facet normal -1 0 0
    outer loop
      vertex 11.5 15 -3.8
      vertex 11.5 2.5 -3.8
      vertex 11.5 15 -1
    endloop
  endfacet
  facet normal -1 0 0
    outer loop
      vertex 11.5 1.11022e-015 -5
      vertex 11.5 2.5 -3.8
      vertex 11.5 2.5 -5
    endloop
  endfacet
  facet normal -1 0 0
    outer loop
      vertex 11.5 2.22045e-016 -1
      vertex 11.5 2.5 -3.8
      vertex 11.5 1.11022e-015 -5
    endloop
  endfacet
  facet normal -1 0 0
    outer loop
      vertex 11.5 15 -1
      vertex 11.5 2.5 -3.8
      vertex 11.5 2.22045e-016 -1
    endloop
  endfacet
  facet normal 0 -1 -2.22045e-016
    outer loop
      vertex 12.5 2.22045e-016 -1
      vertex 11.5 2.22045e-016 -1
      vertex 11.5 1.11022e-015 -5
    endloop
  endfacet
  facet normal 0 -1 -2.22045e-016
    outer loop
      vertex 12.5 1.11022e-015 -5
      vertex 12.5 2.22045e-016 -1
      vertex 11.5 1.11022e-015 -5
    endloop
  endfacet
  facet normal 1 0 0
    outer loop
      vertex 12.5 15 -1
      vertex 12.5 2.22045e-016 -1
      vertex 12.5 1.11022e-015 -5
    endloop
  endfacet
  facet normal 1 0 0
    outer loop
      vertex 12.5 15 -5
      vertex 12.5 15 -1
      vertex 12.5 1.11022e-015 -5
    endloop
  endfacet
  facet normal 0 -2.22045e-016 1
    outer loop
      vertex 11.5 15 -1
      vertex 11.5 2.22045e-016 -1
      vertex 12.5 2.22045e-016 -1
    endloop
  endfacet
  facet normal 0 -2.22045e-016 1
    outer loop
      vertex 12.5 15 -1
      vertex 11.5 15 -1
      vertex 12.5 2.22045e-016 -1
    endloop
  endfacet
  facet normal 0 -2.22045e-016 1
    outer loop
      vertex 5.7 11 -3.8
      vertex 11.5 15 -3.8
      vertex 1 15 -3.8
    endloop
  endfacet
  facet normal 0 -2.22045e-016 1
    outer loop
      vertex 1 2.5 -3.8
      vertex 3.1 11 -3.8
      vertex 1 15 -3.8
    endloop
  endfacet
  facet normal 0 -2.22045e-016 1
    outer loop
      vertex 6.7 9 -3.8
      vertex 5.7 9 -3.8
      vertex 11.5 2.5 -3.8
    endloop
  endfacet
  facet normal 0 -2.22045e-016 1
    outer loop
      vertex 3.1 11 -3.8
      vertex 4.1 11 -3.8
      vertex 1 15 -3.8
    endloop
  endfacet
  facet normal 0 -2.22045e-016 1
    outer loop
      vertex 1 2.5 -3.8
      vertex 11.5 2.5 -3.8
      vertex 4.1 9 -3.8
    endloop
  endfacet
  facet normal 0 -2.22045e-016 1
    outer loop
      vertex 1 2.5 -3.8
      vertex 3.1 9 -3.8
      vertex 3.1 11 -3.8
    endloop
  endfacet
  facet normal 0 -2.22045e-016 1
    outer loop
      vertex 1 2.5 -3.8
      vertex 4.1 9 -3.8
      vertex 3.1 9 -3.8
    endloop
  endfacet
  facet normal 0 -2.22045e-016 1
    outer loop
      vertex 6.7 11 -3.8
      vertex 11.5 15 -3.8
      vertex 5.7 11 -3.8
    endloop
  endfacet
  facet normal 0 -2.22045e-016 1
    outer loop
      vertex 9.3 9 -3.8
      vertex 8.3 9 -3.8
      vertex 11.5 2.5 -3.8
    endloop
  endfacet
  facet normal 0 -2.22045e-016 1
    outer loop
      vertex 8.3 11 -3.8
      vertex 11.5 15 -3.8
      vertex 6.7 11 -3.8
    endloop
  endfacet
  facet normal 0 -2.22045e-016 1
    outer loop
      vertex 6.7 11 -3.8
      vertex 6.7 9 -3.8
      vertex 11.5 2.5 -3.8
    endloop
  endfacet
  facet normal 0 -2.22045e-016 1
    outer loop
      vertex 5.7 9 -3.8
      vertex 1 15 -3.8
      vertex 4.1 11 -3.8
    endloop
  endfacet
  facet normal 0 -2.22045e-016 1
    outer loop
      vertex 8.3 9 -3.8
      vertex 8.3 11 -3.8
      vertex 6.7 11 -3.8
    endloop
  endfacet
  facet normal 0 -2.22045e-016 1
    outer loop
      vertex 9.3 11 -3.8
      vertex 11.5 15 -3.8
      vertex 8.3 11 -3.8
    endloop
  endfacet
  facet normal 0 -2.22045e-016 1
    outer loop
      vertex 11.5 2.5 -3.8
      vertex 11.5 15 -3.8
      vertex 9.3 11 -3.8
    endloop
  endfacet
  facet normal 0 -2.22045e-016 1
    outer loop
      vertex 11.5 2.5 -3.8
      vertex 9.3 11 -3.8
      vertex 9.3 9 -3.8
    endloop
  endfacet
  facet normal 0 -2.22045e-016 1
    outer loop
      vertex 11.5 2.5 -3.8
      vertex 8.3 9 -3.8
      vertex 6.7 11 -3.8
    endloop
  endfacet
  facet normal 0 -2.22045e-016 1
    outer loop
      vertex 5.7 9 -3.8
      vertex 4.1 9 -3.8
      vertex 11.5 2.5 -3.8
    endloop
  endfacet
  facet normal 0 -2.22045e-016 1
    outer loop
      vertex 4.1 11 -3.8
      vertex 4.1 9 -3.8
      vertex 5.7 9 -3.8
    endloop
  endfacet
  facet normal 0 -2.22045e-016 1
    outer loop
      vertex 5.7 9 -3.8
      vertex 5.7 11 -3.8
      vertex 1 15 -3.8
    endloop
  endfacet
  facet normal -1 0 0
    outer loop
      vertex 3.1 9 -2.5
      vertex 3.1 11 -2.5
      vertex 3.1 9 -3.8
    endloop
  endfacet
  facet normal -1 0 0
    outer loop
      vertex 3.1 9 -3.8
      vertex 3.1 11 -2.5
      vertex 3.1 11 -3.8
    endloop
  endfacet
  facet normal 0 1 2.22045e-016
    outer loop
      vertex 3.1 11 -2.5
      vertex 4.1 11 -2.5
      vertex 3.1 11 -3.8
    endloop
  endfacet
  facet normal 0 1 2.22045e-016
    outer loop
      vertex 3.1 11 -3.8
      vertex 4.1 11 -2.5
      vertex 4.1 11 -3.8
    endloop
  endfacet
  facet normal 0 -1 -2.22045e-016
    outer loop
      vertex 4.1 9 -2.5
      vertex 3.1 9 -2.5
      vertex 3.1 9 -3.8
    endloop
  endfacet
  facet normal 0 -1 -2.22045e-016
    outer loop
      vertex 4.1 9 -3.8
      vertex 4.1 9 -2.5
      vertex 3.1 9 -3.8
    endloop
  endfacet
  facet normal 1 0 0
    outer loop
      vertex 4.1 11 -2.5
      vertex 4.1 9 -2.5
      vertex 4.1 9 -3.8
    endloop
  endfacet
  facet normal 1 0 0
    outer loop
      vertex 4.1 11 -3.8
      vertex 4.1 11 -2.5
      vertex 4.1 9 -3.8
    endloop
  endfacet
  facet normal -1 0 0
    outer loop
      vertex 5.7 9 -2.5
      vertex 5.7 11 -2.5
      vertex 5.7 9 -3.8
    endloop
  endfacet
  facet normal -1 0 0
    outer loop
      vertex 5.7 9 -3.8
      vertex 5.7 11 -2.5
      vertex 5.7 11 -3.8
    endloop
  endfacet
  facet normal 0 1 2.22045e-016
    outer loop
      vertex 5.7 11 -2.5
      vertex 6.7 11 -2.5
      vertex 5.7 11 -3.8
    endloop
  endfacet
  facet normal 0 1 2.22045e-016
    outer loop
      vertex 5.7 11 -3.8
      vertex 6.7 11 -2.5
      vertex 6.7 11 -3.8
    endloop
  endfacet
  facet normal 0 -1 -2.22045e-016
    outer loop
      vertex 6.7 9 -2.5
      vertex 5.7 9 -2.5
      vertex 5.7 9 -3.8
    endloop
  endfacet
  facet normal 0 -1 -2.22045e-016
    outer loop
      vertex 6.7 9 -3.8
      vertex 6.7 9 -2.5
      vertex 5.7 9 -3.8
    endloop
  endfacet
  facet normal 1 0 0
    outer loop
      vertex 6.7 11 -2.5
      vertex 6.7 9 -2.5
      vertex 6.7 9 -3.8
    endloop
  endfacet
  facet normal 1 0 0
    outer loop
      vertex 6.7 11 -3.8
      vertex 6.7 11 -2.5
      vertex 6.7 9 -3.8
    endloop
  endfacet
  facet normal -1 0 0
    outer loop
      vertex 8.3 9 -2.5
      vertex 8.3 11 -2.5
      vertex 8.3 9 -3.8
    endloop
  endfacet
  facet normal -1 0 0
    outer loop
      vertex 8.3 9 -3.8
      vertex 8.3 11 -2.5
      vertex 8.3 11 -3.8
    endloop
  endfacet
  facet normal 0 1 2.22045e-016
    outer loop
      vertex 8.3 11 -2.5
      vertex 9.3 11 -2.5
      vertex 8.3 11 -3.8
    endloop
  endfacet
  facet normal 0 1 2.22045e-016
    outer loop
      vertex 8.3 11 -3.8
      vertex 9.3 11 -2.5
      vertex 9.3 11 -3.8
    endloop
  endfacet
  facet normal 0 -1 -2.22045e-016
    outer loop
      vertex 9.3 9 -2.5
      vertex 8.3 9 -2.5
      vertex 8.3 9 -3.8
    endloop
  endfacet
  facet normal 0 -1 -2.22045e-016
    outer loop
      vertex 9.3 9 -3.8
      vertex 9.3 9 -2.5
      vertex 8.3 9 -3.8
    endloop
  endfacet
  facet normal 1 0 0
    outer loop
      vertex 9.3 11 -2.5
      vertex 9.3 9 -2.5
      vertex 9.3 9 -3.8
    endloop
  endfacet
  facet normal 1 0 0
    outer loop
      vertex 9.3 11 -3.8
      vertex 9.3 11 -2.5
      vertex 9.3 9 -3.8
    endloop
  endfacet
  facet normal 0 -2.22045e-016 1
    outer loop
      vertex 3.1 11 -2.5
      vertex 3.1 9 -2.5
      vertex 4.1 9 -2.5
    endloop
  endfacet
  facet normal 0 -2.22045e-016 1
    outer loop
      vertex 4.1 11 -2.5
      vertex 3.1 11 -2.5
      vertex 4.1 9 -2.5
    endloop
  endfacet
  facet normal 0 -2.22045e-016 1
    outer loop
      vertex 5.7 11 -2.5
      vertex 5.7 9 -2.5
      vertex 6.7 9 -2.5
    endloop
  endfacet
  facet normal 0 -2.22045e-016 1
    outer loop
      vertex 6.7 11 -2.5
      vertex 5.7 11 -2.5
      vertex 6.7 9 -2.5
    endloop
  endfacet
  facet normal 0 -2.22045e-016 1
    outer loop
      vertex 8.3 11 -2.5
      vertex 8.3 9 -2.5
      vertex 9.3 9 -2.5
    endloop
  endfacet
  facet normal 0 -2.22045e-016 1
    outer loop
      vertex 9.3 11 -2.5
      vertex 8.3 11 -2.5
      vertex 9.3 9 -2.5
    endloop
  endfacet
endsolid OpenSCAD_Model
