solid OpenSCAD_Model
  facet normal -1 0 0
    outer loop
      vertex -5 1 -1.5
      vertex -5 -7 -1.5
      vertex -5 1 1.5
    endloop
  endfacet
  facet normal -1 0 0
    outer loop
      vertex -5 1 1.5
      vertex -5 -7 -1.5
      vertex -5 -7 1.5
    endloop
  endfacet
  facet normal 0 -2.22045e-016 -1
    outer loop
      vertex -5 1 -1.5
      vertex 5 1 -1.5
      vertex -5 -7 -1.5
    endloop
  endfacet
  facet normal 0 -2.22045e-016 -1
    outer loop
      vertex -5 -7 -1.5
      vertex 5 1 -1.5
      vertex 5 -7 -1.5
    endloop
  endfacet
  facet normal 0 1 -2.22045e-016
    outer loop
      vertex 1.6 1 1.5
      vertex 5 1 -1.5
      vertex 1.6 1 -2.22045e-016
    endloop
  endfacet
  facet normal 0 1 -2.22045e-016
    outer loop
      vertex -5 1 -1.5
      vertex -5 1 1.5
      vertex -1.6 1 -2.22045e-016
    endloop
  endfacet
  facet normal 0 1 -2.22045e-016
    outer loop
      vertex -5 1 -1.5
      vertex -1.6 1 -2.22045e-016
      vertex 5 1 -1.5
    endloop
  endfacet
  facet normal 0 1 -2.22045e-016
    outer loop
      vertex 5 1 -1.5
      vertex 1.6 1 1.5
      vertex 5 1 1.5
    endloop
  endfacet
  facet normal 0 1 -2.22045e-016
    outer loop
      vertex -1.6 1 -2.22045e-016
      vertex -5 1 1.5
      vertex -1.6 1 1.5
    endloop
  endfacet
  facet normal 0 1 -2.22045e-016
    outer loop
      vertex 1.6 1 -2.22045e-016
      vertex 5 1 -1.5
      vertex -1.6 1 -2.22045e-016
    endloop
  endfacet
  facet normal 0 2.22045e-016 1
    outer loop
      vertex -1.6 1 1.5
      vertex -5 1 1.5
      vertex -5 -7 1.5
    endloop
  endfacet
  facet normal 0 2.22045e-016 1
    outer loop
      vertex -2.1 -1 1.5
      vertex -1.6 -1 1.5
      vertex -1.6 1 1.5
    endloop
  endfacet
  facet normal 0 2.22045e-016 1
    outer loop
      vertex -2.1 -1 1.5
      vertex -1.6 1 1.5
      vertex -5 -7 1.5
    endloop
  endfacet
  facet normal 0 2.22045e-016 1
    outer loop
      vertex 5 1 1.5
      vertex 1.6 1 1.5
      vertex 5 -7 1.5
    endloop
  endfacet
  facet normal 0 2.22045e-016 1
    outer loop
      vertex 1.6 1 1.5
      vertex 2.1 -1 1.5
      vertex 5 -7 1.5
    endloop
  endfacet
  facet normal 0 2.22045e-016 1
    outer loop
      vertex 1.6 1 1.5
      vertex 1.6 -1 1.5
      vertex 2.1 -1 1.5
    endloop
  endfacet
  facet normal 0 2.22045e-016 1
    outer loop
      vertex 5 -7 1.5
      vertex 2.1 -4.3 1.5
      vertex -5 -7 1.5
    endloop
  endfacet
  facet normal 0 2.22045e-016 1
    outer loop
      vertex 2.1 -4.3 1.5
      vertex -2.1 -4.3 1.5
      vertex -5 -7 1.5
    endloop
  endfacet
  facet normal 0 2.22045e-016 1
    outer loop
      vertex -2.1 -4.3 1.5
      vertex -2.1 -1 1.5
      vertex -5 -7 1.5
    endloop
  endfacet
  facet normal 0 2.22045e-016 1
    outer loop
      vertex 2.1 -1 1.5
      vertex 2.1 -4.3 1.5
      vertex 5 -7 1.5
    endloop
  endfacet
  facet normal 0 -1 2.22045e-016
    outer loop
      vertex -5 -7 1.5
      vertex -5 -7 -1.5
      vertex 5 -7 -1.5
    endloop
  endfacet
  facet normal 0 -1 2.22045e-016
    outer loop
      vertex 5 -7 1.5
      vertex -5 -7 1.5
      vertex 5 -7 -1.5
    endloop
  endfacet
  facet normal 1 0 0
    outer loop
      vertex 5 -7 -1.5
      vertex 5 1 -1.5
      vertex 5 1 1.5
    endloop
  endfacet
  facet normal 1 0 0
    outer loop
      vertex 5 -7 1.5
      vertex 5 -7 -1.5
      vertex 5 1 1.5
    endloop
  endfacet
  facet normal -1 0 0
    outer loop
      vertex 1.6 -1 1.5
      vertex 1.6 1 1.5
      vertex 1.6 -1 2.22045e-016
    endloop
  endfacet
  facet normal -1 0 0
    outer loop
      vertex 1.6 -1 2.22045e-016
      vertex 1.6 1 1.5
      vertex 1.6 1 -2.22045e-016
    endloop
  endfacet
  facet normal 0 2.22045e-016 1
    outer loop
      vertex -2.1 -4.3 9.54792e-016
      vertex 2.1 -4.3 9.54792e-016
      vertex 2.1 -1 2.22045e-016
    endloop
  endfacet
  facet normal 0 2.22045e-016 1
    outer loop
      vertex 1.6 1 -2.22045e-016
      vertex -2.1 -4.3 9.54792e-016
      vertex 1.6 -1 2.22045e-016
    endloop
  endfacet
  facet normal 0 2.22045e-016 1
    outer loop
      vertex 1.6 -1 2.22045e-016
      vertex -2.1 -4.3 9.54792e-016
      vertex 2.1 -1 2.22045e-016
    endloop
  endfacet
  facet normal 0 2.22045e-016 1
    outer loop
      vertex -1.6 -1 2.22045e-016
      vertex -2.1 -4.3 9.54792e-016
      vertex 1.6 1 -2.22045e-016
    endloop
  endfacet
  facet normal 0 2.22045e-016 1
    outer loop
      vertex -1.6 1 -2.22045e-016
      vertex -1.6 -1 2.22045e-016
      vertex 1.6 1 -2.22045e-016
    endloop
  endfacet
  facet normal 0 2.22045e-016 1
    outer loop
      vertex -1.6 -1 2.22045e-016
      vertex -2.1 -1 2.22045e-016
      vertex -2.1 -4.3 9.54792e-016
    endloop
  endfacet
  facet normal 1 0 0
    outer loop
      vertex -1.6 1 1.5
      vertex -1.6 -1 1.5
      vertex -1.6 -1 2.22045e-016
    endloop
  endfacet
  facet normal 1 0 0
    outer loop
      vertex -1.6 1 -2.22045e-016
      vertex -1.6 1 1.5
      vertex -1.6 -1 2.22045e-016
    endloop
  endfacet
  facet normal 0 -1 2.22045e-016
    outer loop
      vertex -1.6 -1 2.22045e-016
      vertex -1.6 -1 1.5
      vertex -2.1 -1 1.5
    endloop
  endfacet
  facet normal 0 -1 2.22045e-016
    outer loop
      vertex -2.1 -1 2.22045e-016
      vertex -1.6 -1 2.22045e-016
      vertex -2.1 -1 1.5
    endloop
  endfacet
  facet normal 1 0 0
    outer loop
      vertex -2.1 -1 1.5
      vertex -2.1 -4.3 1.5
      vertex -2.1 -4.3 9.54792e-016
    endloop
  endfacet
  facet normal 1 0 0
    outer loop
      vertex -2.1 -1 2.22045e-016
      vertex -2.1 -1 1.5
      vertex -2.1 -4.3 9.54792e-016
    endloop
  endfacet
  facet normal 0 1 -2.22045e-016
    outer loop
      vertex 2.1 -4.3 1.5
      vertex 2.1 -4.3 9.54792e-016
      vertex -2.1 -4.3 1.5
    endloop
  endfacet
  facet normal 0 1 -2.22045e-016
    outer loop
      vertex -2.1 -4.3 1.5
      vertex 2.1 -4.3 9.54792e-016
      vertex -2.1 -4.3 9.54792e-016
    endloop
  endfacet
  facet normal -1 0 0
    outer loop
      vertex 2.1 -4.3 1.5
      vertex 2.1 -1 1.5
      vertex 2.1 -4.3 9.54792e-016
    endloop
  endfacet
  facet normal -1 0 0
    outer loop
      vertex 2.1 -4.3 9.54792e-016
      vertex 2.1 -1 1.5
      vertex 2.1 -1 2.22045e-016
    endloop
  endfacet
  facet normal 0 -1 2.22045e-016
    outer loop
      vertex 2.1 -1 2.22045e-016
      vertex 2.1 -1 1.5
      vertex 1.6 -1 1.5
    endloop
  endfacet
  facet normal 0 -1 2.22045e-016
    outer loop
      vertex 1.6 -1 2.22045e-016
      vertex 2.1 -1 2.22045e-016
      vertex 1.6 -1 1.5
    endloop
  endfacet
endsolid OpenSCAD_Model
