solid OpenSCAD_Model
  facet normal -2.22045e-016 0 -1
    outer loop
      vertex 0 0 0
      vertex -4 0 8.88178e-016
      vertex 0 8 0
    endloop
  endfacet
  facet normal -2.22045e-016 0 -1
    outer loop
      vertex 0 8 0
      vertex -4 0 8.88178e-016
      vertex -4 22 8.88178e-016
    endloop
  endfacet
  facet normal -2.22045e-016 0 -1
    outer loop
      vertex -10.5 22 2.33147e-015
      vertex -10.5 0 2.33147e-015
      vertex -15 0 3.33067e-015
    endloop
  endfacet
  facet normal -2.22045e-016 0 -1
    outer loop
      vertex -10.5 22 2.33147e-015
      vertex -15 0 3.33067e-015
      vertex -15 8 3.33067e-015
    endloop
  endfacet
  facet normal -2.22045e-016 0 -1
    outer loop
      vertex -10.5 22 2.33147e-015
      vertex -15 8 3.33067e-015
      vertex -26 8 5.77316e-015
    endloop
  endfacet
  facet normal -2.22045e-016 0 -1
    outer loop
      vertex -15 18.8 3.33067e-015
      vertex -26 8 5.77316e-015
      vertex -26 18.8 5.77316e-015
    endloop
  endfacet
  facet normal -2.22045e-016 0 -1
    outer loop
      vertex -10.5 22 2.33147e-015
      vertex -26 8 5.77316e-015
      vertex -15 18.8 3.33067e-015
    endloop
  endfacet
  facet normal -2.22045e-016 0 -1
    outer loop
      vertex -10.5 22 2.33147e-015
      vertex -15 27 3.33067e-015
      vertex -4 22 8.88178e-016
    endloop
  endfacet
  facet normal -2.22045e-016 0 -1
    outer loop
      vertex -4 22 8.88178e-016
      vertex -15 27 3.33067e-015
      vertex 0 27 0
    endloop
  endfacet
  facet normal -2.22045e-016 0 -1
    outer loop
      vertex -15 27 3.33067e-015
      vertex -10.5 22 2.33147e-015
      vertex -15 18.8 3.33067e-015
    endloop
  endfacet
  facet normal -2.22045e-016 0 -1
    outer loop
      vertex -4 22 8.88178e-016
      vertex 0 27 0
      vertex 0 18.8 0
    endloop
  endfacet
  facet normal -2.22045e-016 0 -1
    outer loop
      vertex -4 22 8.88178e-016
      vertex 0 18.8 0
      vertex 0 8 0
    endloop
  endfacet
  facet normal -2.22045e-016 0 -1
    outer loop
      vertex 0 18.8 0
      vertex 11 18.8 -2.44249e-015
      vertex 0 8 0
    endloop
  endfacet
  facet normal -2.22045e-016 0 -1
    outer loop
      vertex 0 8 0
      vertex 11 18.8 -2.44249e-015
      vertex 11 8 -2.44249e-015
    endloop
  endfacet
  facet normal 0 -1 0
    outer loop
      vertex -4 0 8.88178e-016
      vertex 0 0 0
      vertex 8.88178e-015 0 40
    endloop
  endfacet
  facet normal 0 -1 0
    outer loop
      vertex -4 0 40
      vertex -4 0 8.88178e-016
      vertex 8.88178e-015 0 40
    endloop
  endfacet
  facet normal 1 0 -2.22045e-016
    outer loop
      vertex 8.88178e-015 0 40
      vertex 0 0 0
      vertex 0 8 0
    endloop
  endfacet
  facet normal 1 0 -2.22045e-016
    outer loop
      vertex 2.22045e-015 18.8 10
      vertex 8.88178e-015 0 40
      vertex 2.22045e-015 8 10
    endloop
  endfacet
  facet normal 1 0 -2.22045e-016
    outer loop
      vertex 2.22045e-015 8 10
      vertex 8.88178e-015 0 40
      vertex 0 8 0
    endloop
  endfacet
  facet normal 1 0 -2.22045e-016
    outer loop
      vertex 0 27 0
      vertex 8.88178e-015 0 40
      vertex 2.22045e-015 18.8 10
    endloop
  endfacet
  facet normal 1 0 -2.22045e-016
    outer loop
      vertex 0 27 0
      vertex 2.22045e-015 18.8 10
      vertex 0 18.8 0
    endloop
  endfacet
  facet normal 1 0 -2.22045e-016
    outer loop
      vertex 8.88178e-015 27 40
      vertex 8.88178e-015 0 40
      vertex 0 27 0
    endloop
  endfacet
  facet normal 0 -1 0
    outer loop
      vertex 0 8 0
      vertex 11 8 -2.44249e-015
      vertex 11 8 10
    endloop
  endfacet
  facet normal 0 -1 0
    outer loop
      vertex 2.22045e-015 8 10
      vertex 0 8 0
      vertex 11 8 10
    endloop
  endfacet
  facet normal 1 0 -2.22045e-016
    outer loop
      vertex 11 8 10
      vertex 11 8 -2.44249e-015
      vertex 11 18.8 -2.44249e-015
    endloop
  endfacet
  facet normal 1 0 -2.22045e-016
    outer loop
      vertex 11 18.8 10
      vertex 11 8 10
      vertex 11 18.8 -2.44249e-015
    endloop
  endfacet
  facet normal 0 1 0
    outer loop
      vertex 11 18.8 -2.44249e-015
      vertex 0 18.8 0
      vertex 11 18.8 10
    endloop
  endfacet
  facet normal 0 1 0
    outer loop
      vertex 11 18.8 10
      vertex 0 18.8 0
      vertex 2.22045e-015 18.8 10
    endloop
  endfacet
  facet normal 0 1 0
    outer loop
      vertex 0 27 0
      vertex -15 27 3.33067e-015
      vertex 8.88178e-015 27 40
    endloop
  endfacet
  facet normal 0 1 0
    outer loop
      vertex 8.88178e-015 27 40
      vertex -15 27 3.33067e-015
      vertex -15 27 40
    endloop
  endfacet
  facet normal -1 0 2.22045e-016
    outer loop
      vertex -15 0 3.33067e-015
      vertex -15 0 40
      vertex -15 8 3.33067e-015
    endloop
  endfacet
  facet normal -1 0 2.22045e-016
    outer loop
      vertex -15 8 10
      vertex -15 0 40
      vertex -15 27 40
    endloop
  endfacet
  facet normal -1 0 2.22045e-016
    outer loop
      vertex -15 18.8 3.33067e-015
      vertex -15 27 40
      vertex -15 27 3.33067e-015
    endloop
  endfacet
  facet normal -1 0 2.22045e-016
    outer loop
      vertex -15 18.8 10
      vertex -15 27 40
      vertex -15 18.8 3.33067e-015
    endloop
  endfacet
  facet normal -1 0 2.22045e-016
    outer loop
      vertex -15 8 3.33067e-015
      vertex -15 0 40
      vertex -15 8 10
    endloop
  endfacet
  facet normal -1 0 2.22045e-016
    outer loop
      vertex -15 8 10
      vertex -15 27 40
      vertex -15 18.8 10
    endloop
  endfacet
  facet normal 0 1 0
    outer loop
      vertex -15 18.8 3.33067e-015
      vertex -26 18.8 5.77316e-015
      vertex -15 18.8 10
    endloop
  endfacet
  facet normal 0 1 0
    outer loop
      vertex -15 18.8 10
      vertex -26 18.8 5.77316e-015
      vertex -26 18.8 10
    endloop
  endfacet
  facet normal -1 0 2.22045e-016
    outer loop
      vertex -26 8 5.77316e-015
      vertex -26 8 10
      vertex -26 18.8 5.77316e-015
    endloop
  endfacet
  facet normal -1 0 2.22045e-016
    outer loop
      vertex -26 18.8 5.77316e-015
      vertex -26 8 10
      vertex -26 18.8 10
    endloop
  endfacet
  facet normal 0 -1 0
    outer loop
      vertex -26 8 5.77316e-015
      vertex -15 8 3.33067e-015
      vertex -15 8 10
    endloop
  endfacet
  facet normal 0 -1 0
    outer loop
      vertex -26 8 10
      vertex -26 8 5.77316e-015
      vertex -15 8 10
    endloop
  endfacet
  facet normal 0 -1 0
    outer loop
      vertex -15 0 3.33067e-015
      vertex -10.5 0 2.33147e-015
      vertex -10.5 0 40
    endloop
  endfacet
  facet normal 0 -1 0
    outer loop
      vertex -15 0 40
      vertex -15 0 3.33067e-015
      vertex -10.5 0 40
    endloop
  endfacet
  facet normal 1 0 -2.22045e-016
    outer loop
      vertex -10.5 22 2.33147e-015
      vertex -10.5 22 2
      vertex -10.5 2 2
    endloop
  endfacet
  facet normal 1 0 -2.22045e-016
    outer loop
      vertex -10.5 0 2.33147e-015
      vertex -10.5 22 2.33147e-015
      vertex -10.5 2 2
    endloop
  endfacet
  facet normal 1 0 -2.22045e-016
    outer loop
      vertex -10.5 2 40
      vertex -10.5 0 40
      vertex -10.5 2 2
    endloop
  endfacet
  facet normal 1 0 -2.22045e-016
    outer loop
      vertex -10.5 0 40
      vertex -10.5 0 2.33147e-015
      vertex -10.5 2 2
    endloop
  endfacet
  facet normal 0 -1 0
    outer loop
      vertex -4 22 2
      vertex -10.5 22 2
      vertex -10.5 22 2.33147e-015
    endloop
  endfacet
  facet normal 0 -1 0
    outer loop
      vertex -4 22 8.88178e-016
      vertex -4 22 2
      vertex -10.5 22 2.33147e-015
    endloop
  endfacet
  facet normal -1 0 2.22045e-016
    outer loop
      vertex -4 2 40
      vertex -4 2 2
      vertex -4 0 40
    endloop
  endfacet
  facet normal -1 0 2.22045e-016
    outer loop
      vertex -4 22 8.88178e-016
      vertex -4 2 2
      vertex -4 22 2
    endloop
  endfacet
  facet normal -1 0 2.22045e-016
    outer loop
      vertex -4 0 8.88178e-016
      vertex -4 2 2
      vertex -4 22 8.88178e-016
    endloop
  endfacet
  facet normal -1 0 2.22045e-016
    outer loop
      vertex -4 0 40
      vertex -4 2 2
      vertex -4 0 8.88178e-016
    endloop
  endfacet
  facet normal 2.22045e-016 0 1
    outer loop
      vertex -2 2 40
      vertex 8.88178e-015 0 40
      vertex 8.88178e-015 27 40
    endloop
  endfacet
  facet normal 2.22045e-016 0 1
    outer loop
      vertex -2 25 40
      vertex -2 2 40
      vertex 8.88178e-015 27 40
    endloop
  endfacet
  facet normal 2.22045e-016 0 1
    outer loop
      vertex -2 2 40
      vertex -4 2 40
      vertex -4 0 40
    endloop
  endfacet
  facet normal 2.22045e-016 0 1
    outer loop
      vertex -15 0 40
      vertex -13 2 40
      vertex -15 27 40
    endloop
  endfacet
  facet normal 2.22045e-016 0 1
    outer loop
      vertex -15 0 40
      vertex -10.5 0 40
      vertex -13 2 40
    endloop
  endfacet
  facet normal 2.22045e-016 0 1
    outer loop
      vertex -15 27 40
      vertex -13 25 40
      vertex 8.88178e-015 27 40
    endloop
  endfacet
  facet normal 2.22045e-016 0 1
    outer loop
      vertex -13 25 40
      vertex -2 25 40
      vertex 8.88178e-015 27 40
    endloop
  endfacet
  facet normal 2.22045e-016 0 1
    outer loop
      vertex -4 0 40
      vertex 8.88178e-015 0 40
      vertex -2 2 40
    endloop
  endfacet
  facet normal 2.22045e-016 0 1
    outer loop
      vertex -10.5 2 40
      vertex -13 2 40
      vertex -10.5 0 40
    endloop
  endfacet
  facet normal 2.22045e-016 0 1
    outer loop
      vertex -13 2 40
      vertex -13 25 40
      vertex -15 27 40
    endloop
  endfacet
  facet normal 2.22045e-016 0 1
    outer loop
      vertex 2.22045e-015 8 10
      vertex 11 8 10
      vertex 11 18.8 10
    endloop
  endfacet
  facet normal 2.22045e-016 0 1
    outer loop
      vertex 2.22045e-015 18.8 10
      vertex 2.22045e-015 8 10
      vertex 11 18.8 10
    endloop
  endfacet
  facet normal 2.22045e-016 0 1
    outer loop
      vertex -26 8 10
      vertex -15 8 10
      vertex -15 18.8 10
    endloop
  endfacet
  facet normal 2.22045e-016 0 1
    outer loop
      vertex -26 18.8 10
      vertex -26 8 10
      vertex -15 18.8 10
    endloop
  endfacet
  facet normal 0 1 0
    outer loop
      vertex -13 2 40
      vertex -10.5 2 40
      vertex -13 2 2
    endloop
  endfacet
  facet normal 0 1 0
    outer loop
      vertex -13 2 2
      vertex -10.5 2 40
      vertex -10.5 2 2
    endloop
  endfacet
  facet normal 2.22045e-016 0 1
    outer loop
      vertex -10.5 22 2
      vertex -13 25 2
      vertex -13 2 2
    endloop
  endfacet
  facet normal 2.22045e-016 0 1
    outer loop
      vertex -2 25 2
      vertex -13 25 2
      vertex -10.5 22 2
    endloop
  endfacet
  facet normal 2.22045e-016 0 1
    outer loop
      vertex -4 22 2
      vertex -4 2 2
      vertex -2 25 2
    endloop
  endfacet
  facet normal 2.22045e-016 0 1
    outer loop
      vertex -2 25 2
      vertex -10.5 22 2
      vertex -4 22 2
    endloop
  endfacet
  facet normal 2.22045e-016 0 1
    outer loop
      vertex -2 2 2
      vertex -2 25 2
      vertex -4 2 2
    endloop
  endfacet
  facet normal 2.22045e-016 0 1
    outer loop
      vertex -10.5 2 2
      vertex -10.5 22 2
      vertex -13 2 2
    endloop
  endfacet
  facet normal 0 1 0
    outer loop
      vertex -4 2 40
      vertex -2 2 40
      vertex -4 2 2
    endloop
  endfacet
  facet normal 0 1 0
    outer loop
      vertex -4 2 2
      vertex -2 2 40
      vertex -2 2 2
    endloop
  endfacet
  facet normal -1 0 2.22045e-016
    outer loop
      vertex -2 25 40
      vertex -2 25 2
      vertex -2 2 40
    endloop
  endfacet
  facet normal -1 0 2.22045e-016
    outer loop
      vertex -2 2 40
      vertex -2 25 2
      vertex -2 2 2
    endloop
  endfacet
  facet normal 0 -1 0
    outer loop
      vertex -2 25 40
      vertex -13 25 40
      vertex -13 25 2
    endloop
  endfacet
  facet normal 0 -1 0
    outer loop
      vertex -2 25 2
      vertex -2 25 40
      vertex -13 25 2
    endloop
  endfacet
  facet normal 1 0 -2.22045e-016
    outer loop
      vertex -13 25 2
      vertex -13 25 40
      vertex -13 2 40
    endloop
  endfacet
  facet normal 1 0 -2.22045e-016
    outer loop
      vertex -13 2 2
      vertex -13 25 2
      vertex -13 2 40
    endloop
  endfacet
endsolid OpenSCAD_Model
