solid OpenSCAD_Model
  facet normal -1 0 0
    outer loop
      vertex 0 32 0
      vertex 0 32 1.5
      vertex 0 58.5 0
    endloop
  endfacet
  facet normal -1 0 0
    outer loop
      vertex 0 58.5 0
      vertex 0 32 1.5
      vertex 0 58.5 1.5
    endloop
  endfacet
  facet normal 0 -1 0
    outer loop
      vertex 10 32 0
      vertex 10 32 1.5
      vertex 0 32 1.5
    endloop
  endfacet
  facet normal 0 -1 0
    outer loop
      vertex 0 32 0
      vertex 10 32 0
      vertex 0 32 1.5
    endloop
  endfacet
  facet normal 0 0 -1
    outer loop
      vertex 0 32 0
      vertex 0 58.5 0
      vertex 10 32 0
    endloop
  endfacet
  facet normal 0 0 -1
    outer loop
      vertex 10 32 0
      vertex 0 58.5 0
      vertex 0.5 58.5 0
    endloop
  endfacet
  facet normal 0 0 -1
    outer loop
      vertex 10 32 0
      vertex 0.5 58.5 0
      vertex 10 58.5 0
    endloop
  endfacet
  facet normal 0 0 -1
    outer loop
      vertex 10 32 0
      vertex 10 58.5 0
      vertex 46.5 58.5 0
    endloop
  endfacet
  facet normal 0 0 -1
    outer loop
      vertex 10 32 0
      vertex 46.5 58.5 0
      vertex 46.5 0 0
    endloop
  endfacet
  facet normal 0 0 -1
    outer loop
      vertex 10 32 0
      vertex 46.5 0 0
      vertex 10 0 0
    endloop
  endfacet
  facet normal 0 1 0
    outer loop
      vertex 0 58.5 0
      vertex 0 58.5 1.5
      vertex 0.5 58.5 0
    endloop
  endfacet
  facet normal 0 1 0
    outer loop
      vertex 0.5 58.5 1
      vertex 0 58.5 1.5
      vertex 2.5 58.5 1.5
    endloop
  endfacet
  facet normal 0 1 0
    outer loop
      vertex 2.5 58.5 1.5
      vertex 2.5 58.5 5
      vertex 2.5 58.5 1
    endloop
  endfacet
  facet normal 0 1 0
    outer loop
      vertex 0.5 58.5 0
      vertex 0 58.5 1.5
      vertex 0.5 58.5 1
    endloop
  endfacet
  facet normal 0 1 0
    outer loop
      vertex 0.5 58.5 1
      vertex 2.5 58.5 1.5
      vertex 2.5 58.5 1
    endloop
  endfacet
  facet normal 0 0 1
    outer loop
      vertex 0 58.5 1.5
      vertex 0.5 32 1.5
      vertex 0.5 33.5 1.5
    endloop
  endfacet
  facet normal 0 0 1
    outer loop
      vertex 44 1.5 1.5
      vertex 46.5 0 1.5
      vertex 10 33.5 1.5
    endloop
  endfacet
  facet normal 0 0 1
    outer loop
      vertex 44 58.5 1.5
      vertex 44 57 1.5
      vertex 46.5 58.5 1.5
    endloop
  endfacet
  facet normal 0 0 1
    outer loop
      vertex 10 32 1.5
      vertex 10 1.5 1.5
      vertex 10 33.5 1.5
    endloop
  endfacet
  facet normal 0 0 1
    outer loop
      vertex 10 1.5 1.5
      vertex 44 1.5 1.5
      vertex 10 33.5 1.5
    endloop
  endfacet
  facet normal 0 0 1
    outer loop
      vertex 2.5 57 1.5
      vertex 2.5 58.5 1.5
      vertex 0.5 33.5 1.5
    endloop
  endfacet
  facet normal 0 0 1
    outer loop
      vertex 44 0 1.5
      vertex 46.5 0 1.5
      vertex 44 1.5 1.5
    endloop
  endfacet
  facet normal 0 0 1
    outer loop
      vertex 46.5 0 1.5
      vertex 46.5 58.5 1.5
      vertex 10 33.5 1.5
    endloop
  endfacet
  facet normal 0 0 1
    outer loop
      vertex 44 57 1.5
      vertex 2.5 57 1.5
      vertex 0.5 33.5 1.5
    endloop
  endfacet
  facet normal 0 0 1
    outer loop
      vertex 10 33.5 1.5
      vertex 44 57 1.5
      vertex 0.5 33.5 1.5
    endloop
  endfacet
  facet normal 0 0 1
    outer loop
      vertex 10 33.5 1.5
      vertex 46.5 58.5 1.5
      vertex 44 57 1.5
    endloop
  endfacet
  facet normal 0 0 1
    outer loop
      vertex 2.5 58.5 1.5
      vertex 0 58.5 1.5
      vertex 0.5 33.5 1.5
    endloop
  endfacet
  facet normal 0 0 1
    outer loop
      vertex 0 58.5 1.5
      vertex 0 32 1.5
      vertex 0.5 32 1.5
    endloop
  endfacet
  facet normal 0 0 1
    outer loop
      vertex 0 32 1.5
      vertex 10 32 1.5
      vertex 0.5 32 1.5
    endloop
  endfacet
  facet normal -1 0 0
    outer loop
      vertex 10 1.5 5
      vertex 10 1.5 1.5
      vertex 10 0 5
    endloop
  endfacet
  facet normal -1 0 0
    outer loop
      vertex 10 32 0
      vertex 10 1.5 1.5
      vertex 10 32 1.5
    endloop
  endfacet
  facet normal -1 0 0
    outer loop
      vertex 10 0 0
      vertex 10 1.5 1.5
      vertex 10 32 0
    endloop
  endfacet
  facet normal -1 0 0
    outer loop
      vertex 10 0 5
      vertex 10 1.5 1.5
      vertex 10 0 0
    endloop
  endfacet
  facet normal -2.22045e-016 -1 0
    outer loop
      vertex 0.5 32 5
      vertex 0.5 32 1.5
      vertex 10 32 1.5
    endloop
  endfacet
  facet normal -2.22045e-016 -1 0
    outer loop
      vertex 10 32 5
      vertex 0.5 32 5
      vertex 10 32 1.5
    endloop
  endfacet
  facet normal 1 -2.22045e-016 0
    outer loop
      vertex 10 32 5
      vertex 10 32 1.5
      vertex 10 33.5 1.5
    endloop
  endfacet
  facet normal 1 -2.22045e-016 0
    outer loop
      vertex 10 33.5 5
      vertex 10 32 5
      vertex 10 33.5 1.5
    endloop
  endfacet
  facet normal 0 -1 0
    outer loop
      vertex 10 0 5
      vertex 10 0 0
      vertex 46.5 0 0
    endloop
  endfacet
  facet normal 0 -1 0
    outer loop
      vertex 44 0 1.5
      vertex 10 0 5
      vertex 46.5 0 0
    endloop
  endfacet
  facet normal 0 -1 0
    outer loop
      vertex 46.5 0 1.5
      vertex 44 0 1.5
      vertex 46.5 0 0
    endloop
  endfacet
  facet normal 0 -1 0
    outer loop
      vertex 44 0 1.5
      vertex 44 0 5
      vertex 10 0 5
    endloop
  endfacet
  facet normal 1 0 0
    outer loop
      vertex 46.5 0 1.5
      vertex 46.5 0 0
      vertex 46.5 58.5 0
    endloop
  endfacet
  facet normal 1 0 0
    outer loop
      vertex 46.5 58.5 1.5
      vertex 46.5 0 1.5
      vertex 46.5 58.5 0
    endloop
  endfacet
  facet normal 0 1 0
    outer loop
      vertex 10 58.5 0
      vertex 10 58.5 5
      vertex 46.5 58.5 0
    endloop
  endfacet
  facet normal 0 1 0
    outer loop
      vertex 44 58.5 1.5
      vertex 10 58.5 5
      vertex 44 58.5 5
    endloop
  endfacet
  facet normal 0 1 0
    outer loop
      vertex 46.5 58.5 0
      vertex 10 58.5 5
      vertex 44 58.5 1.5
    endloop
  endfacet
  facet normal 0 1 0
    outer loop
      vertex 46.5 58.5 1.5
      vertex 46.5 58.5 0
      vertex 44 58.5 1.5
    endloop
  endfacet
  facet normal 2.22045e-016 1 0
    outer loop
      vertex 0.5 58.5 0
      vertex 0.5 58.5 1
      vertex 10 58.5 0
    endloop
  endfacet
  facet normal 2.22045e-016 1 0
    outer loop
      vertex 10 58.5 0
      vertex 0.5 58.5 1
      vertex 2.5 58.5 1
    endloop
  endfacet
  facet normal 2.22045e-016 1 0
    outer loop
      vertex 10 58.5 0
      vertex 2.5 58.5 1
      vertex 2.5 58.5 5
    endloop
  endfacet
  facet normal 2.22045e-016 1 0
    outer loop
      vertex 10 58.5 0
      vertex 2.5 58.5 5
      vertex 10 58.5 5
    endloop
  endfacet
  facet normal 0 0 1
    outer loop
      vertex 2.5 58.5 5
      vertex 2.5 57 5
      vertex 44 57 5
    endloop
  endfacet
  facet normal 0 0 1
    outer loop
      vertex 10 58.5 5
      vertex 2.5 58.5 5
      vertex 44 57 5
    endloop
  endfacet
  facet normal 0 0 1
    outer loop
      vertex 44 58.5 5
      vertex 10 58.5 5
      vertex 44 57 5
    endloop
  endfacet
  facet normal -1 0 0
    outer loop
      vertex 2.5 58.5 5
      vertex 2.5 58.5 1.5
      vertex 2.5 57 5
    endloop
  endfacet
  facet normal -1 0 0
    outer loop
      vertex 2.5 57 5
      vertex 2.5 58.5 1.5
      vertex 2.5 57 1.5
    endloop
  endfacet
  facet normal 0 -1 0
    outer loop
      vertex 44 57 1.5
      vertex 44 57 5
      vertex 2.5 57 5
    endloop
  endfacet
  facet normal 0 -1 0
    outer loop
      vertex 2.5 57 1.5
      vertex 44 57 1.5
      vertex 2.5 57 5
    endloop
  endfacet
  facet normal 1 0 0
    outer loop
      vertex 44 58.5 1.5
      vertex 44 58.5 5
      vertex 44 57 5
    endloop
  endfacet
  facet normal 1 0 0
    outer loop
      vertex 44 57 1.5
      vertex 44 58.5 1.5
      vertex 44 57 5
    endloop
  endfacet
  facet normal 1 0 0
    outer loop
      vertex 44 1.5 1.5
      vertex 44 1.5 5
      vertex 44 0 5
    endloop
  endfacet
  facet normal 1 0 0
    outer loop
      vertex 44 0 1.5
      vertex 44 1.5 1.5
      vertex 44 0 5
    endloop
  endfacet
  facet normal 0 1 0
    outer loop
      vertex 44 1.5 5
      vertex 44 1.5 1.5
      vertex 10 1.5 5
    endloop
  endfacet
  facet normal 0 1 0
    outer loop
      vertex 10 1.5 5
      vertex 44 1.5 1.5
      vertex 10 1.5 1.5
    endloop
  endfacet
  facet normal 2.22045e-016 1 0
    outer loop
      vertex 10 33.5 5
      vertex 10 33.5 1.5
      vertex 0.5 33.5 5
    endloop
  endfacet
  facet normal 2.22045e-016 1 0
    outer loop
      vertex 0.5 33.5 5
      vertex 10 33.5 1.5
      vertex 0.5 33.5 1.5
    endloop
  endfacet
  facet normal -1 2.22045e-016 0
    outer loop
      vertex 0.5 32 1.5
      vertex 0.5 32 5
      vertex 0.5 33.5 1.5
    endloop
  endfacet
  facet normal -1 2.22045e-016 0
    outer loop
      vertex 0.5 33.5 1.5
      vertex 0.5 32 5
      vertex 0.5 33.5 5
    endloop
  endfacet
  facet normal 0 0 1
    outer loop
      vertex 10 1.5 5
      vertex 10 0 5
      vertex 44 0 5
    endloop
  endfacet
  facet normal 0 0 1
    outer loop
      vertex 44 1.5 5
      vertex 10 1.5 5
      vertex 44 0 5
    endloop
  endfacet
  facet normal 0 0 1
    outer loop
      vertex 0.5 33.5 5
      vertex 0.5 32 5
      vertex 10 32 5
    endloop
  endfacet
  facet normal 0 0 1
    outer loop
      vertex 10 33.5 5
      vertex 0.5 33.5 5
      vertex 10 32 5
    endloop
  endfacet
endsolid OpenSCAD_Model
