solid OpenSCAD_Model
  facet normal -1 0 0
    outer loop
      vertex 0 10.75 4
      vertex 0 14.5 0
      vertex 0 3.75 4
    endloop
  endfacet
  facet normal -1 0 0
    outer loop
      vertex 0 0 0
      vertex 0 0 6
      vertex 0 3.75 4
    endloop
  endfacet
  facet normal -1 0 0
    outer loop
      vertex 0 0 0
      vertex 0 3.75 4
      vertex 0 14.5 0
    endloop
  endfacet
  facet normal -1 0 0
    outer loop
      vertex 0 14.5 0
      vertex 0 10.75 4
      vertex 0 10.75 6
    endloop
  endfacet
  facet normal -1 0 0
    outer loop
      vertex 0 14.5 0
      vertex 0 10.75 6
      vertex 0 14.5 6
    endloop
  endfacet
  facet normal -1 0 0
    outer loop
      vertex 0 3.75 4
      vertex 0 0 6
      vertex 0 3.75 6
    endloop
  endfacet
  facet normal 0 -1 0
    outer loop
      vertex 0 0 6
      vertex 0 0 0
      vertex 33 0 0
    endloop
  endfacet
  facet normal 0 -1 0
    outer loop
      vertex 33 0 6
      vertex 0 0 6
      vertex 33 0 0
    endloop
  endfacet
  facet normal 0 0 -1
    outer loop
      vertex 0 0 0
      vertex 0 14.5 0
      vertex 33 0 0
    endloop
  endfacet
  facet normal 0 0 -1
    outer loop
      vertex 33 0 0
      vertex 0 14.5 0
      vertex 33 14.5 0
    endloop
  endfacet
  facet normal 0 1 0
    outer loop
      vertex 0 14.5 0
      vertex 0 14.5 6
      vertex 33 14.5 0
    endloop
  endfacet
  facet normal 0 1 0
    outer loop
      vertex 33 14.5 0
      vertex 0 14.5 6
      vertex 33 14.5 6
    endloop
  endfacet
  facet normal 0 0 1
    outer loop
      vertex 0 14.5 6
      vertex 0 10.75 6
      vertex 1 10.75 6
    endloop
  endfacet
  facet normal 0 0 1
    outer loop
      vertex 32 13.5 6
      vertex 0 14.5 6
      vertex 1 13.5 6
    endloop
  endfacet
  facet normal 0 0 1
    outer loop
      vertex 1 13.5 6
      vertex 0 14.5 6
      vertex 1 10.75 6
    endloop
  endfacet
  facet normal 0 0 1
    outer loop
      vertex 33 14.5 6
      vertex 0 14.5 6
      vertex 32 13.5 6
    endloop
  endfacet
  facet normal 0 0 1
    outer loop
      vertex 33 10.75 6
      vertex 32 13.5 6
      vertex 32 10.75 6
    endloop
  endfacet
  facet normal 0 0 1
    outer loop
      vertex 33 14.5 6
      vertex 32 13.5 6
      vertex 33 10.75 6
    endloop
  endfacet
  facet normal 0 -1 0
    outer loop
      vertex 1 10.75 4
      vertex 1 10.75 6
      vertex 0 10.75 6
    endloop
  endfacet
  facet normal 0 -1 0
    outer loop
      vertex 0 10.75 4
      vertex 1 10.75 4
      vertex 0 10.75 6
    endloop
  endfacet
  facet normal 0 0 1
    outer loop
      vertex 1 3.75 4
      vertex 1 10.75 4
      vertex 0 10.75 4
    endloop
  endfacet
  facet normal 0 0 1
    outer loop
      vertex 0 3.75 4
      vertex 1 3.75 4
      vertex 0 10.75 4
    endloop
  endfacet
  facet normal 0 1 0
    outer loop
      vertex 1 3.75 6
      vertex 1 3.75 4
      vertex 0 3.75 6
    endloop
  endfacet
  facet normal 0 1 0
    outer loop
      vertex 0 3.75 6
      vertex 1 3.75 4
      vertex 0 3.75 4
    endloop
  endfacet
  facet normal 0 0 1
    outer loop
      vertex 1 1 6
      vertex 0 0 6
      vertex 33 0 6
    endloop
  endfacet
  facet normal 0 0 1
    outer loop
      vertex 1 1 6
      vertex 1 3.75 6
      vertex 0 3.75 6
    endloop
  endfacet
  facet normal 0 0 1
    outer loop
      vertex 33 3.75 6
      vertex 32 3.75 6
      vertex 33 0 6
    endloop
  endfacet
  facet normal 0 0 1
    outer loop
      vertex 32 3.75 6
      vertex 32 1 6
      vertex 33 0 6
    endloop
  endfacet
  facet normal 0 0 1
    outer loop
      vertex 0 3.75 6
      vertex 0 0 6
      vertex 1 1 6
    endloop
  endfacet
  facet normal 0 0 1
    outer loop
      vertex 32 1 6
      vertex 1 1 6
      vertex 33 0 6
    endloop
  endfacet
  facet normal 1 0 0
    outer loop
      vertex 33 3.75 4
      vertex 33 0 0
      vertex 33 14.5 0
    endloop
  endfacet
  facet normal 1 0 0
    outer loop
      vertex 33 3.75 4
      vertex 33 3.75 6
      vertex 33 0 6
    endloop
  endfacet
  facet normal 1 0 0
    outer loop
      vertex 33 14.5 6
      vertex 33 10.75 6
      vertex 33 14.5 0
    endloop
  endfacet
  facet normal 1 0 0
    outer loop
      vertex 33 10.75 6
      vertex 33 10.75 4
      vertex 33 14.5 0
    endloop
  endfacet
  facet normal 1 0 0
    outer loop
      vertex 33 0 6
      vertex 33 0 0
      vertex 33 3.75 4
    endloop
  endfacet
  facet normal 1 0 0
    outer loop
      vertex 33 10.75 4
      vertex 33 3.75 4
      vertex 33 14.5 0
    endloop
  endfacet
  facet normal 0 -1 0
    outer loop
      vertex 33 10.75 4
      vertex 33 10.75 6
      vertex 32 10.75 6
    endloop
  endfacet
  facet normal 0 -1 0
    outer loop
      vertex 32 10.75 4
      vertex 33 10.75 4
      vertex 32 10.75 6
    endloop
  endfacet
  facet normal -1 0 0
    outer loop
      vertex 32 3.75 6
      vertex 32 3.75 4
      vertex 32 1 6
    endloop
  endfacet
  facet normal -1 0 0
    outer loop
      vertex 32 1 1
      vertex 32 3.75 4
      vertex 32 13.5 1
    endloop
  endfacet
  facet normal -1 0 0
    outer loop
      vertex 32 13.5 6
      vertex 32 10.75 4
      vertex 32 10.75 6
    endloop
  endfacet
  facet normal -1 0 0
    outer loop
      vertex 32 13.5 1
      vertex 32 10.75 4
      vertex 32 13.5 6
    endloop
  endfacet
  facet normal -1 0 0
    outer loop
      vertex 32 3.75 4
      vertex 32 10.75 4
      vertex 32 13.5 1
    endloop
  endfacet
  facet normal -1 0 0
    outer loop
      vertex 32 1 6
      vertex 32 3.75 4
      vertex 32 1 1
    endloop
  endfacet
  facet normal 0 -1 0
    outer loop
      vertex 32 13.5 1
      vertex 32 13.5 6
      vertex 1 13.5 6
    endloop
  endfacet
  facet normal 0 -1 0
    outer loop
      vertex 1 13.5 1
      vertex 32 13.5 1
      vertex 1 13.5 6
    endloop
  endfacet
  facet normal 1 0 0
    outer loop
      vertex 1 13.5 1
      vertex 1 13.5 6
      vertex 1 10.75 6
    endloop
  endfacet
  facet normal 1 0 0
    outer loop
      vertex 1 3.75 4
      vertex 1 13.5 1
      vertex 1 10.75 4
    endloop
  endfacet
  facet normal 1 0 0
    outer loop
      vertex 1 10.75 4
      vertex 1 13.5 1
      vertex 1 10.75 6
    endloop
  endfacet
  facet normal 1 0 0
    outer loop
      vertex 1 1 1
      vertex 1 13.5 1
      vertex 1 3.75 4
    endloop
  endfacet
  facet normal 1 0 0
    outer loop
      vertex 1 1 6
      vertex 1 3.75 4
      vertex 1 3.75 6
    endloop
  endfacet
  facet normal 1 0 0
    outer loop
      vertex 1 1 1
      vertex 1 3.75 4
      vertex 1 1 6
    endloop
  endfacet
  facet normal 0 1 0
    outer loop
      vertex 32 1 6
      vertex 32 1 1
      vertex 1 1 6
    endloop
  endfacet
  facet normal 0 1 0
    outer loop
      vertex 1 1 6
      vertex 32 1 1
      vertex 1 1 1
    endloop
  endfacet
  facet normal 0 1 0
    outer loop
      vertex 33 3.75 6
      vertex 33 3.75 4
      vertex 32 3.75 6
    endloop
  endfacet
  facet normal 0 1 0
    outer loop
      vertex 32 3.75 6
      vertex 33 3.75 4
      vertex 32 3.75 4
    endloop
  endfacet
  facet normal 0 0 1
    outer loop
      vertex 33 3.75 4
      vertex 33 10.75 4
      vertex 32 10.75 4
    endloop
  endfacet
  facet normal 0 0 1
    outer loop
      vertex 32 3.75 4
      vertex 33 3.75 4
      vertex 32 10.75 4
    endloop
  endfacet
  facet normal 0 0 1
    outer loop
      vertex 32 1 1
      vertex 32 13.5 1
      vertex 1 13.5 1
    endloop
  endfacet
  facet normal 0 0 1
    outer loop
      vertex 1 1 1
      vertex 32 1 1
      vertex 1 13.5 1
    endloop
  endfacet
endsolid OpenSCAD_Model
