solid OpenSCAD_Model
  facet normal -1 0 0
    outer loop
      vertex -2.5 0 -1
      vertex -2.5 0 1
      vertex -2.5 12.5 -1
    endloop
  endfacet
  facet normal -1 0 0
    outer loop
      vertex -2.5 12.5 -1
      vertex -2.5 0 1
      vertex -2.5 12.5 1
    endloop
  endfacet
  facet normal 0 -1 0
    outer loop
      vertex -2.5 0 1
      vertex -2.5 0 -1
      vertex 32.5 0 -1
    endloop
  endfacet
  facet normal 0 -1 0
    outer loop
      vertex 0 0 1
      vertex -2.5 0 1
      vertex 32.5 0 -1
    endloop
  endfacet
  facet normal 0 -1 0
    outer loop
      vertex 30 0 1
      vertex 0 0 1
      vertex 32.5 0 -1
    endloop
  endfacet
  facet normal 0 -1 0
    outer loop
      vertex 32.5 0 1
      vertex 30 0 1
      vertex 32.5 0 -1
    endloop
  endfacet
  facet normal 0 -1 0
    outer loop
      vertex 30 0 9
      vertex 0 0 1
      vertex 30 0 1
    endloop
  endfacet
  facet normal 0 -1 0
    outer loop
      vertex 0 0 9
      vertex 0 0 1
      vertex 30 0 9
    endloop
  endfacet
  facet normal 0 0 -1
    outer loop
      vertex -2.5 0 -1
      vertex -2.5 12.5 -1
      vertex 32.5 0 -1
    endloop
  endfacet
  facet normal 0 0 -1
    outer loop
      vertex 32.5 0 -1
      vertex -2.5 12.5 -1
      vertex 32.5 12.5 -1
    endloop
  endfacet
  facet normal 0 1 0
    outer loop
      vertex -2.5 12.5 -1
      vertex -2.5 12.5 1
      vertex 32.5 12.5 -1
    endloop
  endfacet
  facet normal 0 1 0
    outer loop
      vertex 32.5 12.5 -1
      vertex -2.5 12.5 1
      vertex 0 12.5 1
    endloop
  endfacet
  facet normal 0 1 0
    outer loop
      vertex 32.5 12.5 -1
      vertex 0 12.5 1
      vertex 0 12.5 9
    endloop
  endfacet
  facet normal 0 1 0
    outer loop
      vertex 30 12.5 1
      vertex 0 12.5 9
      vertex 30 12.5 9
    endloop
  endfacet
  facet normal 0 1 0
    outer loop
      vertex 32.5 12.5 -1
      vertex 0 12.5 9
      vertex 30 12.5 1
    endloop
  endfacet
  facet normal 0 1 0
    outer loop
      vertex 32.5 12.5 1
      vertex 32.5 12.5 -1
      vertex 30 12.5 1
    endloop
  endfacet
  facet normal 0 0 1
    outer loop
      vertex -2.5 12.5 1
      vertex -2.5 0 1
      vertex 0 0 1
    endloop
  endfacet
  facet normal 0 0 1
    outer loop
      vertex 0 12.5 1
      vertex -2.5 12.5 1
      vertex 0 0 1
    endloop
  endfacet
  facet normal -1 0 0
    outer loop
      vertex 0 10.25 5
      vertex 0 12.5 1
      vertex 0 2.25 5
    endloop
  endfacet
  facet normal -1 0 0
    outer loop
      vertex 0 0 1
      vertex 0 0 9
      vertex 0 2.25 5
    endloop
  endfacet
  facet normal -1 0 0
    outer loop
      vertex 0 0 1
      vertex 0 2.25 5
      vertex 0 12.5 1
    endloop
  endfacet
  facet normal -1 0 0
    outer loop
      vertex 0 12.5 1
      vertex 0 10.25 5
      vertex 0 10.25 9
    endloop
  endfacet
  facet normal -1 0 0
    outer loop
      vertex 0 12.5 1
      vertex 0 10.25 9
      vertex 0 12.5 9
    endloop
  endfacet
  facet normal -1 0 0
    outer loop
      vertex 0 2.25 5
      vertex 0 0 9
      vertex 0 2.25 9
    endloop
  endfacet
  facet normal 0 0 1
    outer loop
      vertex 1 1 9
      vertex 0 0 9
      vertex 30 0 9
    endloop
  endfacet
  facet normal 0 0 1
    outer loop
      vertex 1 1 9
      vertex 1 2.25 9
      vertex 0 2.25 9
    endloop
  endfacet
  facet normal 0 0 1
    outer loop
      vertex 30 2.25 9
      vertex 29 2.25 9
      vertex 30 0 9
    endloop
  endfacet
  facet normal 0 0 1
    outer loop
      vertex 29 2.25 9
      vertex 29 1 9
      vertex 30 0 9
    endloop
  endfacet
  facet normal 0 0 1
    outer loop
      vertex 0 2.25 9
      vertex 0 0 9
      vertex 1 1 9
    endloop
  endfacet
  facet normal 0 0 1
    outer loop
      vertex 29 1 9
      vertex 1 1 9
      vertex 30 0 9
    endloop
  endfacet
  facet normal 1 0 0
    outer loop
      vertex 30 2.25 5
      vertex 30 0 1
      vertex 30 12.5 1
    endloop
  endfacet
  facet normal 1 0 0
    outer loop
      vertex 30 2.25 5
      vertex 30 2.25 9
      vertex 30 0 9
    endloop
  endfacet
  facet normal 1 0 0
    outer loop
      vertex 30 12.5 9
      vertex 30 10.25 9
      vertex 30 12.5 1
    endloop
  endfacet
  facet normal 1 0 0
    outer loop
      vertex 30 10.25 9
      vertex 30 10.25 5
      vertex 30 12.5 1
    endloop
  endfacet
  facet normal 1 0 0
    outer loop
      vertex 30 0 9
      vertex 30 0 1
      vertex 30 2.25 5
    endloop
  endfacet
  facet normal 1 0 0
    outer loop
      vertex 30 10.25 5
      vertex 30 2.25 5
      vertex 30 12.5 1
    endloop
  endfacet
  facet normal 0 0 1
    outer loop
      vertex 30 12.5 1
      vertex 30 0 1
      vertex 32.5 0 1
    endloop
  endfacet
  facet normal 0 0 1
    outer loop
      vertex 32.5 12.5 1
      vertex 30 12.5 1
      vertex 32.5 0 1
    endloop
  endfacet
  facet normal 1 0 0
    outer loop
      vertex 32.5 0 1
      vertex 32.5 0 -1
      vertex 32.5 12.5 -1
    endloop
  endfacet
  facet normal 1 0 0
    outer loop
      vertex 32.5 12.5 1
      vertex 32.5 0 1
      vertex 32.5 12.5 -1
    endloop
  endfacet
  facet normal 0 0 1
    outer loop
      vertex 0 12.5 9
      vertex 0 10.25 9
      vertex 1 10.25 9
    endloop
  endfacet
  facet normal 0 0 1
    outer loop
      vertex 29 11.5 9
      vertex 0 12.5 9
      vertex 1 11.5 9
    endloop
  endfacet
  facet normal 0 0 1
    outer loop
      vertex 1 11.5 9
      vertex 0 12.5 9
      vertex 1 10.25 9
    endloop
  endfacet
  facet normal 0 0 1
    outer loop
      vertex 30 12.5 9
      vertex 0 12.5 9
      vertex 29 11.5 9
    endloop
  endfacet
  facet normal 0 0 1
    outer loop
      vertex 30 10.25 9
      vertex 29 11.5 9
      vertex 29 10.25 9
    endloop
  endfacet
  facet normal 0 0 1
    outer loop
      vertex 30 12.5 9
      vertex 29 11.5 9
      vertex 30 10.25 9
    endloop
  endfacet
  facet normal 0 -1 0
    outer loop
      vertex 1 10.25 5
      vertex 1 10.25 9
      vertex 0 10.25 9
    endloop
  endfacet
  facet normal 0 -1 0
    outer loop
      vertex 0 10.25 5
      vertex 1 10.25 5
      vertex 0 10.25 9
    endloop
  endfacet
  facet normal 0 0 1
    outer loop
      vertex 1 2.25 5
      vertex 1 10.25 5
      vertex 0 10.25 5
    endloop
  endfacet
  facet normal 0 0 1
    outer loop
      vertex 0 2.25 5
      vertex 1 2.25 5
      vertex 0 10.25 5
    endloop
  endfacet
  facet normal 0 1 0
    outer loop
      vertex 1 2.25 9
      vertex 1 2.25 5
      vertex 0 2.25 9
    endloop
  endfacet
  facet normal 0 1 0
    outer loop
      vertex 0 2.25 9
      vertex 1 2.25 5
      vertex 0 2.25 5
    endloop
  endfacet
  facet normal 1 0 0
    outer loop
      vertex 1 11.5 1
      vertex 1 11.5 9
      vertex 1 10.25 9
    endloop
  endfacet
  facet normal 1 0 0
    outer loop
      vertex 1 2.25 5
      vertex 1 11.5 1
      vertex 1 10.25 5
    endloop
  endfacet
  facet normal 1 0 0
    outer loop
      vertex 1 10.25 5
      vertex 1 11.5 1
      vertex 1 10.25 9
    endloop
  endfacet
  facet normal 1 0 0
    outer loop
      vertex 1 1 1
      vertex 1 11.5 1
      vertex 1 2.25 5
    endloop
  endfacet
  facet normal 1 0 0
    outer loop
      vertex 1 1 9
      vertex 1 2.25 5
      vertex 1 2.25 9
    endloop
  endfacet
  facet normal 1 0 0
    outer loop
      vertex 1 1 1
      vertex 1 2.25 5
      vertex 1 1 9
    endloop
  endfacet
  facet normal 0 1 0
    outer loop
      vertex 29 1 9
      vertex 29 1 1
      vertex 1 1 9
    endloop
  endfacet
  facet normal 0 1 0
    outer loop
      vertex 1 1 9
      vertex 29 1 1
      vertex 1 1 1
    endloop
  endfacet
  facet normal -1 0 0
    outer loop
      vertex 29 2.25 9
      vertex 29 2.25 5
      vertex 29 1 9
    endloop
  endfacet
  facet normal -1 0 0
    outer loop
      vertex 29 1 1
      vertex 29 2.25 5
      vertex 29 11.5 1
    endloop
  endfacet
  facet normal -1 0 0
    outer loop
      vertex 29 11.5 9
      vertex 29 10.25 5
      vertex 29 10.25 9
    endloop
  endfacet
  facet normal -1 0 0
    outer loop
      vertex 29 11.5 1
      vertex 29 10.25 5
      vertex 29 11.5 9
    endloop
  endfacet
  facet normal -1 0 0
    outer loop
      vertex 29 2.25 5
      vertex 29 10.25 5
      vertex 29 11.5 1
    endloop
  endfacet
  facet normal -1 0 0
    outer loop
      vertex 29 1 9
      vertex 29 2.25 5
      vertex 29 1 1
    endloop
  endfacet
  facet normal 0 1 0
    outer loop
      vertex 30 2.25 9
      vertex 30 2.25 5
      vertex 29 2.25 9
    endloop
  endfacet
  facet normal 0 1 0
    outer loop
      vertex 29 2.25 9
      vertex 30 2.25 5
      vertex 29 2.25 5
    endloop
  endfacet
  facet normal 0 0 1
    outer loop
      vertex 30 2.25 5
      vertex 30 10.25 5
      vertex 29 10.25 5
    endloop
  endfacet
  facet normal 0 0 1
    outer loop
      vertex 29 2.25 5
      vertex 30 2.25 5
      vertex 29 10.25 5
    endloop
  endfacet
  facet normal 0 -1 0
    outer loop
      vertex 30 10.25 5
      vertex 30 10.25 9
      vertex 29 10.25 9
    endloop
  endfacet
  facet normal 0 -1 0
    outer loop
      vertex 29 10.25 5
      vertex 30 10.25 5
      vertex 29 10.25 9
    endloop
  endfacet
  facet normal 0 -1 0
    outer loop
      vertex 29 11.5 1
      vertex 29 11.5 9
      vertex 1 11.5 9
    endloop
  endfacet
  facet normal 0 -1 0
    outer loop
      vertex 1 11.5 1
      vertex 29 11.5 1
      vertex 1 11.5 9
    endloop
  endfacet
  facet normal 0 0 1
    outer loop
      vertex 1 11.5 1
      vertex 1 1 1
      vertex 29 1 1
    endloop
  endfacet
  facet normal 0 0 1
    outer loop
      vertex 29 11.5 1
      vertex 1 11.5 1
      vertex 29 1 1
    endloop
  endfacet
endsolid OpenSCAD_Model
