solid OpenSCAD_Model
  facet normal -1 0 0
    outer loop
      vertex 0 8.75 6
      vertex 0 13.5 0
      vertex 0 8.75 3
    endloop
  endfacet
  facet normal -1 0 0
    outer loop
      vertex 0 0 0
      vertex 0 0 6
      vertex 0 4.75 3
    endloop
  endfacet
  facet normal -1 0 0
    outer loop
      vertex 0 0 0
      vertex 0 4.75 3
      vertex 0 13.5 0
    endloop
  endfacet
  facet normal -1 0 0
    outer loop
      vertex 0 13.5 0
      vertex 0 8.75 6
      vertex 0 13.5 6
    endloop
  endfacet
  facet normal -1 0 0
    outer loop
      vertex 0 4.75 3
      vertex 0 0 6
      vertex 0 4.75 6
    endloop
  endfacet
  facet normal -1 0 0
    outer loop
      vertex 0 8.75 3
      vertex 0 13.5 0
      vertex 0 4.75 3
    endloop
  endfacet
  facet normal 0 -1 0
    outer loop
      vertex 0 0 6
      vertex 0 0 0
      vertex 31 0 0
    endloop
  endfacet
  facet normal 0 -1 0
    outer loop
      vertex 31 0 6
      vertex 0 0 6
      vertex 31 0 0
    endloop
  endfacet
  facet normal 0 0 -1
    outer loop
      vertex 0 0 0
      vertex 0 13.5 0
      vertex 31 0 0
    endloop
  endfacet
  facet normal 0 0 -1
    outer loop
      vertex 31 0 0
      vertex 0 13.5 0
      vertex 31 13.5 0
    endloop
  endfacet
  facet normal 0 1 0
    outer loop
      vertex 0 13.5 0
      vertex 0 13.5 6
      vertex 31 13.5 0
    endloop
  endfacet
  facet normal 0 1 0
    outer loop
      vertex 31 13.5 0
      vertex 0 13.5 6
      vertex 31 13.5 6
    endloop
  endfacet
  facet normal 0 0 1
    outer loop
      vertex 0 13.5 6
      vertex 0 8.75 6
      vertex 1 8.75 6
    endloop
  endfacet
  facet normal 0 0 1
    outer loop
      vertex 30 12.5 6
      vertex 0 13.5 6
      vertex 1 12.5 6
    endloop
  endfacet
  facet normal 0 0 1
    outer loop
      vertex 1 12.5 6
      vertex 0 13.5 6
      vertex 1 8.75 6
    endloop
  endfacet
  facet normal 0 0 1
    outer loop
      vertex 31 13.5 6
      vertex 0 13.5 6
      vertex 30 12.5 6
    endloop
  endfacet
  facet normal 0 0 1
    outer loop
      vertex 31 8.75 6
      vertex 30 12.5 6
      vertex 30 8.75 6
    endloop
  endfacet
  facet normal 0 0 1
    outer loop
      vertex 31 13.5 6
      vertex 30 12.5 6
      vertex 31 8.75 6
    endloop
  endfacet
  facet normal 0 -1 0
    outer loop
      vertex 1 8.75 3
      vertex 1 8.75 6
      vertex 0 8.75 6
    endloop
  endfacet
  facet normal 0 -1 0
    outer loop
      vertex 0 8.75 3
      vertex 1 8.75 3
      vertex 0 8.75 6
    endloop
  endfacet
  facet normal 0 0 1
    outer loop
      vertex 1 4.75 3
      vertex 1 8.75 3
      vertex 0 8.75 3
    endloop
  endfacet
  facet normal 0 0 1
    outer loop
      vertex 0 4.75 3
      vertex 1 4.75 3
      vertex 0 8.75 3
    endloop
  endfacet
  facet normal 0 1 0
    outer loop
      vertex 1 4.75 6
      vertex 1 4.75 3
      vertex 0 4.75 6
    endloop
  endfacet
  facet normal 0 1 0
    outer loop
      vertex 0 4.75 6
      vertex 1 4.75 3
      vertex 0 4.75 3
    endloop
  endfacet
  facet normal 0 0 1
    outer loop
      vertex 1 1 6
      vertex 0 0 6
      vertex 31 0 6
    endloop
  endfacet
  facet normal 0 0 1
    outer loop
      vertex 1 1 6
      vertex 1 4.75 6
      vertex 0 4.75 6
    endloop
  endfacet
  facet normal 0 0 1
    outer loop
      vertex 31 4.75 6
      vertex 30 4.75 6
      vertex 31 0 6
    endloop
  endfacet
  facet normal 0 0 1
    outer loop
      vertex 30 4.75 6
      vertex 30 1 6
      vertex 31 0 6
    endloop
  endfacet
  facet normal 0 0 1
    outer loop
      vertex 0 4.75 6
      vertex 0 0 6
      vertex 1 1 6
    endloop
  endfacet
  facet normal 0 0 1
    outer loop
      vertex 30 1 6
      vertex 1 1 6
      vertex 31 0 6
    endloop
  endfacet
  facet normal 1 0 0
    outer loop
      vertex 31 4.75 3
      vertex 31 0 0
      vertex 31 13.5 0
    endloop
  endfacet
  facet normal 1 0 0
    outer loop
      vertex 31 4.75 3
      vertex 31 4.75 6
      vertex 31 0 6
    endloop
  endfacet
  facet normal 1 0 0
    outer loop
      vertex 31 13.5 6
      vertex 31 8.75 6
      vertex 31 13.5 0
    endloop
  endfacet
  facet normal 1 0 0
    outer loop
      vertex 31 8.75 6
      vertex 31 8.75 3
      vertex 31 13.5 0
    endloop
  endfacet
  facet normal 1 0 0
    outer loop
      vertex 31 0 6
      vertex 31 0 0
      vertex 31 4.75 3
    endloop
  endfacet
  facet normal 1 0 0
    outer loop
      vertex 31 8.75 3
      vertex 31 4.75 3
      vertex 31 13.5 0
    endloop
  endfacet
  facet normal 0 -1 0
    outer loop
      vertex 31 8.75 3
      vertex 31 8.75 6
      vertex 30 8.75 6
    endloop
  endfacet
  facet normal 0 -1 0
    outer loop
      vertex 30 8.75 3
      vertex 31 8.75 3
      vertex 30 8.75 6
    endloop
  endfacet
  facet normal -1 0 0
    outer loop
      vertex 30 4.75 6
      vertex 30 4.75 3
      vertex 30 1 6
    endloop
  endfacet
  facet normal -1 0 0
    outer loop
      vertex 30 1 1
      vertex 30 4.75 3
      vertex 30 12.5 1
    endloop
  endfacet
  facet normal -1 0 0
    outer loop
      vertex 30 12.5 6
      vertex 30 8.75 3
      vertex 30 8.75 6
    endloop
  endfacet
  facet normal -1 0 0
    outer loop
      vertex 30 12.5 1
      vertex 30 8.75 3
      vertex 30 12.5 6
    endloop
  endfacet
  facet normal -1 0 0
    outer loop
      vertex 30 4.75 3
      vertex 30 8.75 3
      vertex 30 12.5 1
    endloop
  endfacet
  facet normal -1 0 0
    outer loop
      vertex 30 1 6
      vertex 30 4.75 3
      vertex 30 1 1
    endloop
  endfacet
  facet normal 0 -1 0
    outer loop
      vertex 30 12.5 1
      vertex 30 12.5 6
      vertex 1 12.5 6
    endloop
  endfacet
  facet normal 0 -1 0
    outer loop
      vertex 1 12.5 1
      vertex 30 12.5 1
      vertex 1 12.5 6
    endloop
  endfacet
  facet normal 1 0 0
    outer loop
      vertex 1 12.5 1
      vertex 1 12.5 6
      vertex 1 8.75 6
    endloop
  endfacet
  facet normal 1 0 0
    outer loop
      vertex 1 4.75 3
      vertex 1 12.5 1
      vertex 1 8.75 3
    endloop
  endfacet
  facet normal 1 0 0
    outer loop
      vertex 1 8.75 3
      vertex 1 12.5 1
      vertex 1 8.75 6
    endloop
  endfacet
  facet normal 1 0 0
    outer loop
      vertex 1 1 1
      vertex 1 12.5 1
      vertex 1 4.75 3
    endloop
  endfacet
  facet normal 1 0 0
    outer loop
      vertex 1 1 6
      vertex 1 4.75 3
      vertex 1 4.75 6
    endloop
  endfacet
  facet normal 1 0 0
    outer loop
      vertex 1 1 1
      vertex 1 4.75 3
      vertex 1 1 6
    endloop
  endfacet
  facet normal 0 1 0
    outer loop
      vertex 30 1 6
      vertex 30 1 1
      vertex 1 1 6
    endloop
  endfacet
  facet normal 0 1 0
    outer loop
      vertex 1 1 6
      vertex 30 1 1
      vertex 1 1 1
    endloop
  endfacet
  facet normal 0 1 0
    outer loop
      vertex 31 4.75 6
      vertex 31 4.75 3
      vertex 30 4.75 6
    endloop
  endfacet
  facet normal 0 1 0
    outer loop
      vertex 30 4.75 6
      vertex 31 4.75 3
      vertex 30 4.75 3
    endloop
  endfacet
  facet normal 0 0 1
    outer loop
      vertex 31 4.75 3
      vertex 31 8.75 3
      vertex 30 8.75 3
    endloop
  endfacet
  facet normal 0 0 1
    outer loop
      vertex 30 4.75 3
      vertex 31 4.75 3
      vertex 30 8.75 3
    endloop
  endfacet
  facet normal 0 0 1
    outer loop
      vertex 30 1 1
      vertex 30 12.5 1
      vertex 1 12.5 1
    endloop
  endfacet
  facet normal 0 0 1
    outer loop
      vertex 1 1 1
      vertex 30 1 1
      vertex 1 12.5 1
    endloop
  endfacet
endsolid OpenSCAD_Model
