solid OpenSCAD_Model
  facet normal -1 0 0
    outer loop
      vertex -2.5 0 -1
      vertex -2.5 0 1
      vertex -2.5 31 -1
    endloop
  endfacet
  facet normal -1 0 0
    outer loop
      vertex -2.5 31 -1
      vertex -2.5 0 1
      vertex -2.5 31 1
    endloop
  endfacet
  facet normal 0 -1 0
    outer loop
      vertex -2.5 0 1
      vertex -2.5 0 -1
      vertex 33.5 0 -1
    endloop
  endfacet
  facet normal 0 -1 0
    outer loop
      vertex 0 0 1
      vertex -2.5 0 1
      vertex 33.5 0 -1
    endloop
  endfacet
  facet normal 0 -1 0
    outer loop
      vertex 31 0 1
      vertex 0 0 1
      vertex 33.5 0 -1
    endloop
  endfacet
  facet normal 0 -1 0
    outer loop
      vertex 33.5 0 1
      vertex 31 0 1
      vertex 33.5 0 -1
    endloop
  endfacet
  facet normal 0 -1 0
    outer loop
      vertex 0 0 7.5
      vertex 13.5 0 5
      vertex 13.5 0 7.5
    endloop
  endfacet
  facet normal 0 -1 0
    outer loop
      vertex 31 0 7.5
      vertex 17.5 0 7.5
      vertex 17.5 0 5
    endloop
  endfacet
  facet normal 0 -1 0
    outer loop
      vertex 31 0 7.5
      vertex 0 0 1
      vertex 31 0 1
    endloop
  endfacet
  facet normal 0 -1 0
    outer loop
      vertex 17.5 0 5
      vertex 0 0 1
      vertex 31 0 7.5
    endloop
  endfacet
  facet normal 0 -1 0
    outer loop
      vertex 13.5 0 5
      vertex 0 0 1
      vertex 17.5 0 5
    endloop
  endfacet
  facet normal 0 -1 0
    outer loop
      vertex 0 0 7.5
      vertex 0 0 1
      vertex 13.5 0 5
    endloop
  endfacet
  facet normal 0 0 -1
    outer loop
      vertex -2.5 0 -1
      vertex -2.5 31 -1
      vertex 33.5 0 -1
    endloop
  endfacet
  facet normal 0 0 -1
    outer loop
      vertex 33.5 0 -1
      vertex -2.5 31 -1
      vertex 33.5 31 -1
    endloop
  endfacet
  facet normal 0 1 0
    outer loop
      vertex -2.5 31 -1
      vertex -2.5 31 1
      vertex 33.5 31 -1
    endloop
  endfacet
  facet normal 0 1 0
    outer loop
      vertex 33.5 31 -1
      vertex -2.5 31 1
      vertex 0 31 1
    endloop
  endfacet
  facet normal 0 1 0
    outer loop
      vertex 33.5 31 -1
      vertex 0 31 1
      vertex 0 31 7.5
    endloop
  endfacet
  facet normal 0 1 0
    outer loop
      vertex 13.5 31 5
      vertex 0 31 7.5
      vertex 13.5 31 7.5
    endloop
  endfacet
  facet normal 0 1 0
    outer loop
      vertex 33.5 31 -1
      vertex 0 31 7.5
      vertex 13.5 31 5
    endloop
  endfacet
  facet normal 0 1 0
    outer loop
      vertex 33.5 31 -1
      vertex 13.5 31 5
      vertex 17.5 31 5
    endloop
  endfacet
  facet normal 0 1 0
    outer loop
      vertex 33.5 31 1
      vertex 33.5 31 -1
      vertex 31 31 1
    endloop
  endfacet
  facet normal 0 1 0
    outer loop
      vertex 31 31 1
      vertex 17.5 31 7.5
      vertex 31 31 7.5
    endloop
  endfacet
  facet normal 0 1 0
    outer loop
      vertex 33.5 31 -1
      vertex 17.5 31 7.5
      vertex 31 31 1
    endloop
  endfacet
  facet normal 0 1 0
    outer loop
      vertex 17.5 31 7.5
      vertex 33.5 31 -1
      vertex 17.5 31 5
    endloop
  endfacet
  facet normal 0 0 1
    outer loop
      vertex 0 0 1
      vertex 0 31 1
      vertex -2.5 31 1
    endloop
  endfacet
  facet normal 0 0 1
    outer loop
      vertex -2.5 0 1
      vertex 0 0 1
      vertex -2.5 31 1
    endloop
  endfacet
  facet normal -1 0 0
    outer loop
      vertex 0 0 1
      vertex 0 0 7.5
      vertex 0 31 1
    endloop
  endfacet
  facet normal -1 0 0
    outer loop
      vertex 0 13.5 5
      vertex 0 0 7.5
      vertex 0 13.5 7.5
    endloop
  endfacet
  facet normal -1 0 0
    outer loop
      vertex 0 31 1
      vertex 0 0 7.5
      vertex 0 13.5 5
    endloop
  endfacet
  facet normal -1 0 0
    outer loop
      vertex 0 31 1
      vertex 0 13.5 5
      vertex 0 17.5 5
    endloop
  endfacet
  facet normal -1 0 0
    outer loop
      vertex 0 31 1
      vertex 0 17.5 7.5
      vertex 0 31 7.5
    endloop
  endfacet
  facet normal -1 0 0
    outer loop
      vertex 0 17.5 7.5
      vertex 0 31 1
      vertex 0 17.5 5
    endloop
  endfacet
  facet normal 0 0 1
    outer loop
      vertex 1 1 7.5
      vertex 0 0 7.5
      vertex 13.5 0 7.5
    endloop
  endfacet
  facet normal 0 0 1
    outer loop
      vertex 1 1 7.5
      vertex 1 13.5 7.5
      vertex 0 13.5 7.5
    endloop
  endfacet
  facet normal 0 0 1
    outer loop
      vertex 0 13.5 7.5
      vertex 0 0 7.5
      vertex 1 1 7.5
    endloop
  endfacet
  facet normal 0 0 1
    outer loop
      vertex 13.5 1 7.5
      vertex 1 1 7.5
      vertex 13.5 0 7.5
    endloop
  endfacet
  facet normal 1 -2.22045e-016 0
    outer loop
      vertex 13.5 1 5
      vertex 13.5 1 7.5
      vertex 13.5 0 7.5
    endloop
  endfacet
  facet normal 1 -2.22045e-016 0
    outer loop
      vertex 13.5 0 5
      vertex 13.5 1 5
      vertex 13.5 0 7.5
    endloop
  endfacet
  facet normal 0 0 1
    outer loop
      vertex 17.5 0 5
      vertex 17.5 1 5
      vertex 13.5 1 5
    endloop
  endfacet
  facet normal 0 0 1
    outer loop
      vertex 13.5 0 5
      vertex 17.5 0 5
      vertex 13.5 1 5
    endloop
  endfacet
  facet normal -1 2.22045e-016 0
    outer loop
      vertex 17.5 1 7.5
      vertex 17.5 1 5
      vertex 17.5 0 7.5
    endloop
  endfacet
  facet normal -1 2.22045e-016 0
    outer loop
      vertex 17.5 0 7.5
      vertex 17.5 1 5
      vertex 17.5 0 5
    endloop
  endfacet
  facet normal 0 0 1
    outer loop
      vertex 17.5 1 7.5
      vertex 17.5 0 7.5
      vertex 31 0 7.5
    endloop
  endfacet
  facet normal 0 0 1
    outer loop
      vertex 30 1 7.5
      vertex 17.5 1 7.5
      vertex 31 0 7.5
    endloop
  endfacet
  facet normal 0 0 1
    outer loop
      vertex 31 13.5 7.5
      vertex 30 1 7.5
      vertex 31 0 7.5
    endloop
  endfacet
  facet normal 0 0 1
    outer loop
      vertex 30 13.5 7.5
      vertex 30 1 7.5
      vertex 31 13.5 7.5
    endloop
  endfacet
  facet normal 1 0 0
    outer loop
      vertex 31 0 7.5
      vertex 31 0 1
      vertex 31 31 1
    endloop
  endfacet
  facet normal 1 0 0
    outer loop
      vertex 31 13.5 5
      vertex 31 0 7.5
      vertex 31 31 1
    endloop
  endfacet
  facet normal 1 0 0
    outer loop
      vertex 31 31 7.5
      vertex 31 17.5 7.5
      vertex 31 31 1
    endloop
  endfacet
  facet normal 1 0 0
    outer loop
      vertex 31 17.5 7.5
      vertex 31 17.5 5
      vertex 31 31 1
    endloop
  endfacet
  facet normal 1 0 0
    outer loop
      vertex 31 17.5 5
      vertex 31 13.5 5
      vertex 31 31 1
    endloop
  endfacet
  facet normal 1 0 0
    outer loop
      vertex 31 13.5 5
      vertex 31 13.5 7.5
      vertex 31 0 7.5
    endloop
  endfacet
  facet normal 0 0 1
    outer loop
      vertex 33.5 0 1
      vertex 33.5 31 1
      vertex 31 31 1
    endloop
  endfacet
  facet normal 0 0 1
    outer loop
      vertex 31 0 1
      vertex 33.5 0 1
      vertex 31 31 1
    endloop
  endfacet
  facet normal 1 0 0
    outer loop
      vertex 33.5 0 1
      vertex 33.5 0 -1
      vertex 33.5 31 -1
    endloop
  endfacet
  facet normal 1 0 0
    outer loop
      vertex 33.5 31 1
      vertex 33.5 0 1
      vertex 33.5 31 -1
    endloop
  endfacet
  facet normal 0 0 1
    outer loop
      vertex 17.5 31 7.5
      vertex 17.5 30 7.5
      vertex 30 30 7.5
    endloop
  endfacet
  facet normal 0 0 1
    outer loop
      vertex 31 31 7.5
      vertex 17.5 31 7.5
      vertex 30 30 7.5
    endloop
  endfacet
  facet normal 0 0 1
    outer loop
      vertex 30 17.5 7.5
      vertex 31 17.5 7.5
      vertex 30 30 7.5
    endloop
  endfacet
  facet normal 0 0 1
    outer loop
      vertex 31 17.5 7.5
      vertex 31 31 7.5
      vertex 30 30 7.5
    endloop
  endfacet
  facet normal -1 2.22045e-016 0
    outer loop
      vertex 17.5 31 7.5
      vertex 17.5 31 5
      vertex 17.5 30 7.5
    endloop
  endfacet
  facet normal -1 2.22045e-016 0
    outer loop
      vertex 17.5 30 7.5
      vertex 17.5 31 5
      vertex 17.5 30 5
    endloop
  endfacet
  facet normal 0 0 1
    outer loop
      vertex 17.5 30 5
      vertex 17.5 31 5
      vertex 13.5 31 5
    endloop
  endfacet
  facet normal 0 0 1
    outer loop
      vertex 13.5 30 5
      vertex 17.5 30 5
      vertex 13.5 31 5
    endloop
  endfacet
  facet normal 1 -2.22045e-016 0
    outer loop
      vertex 13.5 31 5
      vertex 13.5 31 7.5
      vertex 13.5 30 7.5
    endloop
  endfacet
  facet normal 1 -2.22045e-016 0
    outer loop
      vertex 13.5 30 5
      vertex 13.5 31 5
      vertex 13.5 30 7.5
    endloop
  endfacet
  facet normal 0 0 1
    outer loop
      vertex 0 31 7.5
      vertex 0 17.5 7.5
      vertex 1 17.5 7.5
    endloop
  endfacet
  facet normal 0 0 1
    outer loop
      vertex 13.5 30 7.5
      vertex 0 31 7.5
      vertex 1 30 7.5
    endloop
  endfacet
  facet normal 0 0 1
    outer loop
      vertex 1 30 7.5
      vertex 0 31 7.5
      vertex 1 17.5 7.5
    endloop
  endfacet
  facet normal 0 0 1
    outer loop
      vertex 13.5 31 7.5
      vertex 0 31 7.5
      vertex 13.5 30 7.5
    endloop
  endfacet
  facet normal 0 -1 0
    outer loop
      vertex 1 17.5 5
      vertex 1 17.5 7.5
      vertex 0 17.5 7.5
    endloop
  endfacet
  facet normal 0 -1 0
    outer loop
      vertex 0 17.5 5
      vertex 1 17.5 5
      vertex 0 17.5 7.5
    endloop
  endfacet
  facet normal 0 0 1
    outer loop
      vertex 1 13.5 5
      vertex 1 17.5 5
      vertex 0 17.5 5
    endloop
  endfacet
  facet normal 0 0 1
    outer loop
      vertex 0 13.5 5
      vertex 1 13.5 5
      vertex 0 17.5 5
    endloop
  endfacet
  facet normal 0 1 0
    outer loop
      vertex 1 13.5 7.5
      vertex 1 13.5 5
      vertex 0 13.5 7.5
    endloop
  endfacet
  facet normal 0 1 0
    outer loop
      vertex 0 13.5 7.5
      vertex 1 13.5 5
      vertex 0 13.5 5
    endloop
  endfacet
  facet normal 1 0 0
    outer loop
      vertex 1 30 1
      vertex 1 30 7.5
      vertex 1 17.5 7.5
    endloop
  endfacet
  facet normal 1 0 0
    outer loop
      vertex 1 13.5 5
      vertex 1 30 1
      vertex 1 17.5 5
    endloop
  endfacet
  facet normal 1 0 0
    outer loop
      vertex 1 17.5 5
      vertex 1 30 1
      vertex 1 17.5 7.5
    endloop
  endfacet
  facet normal 1 0 0
    outer loop
      vertex 1 1 7.5
      vertex 1 30 1
      vertex 1 13.5 5
    endloop
  endfacet
  facet normal 1 0 0
    outer loop
      vertex 1 1 7.5
      vertex 1 13.5 5
      vertex 1 13.5 7.5
    endloop
  endfacet
  facet normal 1 0 0
    outer loop
      vertex 1 1 1
      vertex 1 30 1
      vertex 1 1 7.5
    endloop
  endfacet
  facet normal 0 1 0
    outer loop
      vertex 13.5 1 7.5
      vertex 13.5 1 5
      vertex 1 1 7.5
    endloop
  endfacet
  facet normal 0 1 0
    outer loop
      vertex 1 1 7.5
      vertex 13.5 1 5
      vertex 30 1 1
    endloop
  endfacet
  facet normal 0 1 0
    outer loop
      vertex 30 1 7.5
      vertex 17.5 1 5
      vertex 17.5 1 7.5
    endloop
  endfacet
  facet normal 0 1 0
    outer loop
      vertex 30 1 1
      vertex 17.5 1 5
      vertex 30 1 7.5
    endloop
  endfacet
  facet normal 0 1 0
    outer loop
      vertex 13.5 1 5
      vertex 17.5 1 5
      vertex 30 1 1
    endloop
  endfacet
  facet normal 0 1 0
    outer loop
      vertex 1 1 7.5
      vertex 30 1 1
      vertex 1 1 1
    endloop
  endfacet
  facet normal -1 0 0
    outer loop
      vertex 30 13.5 7.5
      vertex 30 13.5 5
      vertex 30 1 7.5
    endloop
  endfacet
  facet normal -1 0 0
    outer loop
      vertex 30 1 7.5
      vertex 30 13.5 5
      vertex 30 30 1
    endloop
  endfacet
  facet normal -1 0 0
    outer loop
      vertex 30 30 7.5
      vertex 30 17.5 5
      vertex 30 17.5 7.5
    endloop
  endfacet
  facet normal -1 0 0
    outer loop
      vertex 30 30 1
      vertex 30 17.5 5
      vertex 30 30 7.5
    endloop
  endfacet
  facet normal -1 0 0
    outer loop
      vertex 30 13.5 5
      vertex 30 17.5 5
      vertex 30 30 1
    endloop
  endfacet
  facet normal -1 0 0
    outer loop
      vertex 30 1 7.5
      vertex 30 30 1
      vertex 30 1 1
    endloop
  endfacet
  facet normal 0 1 0
    outer loop
      vertex 31 13.5 7.5
      vertex 31 13.5 5
      vertex 30 13.5 7.5
    endloop
  endfacet
  facet normal 0 1 0
    outer loop
      vertex 30 13.5 7.5
      vertex 31 13.5 5
      vertex 30 13.5 5
    endloop
  endfacet
  facet normal 0 0 1
    outer loop
      vertex 31 13.5 5
      vertex 31 17.5 5
      vertex 30 17.5 5
    endloop
  endfacet
  facet normal 0 0 1
    outer loop
      vertex 30 13.5 5
      vertex 31 13.5 5
      vertex 30 17.5 5
    endloop
  endfacet
  facet normal 0 -1 0
    outer loop
      vertex 31 17.5 5
      vertex 31 17.5 7.5
      vertex 30 17.5 7.5
    endloop
  endfacet
  facet normal 0 -1 0
    outer loop
      vertex 30 17.5 5
      vertex 31 17.5 5
      vertex 30 17.5 7.5
    endloop
  endfacet
  facet normal 0 -1 0
    outer loop
      vertex 30 30 1
      vertex 30 30 7.5
      vertex 17.5 30 7.5
    endloop
  endfacet
  facet normal 0 -1 0
    outer loop
      vertex 13.5 30 5
      vertex 30 30 1
      vertex 17.5 30 5
    endloop
  endfacet
  facet normal 0 -1 0
    outer loop
      vertex 17.5 30 5
      vertex 30 30 1
      vertex 17.5 30 7.5
    endloop
  endfacet
  facet normal 0 -1 0
    outer loop
      vertex 1 30 7.5
      vertex 30 30 1
      vertex 13.5 30 5
    endloop
  endfacet
  facet normal 0 -1 0
    outer loop
      vertex 1 30 7.5
      vertex 13.5 30 5
      vertex 13.5 30 7.5
    endloop
  endfacet
  facet normal 0 -1 0
    outer loop
      vertex 1 30 1
      vertex 30 30 1
      vertex 1 30 7.5
    endloop
  endfacet
  facet normal 0 0 1
    outer loop
      vertex 30 1 1
      vertex 30 30 1
      vertex 1 30 1
    endloop
  endfacet
  facet normal 0 0 1
    outer loop
      vertex 1 1 1
      vertex 30 1 1
      vertex 1 30 1
    endloop
  endfacet
endsolid OpenSCAD_Model
