solid OpenSCAD_Model
  facet normal -1 0 0
    outer loop
      vertex 0 0 0
      vertex 0 0 4
      vertex 0 33 0
    endloop
  endfacet
  facet normal -1 0 0
    outer loop
      vertex 0 14.5 3
      vertex 0 0 4
      vertex 0 14.5 4
    endloop
  endfacet
  facet normal -1 0 0
    outer loop
      vertex 0 33 0
      vertex 0 0 4
      vertex 0 14.5 3
    endloop
  endfacet
  facet normal -1 0 0
    outer loop
      vertex 0 33 0
      vertex 0 14.5 3
      vertex 0 18.5 3
    endloop
  endfacet
  facet normal -1 0 0
    outer loop
      vertex 0 33 0
      vertex 0 18.5 4
      vertex 0 33 4
    endloop
  endfacet
  facet normal -1 0 0
    outer loop
      vertex 0 18.5 4
      vertex 0 33 0
      vertex 0 18.5 3
    endloop
  endfacet
  facet normal 0 -1 0
    outer loop
      vertex 0 0 4
      vertex 0 0 0
      vertex 33 0 0
    endloop
  endfacet
  facet normal 0 -1 0
    outer loop
      vertex 14.5 0 3
      vertex 0 0 4
      vertex 33 0 0
    endloop
  endfacet
  facet normal 0 -1 0
    outer loop
      vertex 33 0 4
      vertex 18.5 0 4
      vertex 33 0 0
    endloop
  endfacet
  facet normal 0 -1 0
    outer loop
      vertex 18.5 0 4
      vertex 18.5 0 3
      vertex 33 0 0
    endloop
  endfacet
  facet normal 0 -1 0
    outer loop
      vertex 18.5 0 3
      vertex 14.5 0 3
      vertex 33 0 0
    endloop
  endfacet
  facet normal 0 -1 0
    outer loop
      vertex 14.5 0 3
      vertex 14.5 0 4
      vertex 0 0 4
    endloop
  endfacet
  facet normal 0 0 -1
    outer loop
      vertex 0 0 0
      vertex 0 33 0
      vertex 33 0 0
    endloop
  endfacet
  facet normal 0 0 -1
    outer loop
      vertex 33 0 0
      vertex 0 33 0
      vertex 33 33 0
    endloop
  endfacet
  facet normal 0 1 0
    outer loop
      vertex 0 33 0
      vertex 0 33 4
      vertex 33 33 0
    endloop
  endfacet
  facet normal 0 1 0
    outer loop
      vertex 14.5 33 3
      vertex 0 33 4
      vertex 14.5 33 4
    endloop
  endfacet
  facet normal 0 1 0
    outer loop
      vertex 33 33 0
      vertex 0 33 4
      vertex 14.5 33 3
    endloop
  endfacet
  facet normal 0 1 0
    outer loop
      vertex 33 33 0
      vertex 14.5 33 3
      vertex 18.5 33 3
    endloop
  endfacet
  facet normal 0 1 0
    outer loop
      vertex 33 33 0
      vertex 18.5 33 4
      vertex 33 33 4
    endloop
  endfacet
  facet normal 0 1 0
    outer loop
      vertex 18.5 33 4
      vertex 33 33 0
      vertex 18.5 33 3
    endloop
  endfacet
  facet normal 0 0 1
    outer loop
      vertex 0 33 4
      vertex 0 18.5 4
      vertex 1 18.5 4
    endloop
  endfacet
  facet normal 0 0 1
    outer loop
      vertex 14.5 32 4
      vertex 0 33 4
      vertex 1 32 4
    endloop
  endfacet
  facet normal 0 0 1
    outer loop
      vertex 1 32 4
      vertex 0 33 4
      vertex 1 18.5 4
    endloop
  endfacet
  facet normal 0 0 1
    outer loop
      vertex 14.5 33 4
      vertex 0 33 4
      vertex 14.5 32 4
    endloop
  endfacet
  facet normal 0 -1 0
    outer loop
      vertex 1 18.5 3
      vertex 1 18.5 4
      vertex 0 18.5 4
    endloop
  endfacet
  facet normal 0 -1 0
    outer loop
      vertex 0 18.5 3
      vertex 1 18.5 3
      vertex 0 18.5 4
    endloop
  endfacet
  facet normal 0 0 1
    outer loop
      vertex 1 14.5 3
      vertex 1 18.5 3
      vertex 0 18.5 3
    endloop
  endfacet
  facet normal 0 0 1
    outer loop
      vertex 0 14.5 3
      vertex 1 14.5 3
      vertex 0 18.5 3
    endloop
  endfacet
  facet normal 0 1 0
    outer loop
      vertex 1 14.5 4
      vertex 1 14.5 3
      vertex 0 14.5 4
    endloop
  endfacet
  facet normal 0 1 0
    outer loop
      vertex 0 14.5 4
      vertex 1 14.5 3
      vertex 0 14.5 3
    endloop
  endfacet
  facet normal 0 0 1
    outer loop
      vertex 1 1 4
      vertex 0 0 4
      vertex 14.5 0 4
    endloop
  endfacet
  facet normal 0 0 1
    outer loop
      vertex 1 1 4
      vertex 1 14.5 4
      vertex 0 14.5 4
    endloop
  endfacet
  facet normal 0 0 1
    outer loop
      vertex 0 14.5 4
      vertex 0 0 4
      vertex 1 1 4
    endloop
  endfacet
  facet normal 0 0 1
    outer loop
      vertex 14.5 1 4
      vertex 1 1 4
      vertex 14.5 0 4
    endloop
  endfacet
  facet normal 1 0 0
    outer loop
      vertex 14.5 1 3
      vertex 14.5 1 4
      vertex 14.5 0 4
    endloop
  endfacet
  facet normal 1 0 0
    outer loop
      vertex 14.5 0 3
      vertex 14.5 1 3
      vertex 14.5 0 4
    endloop
  endfacet
  facet normal 0 0 1
    outer loop
      vertex 18.5 0 3
      vertex 18.5 1 3
      vertex 14.5 1 3
    endloop
  endfacet
  facet normal 0 0 1
    outer loop
      vertex 14.5 0 3
      vertex 18.5 0 3
      vertex 14.5 1 3
    endloop
  endfacet
  facet normal -1 0 0
    outer loop
      vertex 18.5 1 4
      vertex 18.5 1 3
      vertex 18.5 0 4
    endloop
  endfacet
  facet normal -1 0 0
    outer loop
      vertex 18.5 0 4
      vertex 18.5 1 3
      vertex 18.5 0 3
    endloop
  endfacet
  facet normal 0 0 1
    outer loop
      vertex 18.5 1 4
      vertex 18.5 0 4
      vertex 33 0 4
    endloop
  endfacet
  facet normal 0 0 1
    outer loop
      vertex 32 1 4
      vertex 18.5 1 4
      vertex 33 0 4
    endloop
  endfacet
  facet normal 0 0 1
    outer loop
      vertex 33 14.5 4
      vertex 32 1 4
      vertex 33 0 4
    endloop
  endfacet
  facet normal 0 0 1
    outer loop
      vertex 32 14.5 4
      vertex 32 1 4
      vertex 33 14.5 4
    endloop
  endfacet
  facet normal 1 0 0
    outer loop
      vertex 33 0 4
      vertex 33 0 0
      vertex 33 33 0
    endloop
  endfacet
  facet normal 1 0 0
    outer loop
      vertex 33 14.5 3
      vertex 33 0 4
      vertex 33 33 0
    endloop
  endfacet
  facet normal 1 0 0
    outer loop
      vertex 33 33 4
      vertex 33 18.5 4
      vertex 33 33 0
    endloop
  endfacet
  facet normal 1 0 0
    outer loop
      vertex 33 18.5 4
      vertex 33 18.5 3
      vertex 33 33 0
    endloop
  endfacet
  facet normal 1 0 0
    outer loop
      vertex 33 18.5 3
      vertex 33 14.5 3
      vertex 33 33 0
    endloop
  endfacet
  facet normal 1 0 0
    outer loop
      vertex 33 14.5 3
      vertex 33 14.5 4
      vertex 33 0 4
    endloop
  endfacet
  facet normal 0 0 1
    outer loop
      vertex 18.5 33 4
      vertex 18.5 32 4
      vertex 32 32 4
    endloop
  endfacet
  facet normal 0 0 1
    outer loop
      vertex 33 33 4
      vertex 18.5 33 4
      vertex 32 32 4
    endloop
  endfacet
  facet normal 0 0 1
    outer loop
      vertex 32 18.5 4
      vertex 33 18.5 4
      vertex 32 32 4
    endloop
  endfacet
  facet normal 0 0 1
    outer loop
      vertex 33 18.5 4
      vertex 33 33 4
      vertex 32 32 4
    endloop
  endfacet
  facet normal -1 0 0
    outer loop
      vertex 18.5 33 4
      vertex 18.5 33 3
      vertex 18.5 32 4
    endloop
  endfacet
  facet normal -1 0 0
    outer loop
      vertex 18.5 32 4
      vertex 18.5 33 3
      vertex 18.5 32 3
    endloop
  endfacet
  facet normal 0 0 1
    outer loop
      vertex 18.5 32 3
      vertex 18.5 33 3
      vertex 14.5 33 3
    endloop
  endfacet
  facet normal 0 0 1
    outer loop
      vertex 14.5 32 3
      vertex 18.5 32 3
      vertex 14.5 33 3
    endloop
  endfacet
  facet normal 1 0 0
    outer loop
      vertex 14.5 33 3
      vertex 14.5 33 4
      vertex 14.5 32 4
    endloop
  endfacet
  facet normal 1 0 0
    outer loop
      vertex 14.5 32 3
      vertex 14.5 33 3
      vertex 14.5 32 4
    endloop
  endfacet
  facet normal 0 -1 0
    outer loop
      vertex 32 32 1
      vertex 32 32 4
      vertex 18.5 32 4
    endloop
  endfacet
  facet normal 0 -1 0
    outer loop
      vertex 14.5 32 3
      vertex 32 32 1
      vertex 18.5 32 3
    endloop
  endfacet
  facet normal 0 -1 0
    outer loop
      vertex 18.5 32 3
      vertex 32 32 1
      vertex 18.5 32 4
    endloop
  endfacet
  facet normal 0 -1 0
    outer loop
      vertex 1 32 4
      vertex 32 32 1
      vertex 14.5 32 3
    endloop
  endfacet
  facet normal 0 -1 0
    outer loop
      vertex 1 32 4
      vertex 14.5 32 3
      vertex 14.5 32 4
    endloop
  endfacet
  facet normal 0 -1 0
    outer loop
      vertex 1 32 1
      vertex 32 32 1
      vertex 1 32 4
    endloop
  endfacet
  facet normal 1 0 0
    outer loop
      vertex 1 32 1
      vertex 1 32 4
      vertex 1 18.5 4
    endloop
  endfacet
  facet normal 1 0 0
    outer loop
      vertex 1 14.5 3
      vertex 1 32 1
      vertex 1 18.5 3
    endloop
  endfacet
  facet normal 1 0 0
    outer loop
      vertex 1 18.5 3
      vertex 1 32 1
      vertex 1 18.5 4
    endloop
  endfacet
  facet normal 1 0 0
    outer loop
      vertex 1 1 4
      vertex 1 32 1
      vertex 1 14.5 3
    endloop
  endfacet
  facet normal 1 0 0
    outer loop
      vertex 1 1 4
      vertex 1 14.5 3
      vertex 1 14.5 4
    endloop
  endfacet
  facet normal 1 0 0
    outer loop
      vertex 1 1 1
      vertex 1 32 1
      vertex 1 1 4
    endloop
  endfacet
  facet normal 0 1 0
    outer loop
      vertex 14.5 1 4
      vertex 14.5 1 3
      vertex 1 1 4
    endloop
  endfacet
  facet normal 0 1 0
    outer loop
      vertex 1 1 4
      vertex 14.5 1 3
      vertex 32 1 1
    endloop
  endfacet
  facet normal 0 1 0
    outer loop
      vertex 32 1 4
      vertex 18.5 1 3
      vertex 18.5 1 4
    endloop
  endfacet
  facet normal 0 1 0
    outer loop
      vertex 32 1 1
      vertex 18.5 1 3
      vertex 32 1 4
    endloop
  endfacet
  facet normal 0 1 0
    outer loop
      vertex 14.5 1 3
      vertex 18.5 1 3
      vertex 32 1 1
    endloop
  endfacet
  facet normal 0 1 0
    outer loop
      vertex 1 1 4
      vertex 32 1 1
      vertex 1 1 1
    endloop
  endfacet
  facet normal -1 0 0
    outer loop
      vertex 32 14.5 4
      vertex 32 14.5 3
      vertex 32 1 4
    endloop
  endfacet
  facet normal -1 0 0
    outer loop
      vertex 32 1 4
      vertex 32 14.5 3
      vertex 32 32 1
    endloop
  endfacet
  facet normal -1 0 0
    outer loop
      vertex 32 32 4
      vertex 32 18.5 3
      vertex 32 18.5 4
    endloop
  endfacet
  facet normal -1 0 0
    outer loop
      vertex 32 32 1
      vertex 32 18.5 3
      vertex 32 32 4
    endloop
  endfacet
  facet normal -1 0 0
    outer loop
      vertex 32 14.5 3
      vertex 32 18.5 3
      vertex 32 32 1
    endloop
  endfacet
  facet normal -1 0 0
    outer loop
      vertex 32 1 4
      vertex 32 32 1
      vertex 32 1 1
    endloop
  endfacet
  facet normal 0 1 0
    outer loop
      vertex 33 14.5 4
      vertex 33 14.5 3
      vertex 32 14.5 4
    endloop
  endfacet
  facet normal 0 1 0
    outer loop
      vertex 32 14.5 4
      vertex 33 14.5 3
      vertex 32 14.5 3
    endloop
  endfacet
  facet normal 0 0 1
    outer loop
      vertex 33 14.5 3
      vertex 33 18.5 3
      vertex 32 18.5 3
    endloop
  endfacet
  facet normal 0 0 1
    outer loop
      vertex 32 14.5 3
      vertex 33 14.5 3
      vertex 32 18.5 3
    endloop
  endfacet
  facet normal 0 -1 0
    outer loop
      vertex 33 18.5 3
      vertex 33 18.5 4
      vertex 32 18.5 4
    endloop
  endfacet
  facet normal 0 -1 0
    outer loop
      vertex 32 18.5 3
      vertex 33 18.5 3
      vertex 32 18.5 4
    endloop
  endfacet
  facet normal 0 0 1
    outer loop
      vertex 32 1 1
      vertex 32 32 1
      vertex 1 32 1
    endloop
  endfacet
  facet normal 0 0 1
    outer loop
      vertex 1 1 1
      vertex 32 1 1
      vertex 1 32 1
    endloop
  endfacet
endsolid OpenSCAD_Model
