solid OpenSCAD_Model
  facet normal -1 0 0
    outer loop
      vertex 0 7.25 1.5
      vertex 0 8 0
      vertex 0 1 1.5
    endloop
  endfacet
  facet normal -1 0 0
    outer loop
      vertex 0 0 0
      vertex 0 0 4
      vertex 0 1 1.5
    endloop
  endfacet
  facet normal -1 0 0
    outer loop
      vertex 0 0 0
      vertex 0 1 1.5
      vertex 0 8 0
    endloop
  endfacet
  facet normal -1 0 0
    outer loop
      vertex 0 8 0
      vertex 0 7.25 1.5
      vertex 0 7.25 4
    endloop
  endfacet
  facet normal -1 0 0
    outer loop
      vertex 0 8 0
      vertex 0 7.25 4
      vertex 0 8 4
    endloop
  endfacet
  facet normal -1 0 0
    outer loop
      vertex 0 1 1.5
      vertex 0 0 4
      vertex 0 1 4
    endloop
  endfacet
  facet normal 0 -1 0
    outer loop
      vertex 0 0 4
      vertex 0 0 0
      vertex 5.5 0 0
    endloop
  endfacet
  facet normal 0 -1 0
    outer loop
      vertex 8 0 2
      vertex 0 0 4
      vertex 5.5 0 2
    endloop
  endfacet
  facet normal 0 -1 0
    outer loop
      vertex 5.5 0 2
      vertex 0 0 4
      vertex 5.5 0 0
    endloop
  endfacet
  facet normal 0 -1 0
    outer loop
      vertex 8 0 4
      vertex 0 0 4
      vertex 8 0 2
    endloop
  endfacet
  facet normal 0 0 -1
    outer loop
      vertex 0 0 0
      vertex 0 8 0
      vertex 5.5 0 0
    endloop
  endfacet
  facet normal 0 0 -1
    outer loop
      vertex 5.5 0 0
      vertex 0 8 0
      vertex 5.5 8 0
    endloop
  endfacet
  facet normal 0 1 0
    outer loop
      vertex 0 8 0
      vertex 0 8 4
      vertex 5.5 8 0
    endloop
  endfacet
  facet normal 0 1 0
    outer loop
      vertex 5.5 8 2
      vertex 0 8 4
      vertex 8 8 4
    endloop
  endfacet
  facet normal 0 1 0
    outer loop
      vertex 5.5 8 0
      vertex 0 8 4
      vertex 5.5 8 2
    endloop
  endfacet
  facet normal 0 1 0
    outer loop
      vertex 5.5 8 2
      vertex 8 8 4
      vertex 8 8 2
    endloop
  endfacet
  facet normal 0 0 1
    outer loop
      vertex 0 1 4
      vertex 0 0 4
      vertex 8 0 4
    endloop
  endfacet
  facet normal 0 0 1
    outer loop
      vertex 15 -2.5 4
      vertex 9 -2.5 4
      vertex 15 -3.75 4
    endloop
  endfacet
  facet normal 0 0 1
    outer loop
      vertex 8 -8 4
      vertex 8.75 -8 4
      vertex 8 0 4
    endloop
  endfacet
  facet normal 0 0 1
    outer loop
      vertex 8.75 -8 4
      vertex 8.75 -3.75 4
      vertex 8 0 4
    endloop
  endfacet
  facet normal 0 0 1
    outer loop
      vertex 15 -8 4
      vertex 16 -8 4
      vertex 15 -3.75 4
    endloop
  endfacet
  facet normal 0 0 1
    outer loop
      vertex 16 -8 4
      vertex 16 0 4
      vertex 15 -3.75 4
    endloop
  endfacet
  facet normal 0 0 1
    outer loop
      vertex 8 0 4
      vertex 8 1 4
      vertex 5.5 1 4
    endloop
  endfacet
  facet normal 0 0 1
    outer loop
      vertex 24 0 4
      vertex 19.75 1 4
      vertex 18.5 1 4
    endloop
  endfacet
  facet normal 0 0 1
    outer loop
      vertex 24 0 4
      vertex 24 1 4
      vertex 19.75 1 4
    endloop
  endfacet
  facet normal 0 0 1
    outer loop
      vertex 15 7 4
      vertex 19.75 7.25 4
      vertex 16 8 4
    endloop
  endfacet
  facet normal 0 0 1
    outer loop
      vertex 19.75 7.25 4
      vertex 24 7.25 4
      vertex 24 8 4
    endloop
  endfacet
  facet normal 0 0 1
    outer loop
      vertex 15 11.75 4
      vertex 16 8 4
      vertex 16 16 4
    endloop
  endfacet
  facet normal 0 0 1
    outer loop
      vertex 19.75 7.25 4
      vertex 24 8 4
      vertex 16 8 4
    endloop
  endfacet
  facet normal 0 0 1
    outer loop
      vertex 15 10.5 4
      vertex 16 8 4
      vertex 15 11.75 4
    endloop
  endfacet
  facet normal 0 0 1
    outer loop
      vertex 15 1 4
      vertex 16 0 4
      vertex 24 0 4
    endloop
  endfacet
  facet normal 0 0 1
    outer loop
      vertex 15 10.5 4
      vertex 15 7 4
      vertex 16 8 4
    endloop
  endfacet
  facet normal 0 0 1
    outer loop
      vertex 15 1 4
      vertex 24 0 4
      vertex 16 1 4
    endloop
  endfacet
  facet normal 0 0 1
    outer loop
      vertex 18.5 7 4
      vertex 18.5 1 4
      vertex 19.75 7.25 4
    endloop
  endfacet
  facet normal 0 0 1
    outer loop
      vertex 9 10.5 4
      vertex 15 10.5 4
      vertex 15 11.75 4
    endloop
  endfacet
  facet normal 0 0 1
    outer loop
      vertex 9 7 4
      vertex 9 10.5 4
      vertex 8 8 4
    endloop
  endfacet
  facet normal 0 0 1
    outer loop
      vertex 9 -2.5 4
      vertex 8 1 4
      vertex 8 0 4
    endloop
  endfacet
  facet normal 0 0 1
    outer loop
      vertex 8 8 4
      vertex 0 8 4
      vertex 0 7.25 4
    endloop
  endfacet
  facet normal 0 0 1
    outer loop
      vertex 5.5 7 4
      vertex 9 7 4
      vertex 8 8 4
    endloop
  endfacet
  facet normal 0 0 1
    outer loop
      vertex 5.5 1 4
      vertex 5.5 7 4
      vertex 4.25 1 4
    endloop
  endfacet
  facet normal 0 0 1
    outer loop
      vertex 8 8 4
      vertex 0 7.25 4
      vertex 4.25 7.25 4
    endloop
  endfacet
  facet normal 0 0 1
    outer loop
      vertex 8 8 4
      vertex 4.25 7.25 4
      vertex 5.5 7 4
    endloop
  endfacet
  facet normal 0 0 1
    outer loop
      vertex 18.5 7 4
      vertex 19.75 7.25 4
      vertex 15 7 4
    endloop
  endfacet
  facet normal 0 0 1
    outer loop
      vertex 24 0 4
      vertex 18.5 1 4
      vertex 16 1 4
    endloop
  endfacet
  facet normal 0 0 1
    outer loop
      vertex 19.75 1 4
      vertex 19.75 7.25 4
      vertex 18.5 1 4
    endloop
  endfacet
  facet normal 0 0 1
    outer loop
      vertex 8 0 4
      vertex 4.25 1 4
      vertex 0 1 4
    endloop
  endfacet
  facet normal 0 0 1
    outer loop
      vertex 8 0 4
      vertex 5.5 1 4
      vertex 4.25 1 4
    endloop
  endfacet
  facet normal 0 0 1
    outer loop
      vertex 15 -3.75 4
      vertex 16 0 4
      vertex 15 -2.5 4
    endloop
  endfacet
  facet normal 0 0 1
    outer loop
      vertex 8.75 -3.75 4
      vertex 9 -2.5 4
      vertex 8 0 4
    endloop
  endfacet
  facet normal 0 0 1
    outer loop
      vertex 8.75 -3.75 4
      vertex 15 -3.75 4
      vertex 9 -2.5 4
    endloop
  endfacet
  facet normal 0 0 1
    outer loop
      vertex 9 -2.5 4
      vertex 9 1 4
      vertex 8 1 4
    endloop
  endfacet
  facet normal 0 0 1
    outer loop
      vertex 8 16 4
      vertex 8.75 11.75 4
      vertex 8.75 16 4
    endloop
  endfacet
  facet normal 0 0 1
    outer loop
      vertex 15 16 4
      vertex 15 11.75 4
      vertex 16 16 4
    endloop
  endfacet
  facet normal 0 0 1
    outer loop
      vertex 15 11.75 4
      vertex 8.75 11.75 4
      vertex 9 10.5 4
    endloop
  endfacet
  facet normal 0 0 1
    outer loop
      vertex 8.75 11.75 4
      vertex 8 8 4
      vertex 9 10.5 4
    endloop
  endfacet
  facet normal 0 0 1
    outer loop
      vertex 8 16 4
      vertex 8 8 4
      vertex 8.75 11.75 4
    endloop
  endfacet
  facet normal 0 0 1
    outer loop
      vertex 4.25 7.25 4
      vertex 4.25 1 4
      vertex 5.5 7 4
    endloop
  endfacet
  facet normal 0 0 1
    outer loop
      vertex 15 1 4
      vertex 15 -2.5 4
      vertex 16 0 4
    endloop
  endfacet
  facet normal 0 -1 0
    outer loop
      vertex 4.25 7.25 1.5
      vertex 4.25 7.25 4
      vertex 0 7.25 4
    endloop
  endfacet
  facet normal 0 -1 0
    outer loop
      vertex 0 7.25 1.5
      vertex 4.25 7.25 1.5
      vertex 0 7.25 4
    endloop
  endfacet
  facet normal 0 0 1
    outer loop
      vertex 4.25 1 1.5
      vertex 4.25 7.25 1.5
      vertex 0 7.25 1.5
    endloop
  endfacet
  facet normal 0 0 1
    outer loop
      vertex 0 1 1.5
      vertex 4.25 1 1.5
      vertex 0 7.25 1.5
    endloop
  endfacet
  facet normal 0 1 0
    outer loop
      vertex 4.25 1 4
      vertex 4.25 1 1.5
      vertex 0 1 4
    endloop
  endfacet
  facet normal 0 1 0
    outer loop
      vertex 0 1 4
      vertex 4.25 1 1.5
      vertex 0 1 1.5
    endloop
  endfacet
  facet normal -1 2.22045e-016 0
    outer loop
      vertex 8 -8 0
      vertex 8 -8 4
      vertex 8 -2.5 0
    endloop
  endfacet
  facet normal -1 2.22045e-016 0
    outer loop
      vertex 8 -2.5 2
      vertex 8 -8 4
      vertex 8 0 4
    endloop
  endfacet
  facet normal -1 2.22045e-016 0
    outer loop
      vertex 8 -2.5 0
      vertex 8 -8 4
      vertex 8 -2.5 2
    endloop
  endfacet
  facet normal -1 2.22045e-016 0
    outer loop
      vertex 8 -2.5 2
      vertex 8 0 4
      vertex 8 0 2
    endloop
  endfacet
  facet normal 0 0 -1
    outer loop
      vertex 8 1 2
      vertex 9 1 2
      vertex 9 -2.5 2
    endloop
  endfacet
  facet normal 0 0 -1
    outer loop
      vertex 5.5 0 2
      vertex 5.5 1 2
      vertex 8 0 2
    endloop
  endfacet
  facet normal 0 0 -1
    outer loop
      vertex 8 1 2
      vertex 9 -2.5 2
      vertex 8 0 2
    endloop
  endfacet
  facet normal 0 0 -1
    outer loop
      vertex 8 1 2
      vertex 8 0 2
      vertex 5.5 1 2
    endloop
  endfacet
  facet normal 0 0 -1
    outer loop
      vertex 8 0 2
      vertex 9 -2.5 2
      vertex 8 -2.5 2
    endloop
  endfacet
  facet normal 1 0 0
    outer loop
      vertex 5.5 1 2
      vertex 5.5 0 2
      vertex 5.5 8 0
    endloop
  endfacet
  facet normal 1 0 0
    outer loop
      vertex 5.5 8 0
      vertex 5.5 8 2
      vertex 5.5 7 2
    endloop
  endfacet
  facet normal 1 0 0
    outer loop
      vertex 5.5 1 4
      vertex 5.5 8 0
      vertex 5.5 7 2
    endloop
  endfacet
  facet normal 1 0 0
    outer loop
      vertex 5.5 7 4
      vertex 5.5 1 4
      vertex 5.5 7 2
    endloop
  endfacet
  facet normal 1 0 0
    outer loop
      vertex 5.5 1 4
      vertex 5.5 1 2
      vertex 5.5 8 0
    endloop
  endfacet
  facet normal 1 0 0
    outer loop
      vertex 5.5 0 2
      vertex 5.5 0 0
      vertex 5.5 8 0
    endloop
  endfacet
  facet normal 0 0 -1
    outer loop
      vertex 8 8 2
      vertex 8 10.5 2
      vertex 9 10.5 2
    endloop
  endfacet
  facet normal 0 0 -1
    outer loop
      vertex 8 8 2
      vertex 9 10.5 2
      vertex 9 7 2
    endloop
  endfacet
  facet normal 0 0 -1
    outer loop
      vertex 8 8 2
      vertex 9 7 2
      vertex 5.5 8 2
    endloop
  endfacet
  facet normal 0 0 -1
    outer loop
      vertex 9 7 2
      vertex 5.5 7 2
      vertex 5.5 8 2
    endloop
  endfacet
  facet normal -1 2.22045e-016 0
    outer loop
      vertex 8 8 2
      vertex 8 8 4
      vertex 8 10.5 2
    endloop
  endfacet
  facet normal -1 2.22045e-016 0
    outer loop
      vertex 8 10.5 2
      vertex 8 8 4
      vertex 8 16 4
    endloop
  endfacet
  facet normal -1 2.22045e-016 0
    outer loop
      vertex 8 10.5 2
      vertex 8 16 4
      vertex 8 16 0
    endloop
  endfacet
  facet normal -1 2.22045e-016 0
    outer loop
      vertex 8 10.5 2
      vertex 8 16 0
      vertex 8 10.5 0
    endloop
  endfacet
  facet normal -1 0 0
    outer loop
      vertex 4.25 7.25 4
      vertex 4.25 7.25 1.5
      vertex 4.25 1 4
    endloop
  endfacet
  facet normal -1 0 0
    outer loop
      vertex 4.25 1 4
      vertex 4.25 7.25 1.5
      vertex 4.25 1 1.5
    endloop
  endfacet
  facet normal 2.22045e-016 1 0
    outer loop
      vertex 15 16 1.5
      vertex 16 16 0
      vertex 8.75 16 1.5
    endloop
  endfacet
  facet normal 2.22045e-016 1 0
    outer loop
      vertex 8 16 0
      vertex 8 16 4
      vertex 8.75 16 1.5
    endloop
  endfacet
  facet normal 2.22045e-016 1 0
    outer loop
      vertex 8 16 0
      vertex 8.75 16 1.5
      vertex 16 16 0
    endloop
  endfacet
  facet normal 2.22045e-016 1 0
    outer loop
      vertex 16 16 0
      vertex 15 16 1.5
      vertex 15 16 4
    endloop
  endfacet
  facet normal 2.22045e-016 1 0
    outer loop
      vertex 16 16 0
      vertex 15 16 4
      vertex 16 16 4
    endloop
  endfacet
  facet normal 2.22045e-016 1 0
    outer loop
      vertex 8.75 16 1.5
      vertex 8 16 4
      vertex 8.75 16 4
    endloop
  endfacet
  facet normal 1 -2.22045e-016 0
    outer loop
      vertex 8.75 16 1.5
      vertex 8.75 16 4
      vertex 8.75 11.75 4
    endloop
  endfacet
  facet normal 1 -2.22045e-016 0
    outer loop
      vertex 8.75 11.75 1.5
      vertex 8.75 16 1.5
      vertex 8.75 11.75 4
    endloop
  endfacet
  facet normal 2.22045e-016 1 0
    outer loop
      vertex 15 11.75 4
      vertex 15 11.75 1.5
      vertex 8.75 11.75 4
    endloop
  endfacet
  facet normal 2.22045e-016 1 0
    outer loop
      vertex 8.75 11.75 4
      vertex 15 11.75 1.5
      vertex 8.75 11.75 1.5
    endloop
  endfacet
  facet normal -1 2.22045e-016 0
    outer loop
      vertex 15 16 4
      vertex 15 16 1.5
      vertex 15 11.75 4
    endloop
  endfacet
  facet normal -1 2.22045e-016 0
    outer loop
      vertex 15 11.75 4
      vertex 15 16 1.5
      vertex 15 11.75 1.5
    endloop
  endfacet
  facet normal 1 -2.22045e-016 0
    outer loop
      vertex 16 8 4
      vertex 16 8 2
      vertex 16 10.5 2
    endloop
  endfacet
  facet normal 1 -2.22045e-016 0
    outer loop
      vertex 16 16 0
      vertex 16 8 4
      vertex 16 10.5 2
    endloop
  endfacet
  facet normal 1 -2.22045e-016 0
    outer loop
      vertex 16 10.5 0
      vertex 16 16 0
      vertex 16 10.5 2
    endloop
  endfacet
  facet normal 1 -2.22045e-016 0
    outer loop
      vertex 16 16 0
      vertex 16 16 4
      vertex 16 8 4
    endloop
  endfacet
  facet normal 0 1 0
    outer loop
      vertex 16 8 2
      vertex 16 8 4
      vertex 18.5 8 2
    endloop
  endfacet
  facet normal 0 1 0
    outer loop
      vertex 18.5 8 2
      vertex 16 8 4
      vertex 24 8 4
    endloop
  endfacet
  facet normal 0 1 0
    outer loop
      vertex 18.5 8 2
      vertex 24 8 4
      vertex 24 8 0
    endloop
  endfacet
  facet normal 0 1 0
    outer loop
      vertex 18.5 8 2
      vertex 24 8 0
      vertex 18.5 8 0
    endloop
  endfacet
  facet normal 1 0 0
    outer loop
      vertex 24 1 1.5
      vertex 24 0 0
      vertex 24 8 0
    endloop
  endfacet
  facet normal 1 0 0
    outer loop
      vertex 24 1 1.5
      vertex 24 1 4
      vertex 24 0 4
    endloop
  endfacet
  facet normal 1 0 0
    outer loop
      vertex 24 8 4
      vertex 24 7.25 4
      vertex 24 8 0
    endloop
  endfacet
  facet normal 1 0 0
    outer loop
      vertex 24 7.25 4
      vertex 24 7.25 1.5
      vertex 24 8 0
    endloop
  endfacet
  facet normal 1 0 0
    outer loop
      vertex 24 0 4
      vertex 24 0 0
      vertex 24 1 1.5
    endloop
  endfacet
  facet normal 1 0 0
    outer loop
      vertex 24 7.25 1.5
      vertex 24 1 1.5
      vertex 24 8 0
    endloop
  endfacet
  facet normal 0 -1 0
    outer loop
      vertex 24 7.25 1.5
      vertex 24 7.25 4
      vertex 19.75 7.25 4
    endloop
  endfacet
  facet normal 0 -1 0
    outer loop
      vertex 19.75 7.25 1.5
      vertex 24 7.25 1.5
      vertex 19.75 7.25 4
    endloop
  endfacet
  facet normal 1 0 0
    outer loop
      vertex 19.75 7.25 1.5
      vertex 19.75 7.25 4
      vertex 19.75 1 4
    endloop
  endfacet
  facet normal 1 0 0
    outer loop
      vertex 19.75 1 1.5
      vertex 19.75 7.25 1.5
      vertex 19.75 1 4
    endloop
  endfacet
  facet normal 0 1 0
    outer loop
      vertex 24 1 4
      vertex 24 1 1.5
      vertex 19.75 1 4
    endloop
  endfacet
  facet normal 0 1 0
    outer loop
      vertex 19.75 1 4
      vertex 24 1 1.5
      vertex 19.75 1 1.5
    endloop
  endfacet
  facet normal 0 -1 0
    outer loop
      vertex 16 0 4
      vertex 16 0 2
      vertex 18.5 0 2
    endloop
  endfacet
  facet normal 0 -1 0
    outer loop
      vertex 24 0 0
      vertex 16 0 4
      vertex 18.5 0 2
    endloop
  endfacet
  facet normal 0 -1 0
    outer loop
      vertex 18.5 0 0
      vertex 24 0 0
      vertex 18.5 0 2
    endloop
  endfacet
  facet normal 0 -1 0
    outer loop
      vertex 24 0 0
      vertex 24 0 4
      vertex 16 0 4
    endloop
  endfacet
  facet normal 1 -2.22045e-016 0
    outer loop
      vertex 16 -8 4
      vertex 16 -8 0
      vertex 16 -2.5 0
    endloop
  endfacet
  facet normal 1 -2.22045e-016 0
    outer loop
      vertex 16 0 2
      vertex 16 -8 4
      vertex 16 -2.5 2
    endloop
  endfacet
  facet normal 1 -2.22045e-016 0
    outer loop
      vertex 16 -2.5 2
      vertex 16 -8 4
      vertex 16 -2.5 0
    endloop
  endfacet
  facet normal 1 -2.22045e-016 0
    outer loop
      vertex 16 0 4
      vertex 16 -8 4
      vertex 16 0 2
    endloop
  endfacet
  facet normal -2.22045e-016 -1 0
    outer loop
      vertex 8.75 -8 1.5
      vertex 8 -8 0
      vertex 16 -8 0
    endloop
  endfacet
  facet normal -2.22045e-016 -1 0
    outer loop
      vertex 8.75 -8 1.5
      vertex 8.75 -8 4
      vertex 8 -8 4
    endloop
  endfacet
  facet normal -2.22045e-016 -1 0
    outer loop
      vertex 16 -8 4
      vertex 15 -8 4
      vertex 16 -8 0
    endloop
  endfacet
  facet normal -2.22045e-016 -1 0
    outer loop
      vertex 15 -8 4
      vertex 15 -8 1.5
      vertex 16 -8 0
    endloop
  endfacet
  facet normal -2.22045e-016 -1 0
    outer loop
      vertex 8 -8 4
      vertex 8 -8 0
      vertex 8.75 -8 1.5
    endloop
  endfacet
  facet normal -2.22045e-016 -1 0
    outer loop
      vertex 15 -8 1.5
      vertex 8.75 -8 1.5
      vertex 16 -8 0
    endloop
  endfacet
  facet normal -1 2.22045e-016 0
    outer loop
      vertex 15 -3.75 4
      vertex 15 -3.75 1.5
      vertex 15 -8 4
    endloop
  endfacet
  facet normal -1 2.22045e-016 0
    outer loop
      vertex 15 -8 4
      vertex 15 -3.75 1.5
      vertex 15 -8 1.5
    endloop
  endfacet
  facet normal -2.22045e-016 -1 0
    outer loop
      vertex 15 -3.75 1.5
      vertex 15 -3.75 4
      vertex 8.75 -3.75 4
    endloop
  endfacet
  facet normal -2.22045e-016 -1 0
    outer loop
      vertex 8.75 -3.75 1.5
      vertex 15 -3.75 1.5
      vertex 8.75 -3.75 4
    endloop
  endfacet
  facet normal 1 -2.22045e-016 0
    outer loop
      vertex 8.75 -3.75 1.5
      vertex 8.75 -3.75 4
      vertex 8.75 -8 4
    endloop
  endfacet
  facet normal 1 -2.22045e-016 0
    outer loop
      vertex 8.75 -8 1.5
      vertex 8.75 -3.75 1.5
      vertex 8.75 -8 4
    endloop
  endfacet
  facet normal 0 1 0
    outer loop
      vertex 8 1 4
      vertex 8 1 2
      vertex 5.5 1 4
    endloop
  endfacet
  facet normal 0 1 0
    outer loop
      vertex 5.5 1 4
      vertex 8 1 2
      vertex 5.5 1 2
    endloop
  endfacet
  facet normal 4.44089e-016 1 0
    outer loop
      vertex 9 1 4
      vertex 9 1 2
      vertex 8 1 4
    endloop
  endfacet
  facet normal 4.44089e-016 1 0
    outer loop
      vertex 8 1 4
      vertex 9 1 2
      vertex 8 1 2
    endloop
  endfacet
  facet normal 1 -2.22045e-016 0
    outer loop
      vertex 9 1 2
      vertex 9 1 4
      vertex 9 -2.5 4
    endloop
  endfacet
  facet normal 1 -2.22045e-016 0
    outer loop
      vertex 9 -2.5 2
      vertex 9 1 2
      vertex 9 -2.5 4
    endloop
  endfacet
  facet normal 2.22045e-016 1 0
    outer loop
      vertex 9 -2.5 2
      vertex 9 -2.5 4
      vertex 15 -2.5 4
    endloop
  endfacet
  facet normal 2.22045e-016 1 0
    outer loop
      vertex 9 -2.5 2
      vertex 15 -2.5 4
      vertex 15 -2.5 2
    endloop
  endfacet
  facet normal 2.22045e-016 1 0
    outer loop
      vertex 9 -2.5 2
      vertex 16 -2.5 0
      vertex 8 -2.5 2
    endloop
  endfacet
  facet normal 2.22045e-016 1 0
    outer loop
      vertex 15 -2.5 2
      vertex 16 -2.5 2
      vertex 16 -2.5 0
    endloop
  endfacet
  facet normal 2.22045e-016 1 0
    outer loop
      vertex 15 -2.5 2
      vertex 16 -2.5 0
      vertex 9 -2.5 2
    endloop
  endfacet
  facet normal 2.22045e-016 1 0
    outer loop
      vertex 16 -2.5 0
      vertex 8 -2.5 0
      vertex 8 -2.5 2
    endloop
  endfacet
  facet normal -1 2.22045e-016 0
    outer loop
      vertex 15 1 4
      vertex 15 1 2
      vertex 15 -2.5 4
    endloop
  endfacet
  facet normal -1 2.22045e-016 0
    outer loop
      vertex 15 -2.5 4
      vertex 15 1 2
      vertex 15 -2.5 2
    endloop
  endfacet
  facet normal 4.44089e-016 1 0
    outer loop
      vertex 16 1 4
      vertex 16 1 2
      vertex 15 1 4
    endloop
  endfacet
  facet normal 4.44089e-016 1 0
    outer loop
      vertex 15 1 4
      vertex 16 1 2
      vertex 15 1 2
    endloop
  endfacet
  facet normal 0 1 0
    outer loop
      vertex 18.5 1 4
      vertex 18.5 1 2
      vertex 16 1 4
    endloop
  endfacet
  facet normal 0 1 0
    outer loop
      vertex 16 1 4
      vertex 18.5 1 2
      vertex 16 1 2
    endloop
  endfacet
  facet normal -1 0 0
    outer loop
      vertex 18.5 1 2
      vertex 18.5 1 4
      vertex 18.5 7 4
    endloop
  endfacet
  facet normal -1 0 0
    outer loop
      vertex 18.5 1 2
      vertex 18.5 7 4
      vertex 18.5 7 2
    endloop
  endfacet
  facet normal -1 0 0
    outer loop
      vertex 18.5 1 2
      vertex 18.5 8 0
      vertex 18.5 0 2
    endloop
  endfacet
  facet normal -1 0 0
    outer loop
      vertex 18.5 7 2
      vertex 18.5 8 2
      vertex 18.5 8 0
    endloop
  endfacet
  facet normal -1 0 0
    outer loop
      vertex 18.5 7 2
      vertex 18.5 8 0
      vertex 18.5 1 2
    endloop
  endfacet
  facet normal -1 0 0
    outer loop
      vertex 18.5 8 0
      vertex 18.5 0 0
      vertex 18.5 0 2
    endloop
  endfacet
  facet normal 0 -1 0
    outer loop
      vertex 18.5 7 2
      vertex 18.5 7 4
      vertex 15 7 4
    endloop
  endfacet
  facet normal 0 -1 0
    outer loop
      vertex 15 7 2
      vertex 18.5 7 2
      vertex 15 7 4
    endloop
  endfacet
  facet normal -1 2.22045e-016 0
    outer loop
      vertex 15 10.5 4
      vertex 15 10.5 2
      vertex 15 7 4
    endloop
  endfacet
  facet normal -1 2.22045e-016 0
    outer loop
      vertex 15 7 4
      vertex 15 10.5 2
      vertex 15 7 2
    endloop
  endfacet
  facet normal -2.22045e-016 -1 0
    outer loop
      vertex 9 10.5 2
      vertex 8 10.5 2
      vertex 16 10.5 0
    endloop
  endfacet
  facet normal -2.22045e-016 -1 0
    outer loop
      vertex 16 10.5 0
      vertex 16 10.5 2
      vertex 15 10.5 2
    endloop
  endfacet
  facet normal -2.22045e-016 -1 0
    outer loop
      vertex 9 10.5 4
      vertex 16 10.5 0
      vertex 15 10.5 2
    endloop
  endfacet
  facet normal -2.22045e-016 -1 0
    outer loop
      vertex 15 10.5 4
      vertex 9 10.5 4
      vertex 15 10.5 2
    endloop
  endfacet
  facet normal -2.22045e-016 -1 0
    outer loop
      vertex 9 10.5 4
      vertex 9 10.5 2
      vertex 16 10.5 0
    endloop
  endfacet
  facet normal -2.22045e-016 -1 0
    outer loop
      vertex 8 10.5 2
      vertex 8 10.5 0
      vertex 16 10.5 0
    endloop
  endfacet
  facet normal 1 -2.22045e-016 0
    outer loop
      vertex 9 10.5 2
      vertex 9 10.5 4
      vertex 9 7 4
    endloop
  endfacet
  facet normal 1 -2.22045e-016 0
    outer loop
      vertex 9 7 2
      vertex 9 10.5 2
      vertex 9 7 4
    endloop
  endfacet
  facet normal 0 -1 0
    outer loop
      vertex 9 7 2
      vertex 9 7 4
      vertex 5.5 7 4
    endloop
  endfacet
  facet normal 0 -1 0
    outer loop
      vertex 5.5 7 2
      vertex 9 7 2
      vertex 5.5 7 4
    endloop
  endfacet
  facet normal 0 0 -1
    outer loop
      vertex 8 -8 0
      vertex 8 -2.5 0
      vertex 16 -8 0
    endloop
  endfacet
  facet normal 0 0 -1
    outer loop
      vertex 16 -8 0
      vertex 8 -2.5 0
      vertex 16 -2.5 0
    endloop
  endfacet
  facet normal 0 0 -1
    outer loop
      vertex 8 10.5 0
      vertex 8 16 0
      vertex 16 10.5 0
    endloop
  endfacet
  facet normal 0 0 -1
    outer loop
      vertex 16 10.5 0
      vertex 8 16 0
      vertex 16 16 0
    endloop
  endfacet
  facet normal 0 0 1
    outer loop
      vertex 15 11.75 1.5
      vertex 15 16 1.5
      vertex 8.75 16 1.5
    endloop
  endfacet
  facet normal 0 0 1
    outer loop
      vertex 8.75 11.75 1.5
      vertex 15 11.75 1.5
      vertex 8.75 16 1.5
    endloop
  endfacet
  facet normal 0 0 -1
    outer loop
      vertex 16 10.5 2
      vertex 16 8 2
      vertex 15 10.5 2
    endloop
  endfacet
  facet normal 0 0 -1
    outer loop
      vertex 18.5 7 2
      vertex 16 8 2
      vertex 18.5 8 2
    endloop
  endfacet
  facet normal 0 0 -1
    outer loop
      vertex 15 7 2
      vertex 16 8 2
      vertex 18.5 7 2
    endloop
  endfacet
  facet normal 0 0 -1
    outer loop
      vertex 15 10.5 2
      vertex 16 8 2
      vertex 15 7 2
    endloop
  endfacet
  facet normal 0 0 -1
    outer loop
      vertex 18.5 0 0
      vertex 18.5 8 0
      vertex 24 0 0
    endloop
  endfacet
  facet normal 0 0 -1
    outer loop
      vertex 24 0 0
      vertex 18.5 8 0
      vertex 24 8 0
    endloop
  endfacet
  facet normal 0 0 1
    outer loop
      vertex 24 1 1.5
      vertex 24 7.25 1.5
      vertex 19.75 7.25 1.5
    endloop
  endfacet
  facet normal 0 0 1
    outer loop
      vertex 19.75 1 1.5
      vertex 24 1 1.5
      vertex 19.75 7.25 1.5
    endloop
  endfacet
  facet normal 0 0 -1
    outer loop
      vertex 18.5 0 2
      vertex 16 1 2
      vertex 18.5 1 2
    endloop
  endfacet
  facet normal 0 0 -1
    outer loop
      vertex 15 1 2
      vertex 16 1 2
      vertex 18.5 0 2
    endloop
  endfacet
  facet normal 0 0 -1
    outer loop
      vertex 15 1 2
      vertex 18.5 0 2
      vertex 16 0 2
    endloop
  endfacet
  facet normal 0 0 -1
    outer loop
      vertex 15 1 2
      vertex 16 0 2
      vertex 16 -2.5 2
    endloop
  endfacet
  facet normal 0 0 -1
    outer loop
      vertex 15 1 2
      vertex 16 -2.5 2
      vertex 15 -2.5 2
    endloop
  endfacet
  facet normal 0 0 1
    outer loop
      vertex 15 -8 1.5
      vertex 15 -3.75 1.5
      vertex 8.75 -3.75 1.5
    endloop
  endfacet
  facet normal 0 0 1
    outer loop
      vertex 8.75 -8 1.5
      vertex 15 -8 1.5
      vertex 8.75 -3.75 1.5
    endloop
  endfacet
endsolid OpenSCAD_Model
