solid OpenSCAD_Model
  facet normal -1 0 0
    outer loop
      vertex 0 7.25 1.5
      vertex 0 8 0
      vertex 0 1 1.5
    endloop
  endfacet
  facet normal -1 0 0
    outer loop
      vertex 0 0 0
      vertex 0 0 4
      vertex 0 1 1.5
    endloop
  endfacet
  facet normal -1 0 0
    outer loop
      vertex 0 0 0
      vertex 0 1 1.5
      vertex 0 8 0
    endloop
  endfacet
  facet normal -1 0 0
    outer loop
      vertex 0 8 0
      vertex 0 7.25 1.5
      vertex 0 7.25 4
    endloop
  endfacet
  facet normal -1 0 0
    outer loop
      vertex 0 8 0
      vertex 0 7.25 4
      vertex 0 8 4
    endloop
  endfacet
  facet normal -1 0 0
    outer loop
      vertex 0 1 1.5
      vertex 0 0 4
      vertex 0 1 4
    endloop
  endfacet
  facet normal 0 -1 0
    outer loop
      vertex 0 0 4
      vertex 0 0 0
      vertex 5.5 0 0
    endloop
  endfacet
  facet normal 0 -1 0
    outer loop
      vertex 16.5 0 2
      vertex 0 0 4
      vertex 5.5 0 2
    endloop
  endfacet
  facet normal 0 -1 0
    outer loop
      vertex 5.5 0 2
      vertex 0 0 4
      vertex 5.5 0 0
    endloop
  endfacet
  facet normal 0 -1 0
    outer loop
      vertex 22 0 4
      vertex 0 0 4
      vertex 16.5 0 2
    endloop
  endfacet
  facet normal 0 -1 0
    outer loop
      vertex 22 0 0
      vertex 16.5 0 2
      vertex 16.5 0 0
    endloop
  endfacet
  facet normal 0 -1 0
    outer loop
      vertex 22 0 4
      vertex 16.5 0 2
      vertex 22 0 0
    endloop
  endfacet
  facet normal 0 0 -1
    outer loop
      vertex 0 0 0
      vertex 0 8 0
      vertex 5.5 0 0
    endloop
  endfacet
  facet normal 0 0 -1
    outer loop
      vertex 5.5 0 0
      vertex 0 8 0
      vertex 5.5 8 0
    endloop
  endfacet
  facet normal 0 1 0
    outer loop
      vertex 0 8 0
      vertex 0 8 4
      vertex 5.5 8 0
    endloop
  endfacet
  facet normal 0 1 0
    outer loop
      vertex 5.5 8 2
      vertex 0 8 4
      vertex 22 8 4
    endloop
  endfacet
  facet normal 0 1 0
    outer loop
      vertex 16.5 8 0
      vertex 22 8 4
      vertex 22 8 0
    endloop
  endfacet
  facet normal 0 1 0
    outer loop
      vertex 16.5 8 2
      vertex 22 8 4
      vertex 16.5 8 0
    endloop
  endfacet
  facet normal 0 1 0
    outer loop
      vertex 5.5 8 0
      vertex 0 8 4
      vertex 5.5 8 2
    endloop
  endfacet
  facet normal 0 1 0
    outer loop
      vertex 5.5 8 2
      vertex 22 8 4
      vertex 16.5 8 2
    endloop
  endfacet
  facet normal 0 0 1
    outer loop
      vertex 0 1 4
      vertex 0 0 4
      vertex 22 0 4
    endloop
  endfacet
  facet normal 0 0 1
    outer loop
      vertex 4.25 1 4
      vertex 0 1 4
      vertex 22 0 4
    endloop
  endfacet
  facet normal 0 0 1
    outer loop
      vertex 17.75 1 4
      vertex 16.5 1 4
      vertex 22 0 4
    endloop
  endfacet
  facet normal 0 0 1
    outer loop
      vertex 22 1 4
      vertex 17.75 1 4
      vertex 22 0 4
    endloop
  endfacet
  facet normal 0 0 1
    outer loop
      vertex 22 7.25 4
      vertex 22 8 4
      vertex 17.75 7.25 4
    endloop
  endfacet
  facet normal 0 0 1
    outer loop
      vertex 22 8 4
      vertex 0 8 4
      vertex 17.75 7.25 4
    endloop
  endfacet
  facet normal 0 0 1
    outer loop
      vertex 4.25 7.25 4
      vertex 0 8 4
      vertex 0 7.25 4
    endloop
  endfacet
  facet normal 0 0 1
    outer loop
      vertex 17.75 7.25 4
      vertex 0 8 4
      vertex 4.25 7.25 4
    endloop
  endfacet
  facet normal 0 0 1
    outer loop
      vertex 5.5 1 4
      vertex 4.25 1 4
      vertex 22 0 4
    endloop
  endfacet
  facet normal 0 0 1
    outer loop
      vertex 16.5 1 4
      vertex 5.5 1 4
      vertex 22 0 4
    endloop
  endfacet
  facet normal 0 0 1
    outer loop
      vertex 5.5 1 4
      vertex 5.5 7 4
      vertex 4.25 1 4
    endloop
  endfacet
  facet normal 0 0 1
    outer loop
      vertex 17.75 7.25 4
      vertex 4.25 7.25 4
      vertex 5.5 7 4
    endloop
  endfacet
  facet normal 0 0 1
    outer loop
      vertex 17.75 7.25 4
      vertex 5.5 7 4
      vertex 16.5 7 4
    endloop
  endfacet
  facet normal 0 0 1
    outer loop
      vertex 17.75 7.25 4
      vertex 16.5 1 4
      vertex 17.75 1 4
    endloop
  endfacet
  facet normal 0 0 1
    outer loop
      vertex 16.5 7 4
      vertex 16.5 1 4
      vertex 17.75 7.25 4
    endloop
  endfacet
  facet normal 0 0 1
    outer loop
      vertex 4.25 7.25 4
      vertex 4.25 1 4
      vertex 5.5 7 4
    endloop
  endfacet
  facet normal 0 -1 0
    outer loop
      vertex 4.25 7.25 1.5
      vertex 4.25 7.25 4
      vertex 0 7.25 4
    endloop
  endfacet
  facet normal 0 -1 0
    outer loop
      vertex 0 7.25 1.5
      vertex 4.25 7.25 1.5
      vertex 0 7.25 4
    endloop
  endfacet
  facet normal 0 0 1
    outer loop
      vertex 4.25 1 1.5
      vertex 4.25 7.25 1.5
      vertex 0 7.25 1.5
    endloop
  endfacet
  facet normal 0 0 1
    outer loop
      vertex 0 1 1.5
      vertex 4.25 1 1.5
      vertex 0 7.25 1.5
    endloop
  endfacet
  facet normal 0 1 0
    outer loop
      vertex 4.25 1 4
      vertex 4.25 1 1.5
      vertex 0 1 4
    endloop
  endfacet
  facet normal 0 1 0
    outer loop
      vertex 0 1 4
      vertex 4.25 1 1.5
      vertex 0 1 1.5
    endloop
  endfacet
  facet normal 1 0 0
    outer loop
      vertex 22 1 1.5
      vertex 22 0 0
      vertex 22 8 0
    endloop
  endfacet
  facet normal 1 0 0
    outer loop
      vertex 22 1 1.5
      vertex 22 1 4
      vertex 22 0 4
    endloop
  endfacet
  facet normal 1 0 0
    outer loop
      vertex 22 8 4
      vertex 22 7.25 4
      vertex 22 8 0
    endloop
  endfacet
  facet normal 1 0 0
    outer loop
      vertex 22 7.25 4
      vertex 22 7.25 1.5
      vertex 22 8 0
    endloop
  endfacet
  facet normal 1 0 0
    outer loop
      vertex 22 0 4
      vertex 22 0 0
      vertex 22 1 1.5
    endloop
  endfacet
  facet normal 1 0 0
    outer loop
      vertex 22 7.25 1.5
      vertex 22 1 1.5
      vertex 22 8 0
    endloop
  endfacet
  facet normal 0 0 -1
    outer loop
      vertex 16.5 0 0
      vertex 16.5 8 0
      vertex 22 0 0
    endloop
  endfacet
  facet normal 0 0 -1
    outer loop
      vertex 22 0 0
      vertex 16.5 8 0
      vertex 22 8 0
    endloop
  endfacet
  facet normal -1 0 0
    outer loop
      vertex 16.5 1 2
      vertex 16.5 1 4
      vertex 16.5 7 4
    endloop
  endfacet
  facet normal -1 0 0
    outer loop
      vertex 16.5 1 2
      vertex 16.5 7 4
      vertex 16.5 7 2
    endloop
  endfacet
  facet normal -1 0 0
    outer loop
      vertex 16.5 1 2
      vertex 16.5 8 0
      vertex 16.5 0 2
    endloop
  endfacet
  facet normal -1 0 0
    outer loop
      vertex 16.5 7 2
      vertex 16.5 8 2
      vertex 16.5 8 0
    endloop
  endfacet
  facet normal -1 0 0
    outer loop
      vertex 16.5 7 2
      vertex 16.5 8 0
      vertex 16.5 1 2
    endloop
  endfacet
  facet normal -1 0 0
    outer loop
      vertex 16.5 8 0
      vertex 16.5 0 0
      vertex 16.5 0 2
    endloop
  endfacet
  facet normal 0 0 -1
    outer loop
      vertex 16.5 1 2
      vertex 16.5 0 2
      vertex 5.5 1 2
    endloop
  endfacet
  facet normal 0 0 -1
    outer loop
      vertex 5.5 1 2
      vertex 16.5 0 2
      vertex 5.5 0 2
    endloop
  endfacet
  facet normal 1 0 0
    outer loop
      vertex 5.5 1 2
      vertex 5.5 0 2
      vertex 5.5 8 0
    endloop
  endfacet
  facet normal 1 0 0
    outer loop
      vertex 5.5 8 0
      vertex 5.5 8 2
      vertex 5.5 7 2
    endloop
  endfacet
  facet normal 1 0 0
    outer loop
      vertex 5.5 1 4
      vertex 5.5 8 0
      vertex 5.5 7 2
    endloop
  endfacet
  facet normal 1 0 0
    outer loop
      vertex 5.5 7 4
      vertex 5.5 1 4
      vertex 5.5 7 2
    endloop
  endfacet
  facet normal 1 0 0
    outer loop
      vertex 5.5 1 4
      vertex 5.5 1 2
      vertex 5.5 8 0
    endloop
  endfacet
  facet normal 1 0 0
    outer loop
      vertex 5.5 0 2
      vertex 5.5 0 0
      vertex 5.5 8 0
    endloop
  endfacet
  facet normal 0 0 -1
    outer loop
      vertex 16.5 8 2
      vertex 16.5 7 2
      vertex 5.5 8 2
    endloop
  endfacet
  facet normal 0 0 -1
    outer loop
      vertex 5.5 8 2
      vertex 16.5 7 2
      vertex 5.5 7 2
    endloop
  endfacet
  facet normal -1 0 0
    outer loop
      vertex 4.25 7.25 4
      vertex 4.25 7.25 1.5
      vertex 4.25 1 4
    endloop
  endfacet
  facet normal -1 0 0
    outer loop
      vertex 4.25 1 4
      vertex 4.25 7.25 1.5
      vertex 4.25 1 1.5
    endloop
  endfacet
  facet normal 0 -1 0
    outer loop
      vertex 22 7.25 1.5
      vertex 22 7.25 4
      vertex 17.75 7.25 4
    endloop
  endfacet
  facet normal 0 -1 0
    outer loop
      vertex 17.75 7.25 1.5
      vertex 22 7.25 1.5
      vertex 17.75 7.25 4
    endloop
  endfacet
  facet normal 1 0 0
    outer loop
      vertex 17.75 7.25 1.5
      vertex 17.75 7.25 4
      vertex 17.75 1 4
    endloop
  endfacet
  facet normal 1 0 0
    outer loop
      vertex 17.75 1 1.5
      vertex 17.75 7.25 1.5
      vertex 17.75 1 4
    endloop
  endfacet
  facet normal 0 1 0
    outer loop
      vertex 22 1 4
      vertex 22 1 1.5
      vertex 17.75 1 4
    endloop
  endfacet
  facet normal 0 1 0
    outer loop
      vertex 17.75 1 4
      vertex 22 1 1.5
      vertex 17.75 1 1.5
    endloop
  endfacet
  facet normal 0 1 0
    outer loop
      vertex 16.5 1 4
      vertex 16.5 1 2
      vertex 5.5 1 4
    endloop
  endfacet
  facet normal 0 1 0
    outer loop
      vertex 5.5 1 4
      vertex 16.5 1 2
      vertex 5.5 1 2
    endloop
  endfacet
  facet normal 0 -1 0
    outer loop
      vertex 16.5 7 2
      vertex 16.5 7 4
      vertex 5.5 7 4
    endloop
  endfacet
  facet normal 0 -1 0
    outer loop
      vertex 5.5 7 2
      vertex 16.5 7 2
      vertex 5.5 7 4
    endloop
  endfacet
  facet normal 0 0 1
    outer loop
      vertex 22 1 1.5
      vertex 22 7.25 1.5
      vertex 17.75 7.25 1.5
    endloop
  endfacet
  facet normal 0 0 1
    outer loop
      vertex 17.75 1 1.5
      vertex 22 1 1.5
      vertex 17.75 7.25 1.5
    endloop
  endfacet
endsolid OpenSCAD_Model
