solid OpenSCAD_Model
  facet normal -1 0 0
    outer loop
      vertex -3.5 0 -1
      vertex -3.5 0 1
      vertex -3.5 10.5 -1
    endloop
  endfacet
  facet normal -1 0 0
    outer loop
      vertex -3.5 10.5 -1
      vertex -3.5 0 1
      vertex -3.5 10.5 1
    endloop
  endfacet
  facet normal 0 -1 0
    outer loop
      vertex -3.5 0 1
      vertex -3.5 0 -1
      vertex 32.5 0 -1
    endloop
  endfacet
  facet normal 0 -1 0
    outer loop
      vertex 0 0 1
      vertex -3.5 0 1
      vertex 32.5 0 -1
    endloop
  endfacet
  facet normal 0 -1 0
    outer loop
      vertex 29 0 1
      vertex 0 0 1
      vertex 32.5 0 -1
    endloop
  endfacet
  facet normal 0 -1 0
    outer loop
      vertex 32.5 0 1
      vertex 29 0 1
      vertex 32.5 0 -1
    endloop
  endfacet
  facet normal 0 -1 0
    outer loop
      vertex 29 0 7.5
      vertex 0 0 1
      vertex 29 0 1
    endloop
  endfacet
  facet normal 0 -1 0
    outer loop
      vertex 0 0 7.5
      vertex 0 0 1
      vertex 29 0 7.5
    endloop
  endfacet
  facet normal 0 0 -1
    outer loop
      vertex -3.5 0 -1
      vertex -3.5 10.5 -1
      vertex 32.5 0 -1
    endloop
  endfacet
  facet normal 0 0 -1
    outer loop
      vertex 32.5 0 -1
      vertex -3.5 10.5 -1
      vertex 32.5 10.5 -1
    endloop
  endfacet
  facet normal 0 1 0
    outer loop
      vertex -3.5 10.5 -1
      vertex -3.5 10.5 1
      vertex 32.5 10.5 -1
    endloop
  endfacet
  facet normal 0 1 0
    outer loop
      vertex 32.5 10.5 -1
      vertex -3.5 10.5 1
      vertex 0 10.5 1
    endloop
  endfacet
  facet normal 0 1 0
    outer loop
      vertex 32.5 10.5 -1
      vertex 0 10.5 1
      vertex 0 10.5 7.5
    endloop
  endfacet
  facet normal 0 1 0
    outer loop
      vertex 29 10.5 1
      vertex 0 10.5 7.5
      vertex 29 10.5 7.5
    endloop
  endfacet
  facet normal 0 1 0
    outer loop
      vertex 32.5 10.5 -1
      vertex 0 10.5 7.5
      vertex 29 10.5 1
    endloop
  endfacet
  facet normal 0 1 0
    outer loop
      vertex 32.5 10.5 1
      vertex 32.5 10.5 -1
      vertex 29 10.5 1
    endloop
  endfacet
  facet normal 0 0 1
    outer loop
      vertex 0 0 1
      vertex 0 10.5 1
      vertex -3.5 10.5 1
    endloop
  endfacet
  facet normal 0 0 1
    outer loop
      vertex -3.5 0 1
      vertex 0 0 1
      vertex -3.5 10.5 1
    endloop
  endfacet
  facet normal -1 0 0
    outer loop
      vertex 0 7.25 5
      vertex 0 10.5 1
      vertex 0 3.25 5
    endloop
  endfacet
  facet normal -1 0 0
    outer loop
      vertex 0 0 1
      vertex 0 0 7.5
      vertex 0 3.25 5
    endloop
  endfacet
  facet normal -1 0 0
    outer loop
      vertex 0 0 1
      vertex 0 3.25 5
      vertex 0 10.5 1
    endloop
  endfacet
  facet normal -1 0 0
    outer loop
      vertex 0 10.5 1
      vertex 0 7.25 5
      vertex 0 7.25 7.5
    endloop
  endfacet
  facet normal -1 0 0
    outer loop
      vertex 0 10.5 1
      vertex 0 7.25 7.5
      vertex 0 10.5 7.5
    endloop
  endfacet
  facet normal -1 0 0
    outer loop
      vertex 0 3.25 5
      vertex 0 0 7.5
      vertex 0 3.25 7.5
    endloop
  endfacet
  facet normal 0 0 1
    outer loop
      vertex 1 1 7.5
      vertex 0 0 7.5
      vertex 29 0 7.5
    endloop
  endfacet
  facet normal 0 0 1
    outer loop
      vertex 1 1 7.5
      vertex 1 3.25 7.5
      vertex 0 3.25 7.5
    endloop
  endfacet
  facet normal 0 0 1
    outer loop
      vertex 29 3.25 7.5
      vertex 28 3.25 7.5
      vertex 29 0 7.5
    endloop
  endfacet
  facet normal 0 0 1
    outer loop
      vertex 28 3.25 7.5
      vertex 28 1 7.5
      vertex 29 0 7.5
    endloop
  endfacet
  facet normal 0 0 1
    outer loop
      vertex 0 3.25 7.5
      vertex 0 0 7.5
      vertex 1 1 7.5
    endloop
  endfacet
  facet normal 0 0 1
    outer loop
      vertex 28 1 7.5
      vertex 1 1 7.5
      vertex 29 0 7.5
    endloop
  endfacet
  facet normal 1 0 0
    outer loop
      vertex 29 3.25 5
      vertex 29 0 1
      vertex 29 10.5 1
    endloop
  endfacet
  facet normal 1 0 0
    outer loop
      vertex 29 3.25 5
      vertex 29 3.25 7.5
      vertex 29 0 7.5
    endloop
  endfacet
  facet normal 1 0 0
    outer loop
      vertex 29 10.5 7.5
      vertex 29 7.25 7.5
      vertex 29 10.5 1
    endloop
  endfacet
  facet normal 1 0 0
    outer loop
      vertex 29 7.25 7.5
      vertex 29 7.25 5
      vertex 29 10.5 1
    endloop
  endfacet
  facet normal 1 0 0
    outer loop
      vertex 29 0 7.5
      vertex 29 0 1
      vertex 29 3.25 5
    endloop
  endfacet
  facet normal 1 0 0
    outer loop
      vertex 29 7.25 5
      vertex 29 3.25 5
      vertex 29 10.5 1
    endloop
  endfacet
  facet normal 0 0 1
    outer loop
      vertex 32.5 0 1
      vertex 32.5 10.5 1
      vertex 29 10.5 1
    endloop
  endfacet
  facet normal 0 0 1
    outer loop
      vertex 29 0 1
      vertex 32.5 0 1
      vertex 29 10.5 1
    endloop
  endfacet
  facet normal 1 0 0
    outer loop
      vertex 32.5 0 1
      vertex 32.5 0 -1
      vertex 32.5 10.5 -1
    endloop
  endfacet
  facet normal 1 0 0
    outer loop
      vertex 32.5 10.5 1
      vertex 32.5 0 1
      vertex 32.5 10.5 -1
    endloop
  endfacet
  facet normal 0 0 1
    outer loop
      vertex 0 10.5 7.5
      vertex 0 7.25 7.5
      vertex 1 7.25 7.5
    endloop
  endfacet
  facet normal 0 0 1
    outer loop
      vertex 28 9.5 7.5
      vertex 0 10.5 7.5
      vertex 1 9.5 7.5
    endloop
  endfacet
  facet normal 0 0 1
    outer loop
      vertex 1 9.5 7.5
      vertex 0 10.5 7.5
      vertex 1 7.25 7.5
    endloop
  endfacet
  facet normal 0 0 1
    outer loop
      vertex 29 10.5 7.5
      vertex 0 10.5 7.5
      vertex 28 9.5 7.5
    endloop
  endfacet
  facet normal 0 0 1
    outer loop
      vertex 29 7.25 7.5
      vertex 28 9.5 7.5
      vertex 28 7.25 7.5
    endloop
  endfacet
  facet normal 0 0 1
    outer loop
      vertex 29 10.5 7.5
      vertex 28 9.5 7.5
      vertex 29 7.25 7.5
    endloop
  endfacet
  facet normal 0 -1 0
    outer loop
      vertex 1 7.25 5
      vertex 1 7.25 7.5
      vertex 0 7.25 7.5
    endloop
  endfacet
  facet normal 0 -1 0
    outer loop
      vertex 0 7.25 5
      vertex 1 7.25 5
      vertex 0 7.25 7.5
    endloop
  endfacet
  facet normal 0 0 1
    outer loop
      vertex 1 3.25 5
      vertex 1 7.25 5
      vertex 0 7.25 5
    endloop
  endfacet
  facet normal 0 0 1
    outer loop
      vertex 0 3.25 5
      vertex 1 3.25 5
      vertex 0 7.25 5
    endloop
  endfacet
  facet normal 0 1 0
    outer loop
      vertex 1 3.25 7.5
      vertex 1 3.25 5
      vertex 0 3.25 7.5
    endloop
  endfacet
  facet normal 0 1 0
    outer loop
      vertex 0 3.25 7.5
      vertex 1 3.25 5
      vertex 0 3.25 5
    endloop
  endfacet
  facet normal 1 0 0
    outer loop
      vertex 1 9.5 1
      vertex 1 9.5 7.5
      vertex 1 7.25 7.5
    endloop
  endfacet
  facet normal 1 0 0
    outer loop
      vertex 1 3.25 5
      vertex 1 9.5 1
      vertex 1 7.25 5
    endloop
  endfacet
  facet normal 1 0 0
    outer loop
      vertex 1 7.25 5
      vertex 1 9.5 1
      vertex 1 7.25 7.5
    endloop
  endfacet
  facet normal 1 0 0
    outer loop
      vertex 1 1 1
      vertex 1 9.5 1
      vertex 1 3.25 5
    endloop
  endfacet
  facet normal 1 0 0
    outer loop
      vertex 1 1 7.5
      vertex 1 3.25 5
      vertex 1 3.25 7.5
    endloop
  endfacet
  facet normal 1 0 0
    outer loop
      vertex 1 1 1
      vertex 1 3.25 5
      vertex 1 1 7.5
    endloop
  endfacet
  facet normal 0 1 0
    outer loop
      vertex 28 1 7.5
      vertex 28 1 1
      vertex 1 1 7.5
    endloop
  endfacet
  facet normal 0 1 0
    outer loop
      vertex 1 1 7.5
      vertex 28 1 1
      vertex 1 1 1
    endloop
  endfacet
  facet normal -1 0 0
    outer loop
      vertex 28 3.25 7.5
      vertex 28 3.25 5
      vertex 28 1 7.5
    endloop
  endfacet
  facet normal -1 0 0
    outer loop
      vertex 28 1 1
      vertex 28 3.25 5
      vertex 28 9.5 1
    endloop
  endfacet
  facet normal -1 0 0
    outer loop
      vertex 28 9.5 7.5
      vertex 28 7.25 5
      vertex 28 7.25 7.5
    endloop
  endfacet
  facet normal -1 0 0
    outer loop
      vertex 28 9.5 1
      vertex 28 7.25 5
      vertex 28 9.5 7.5
    endloop
  endfacet
  facet normal -1 0 0
    outer loop
      vertex 28 3.25 5
      vertex 28 7.25 5
      vertex 28 9.5 1
    endloop
  endfacet
  facet normal -1 0 0
    outer loop
      vertex 28 1 7.5
      vertex 28 3.25 5
      vertex 28 1 1
    endloop
  endfacet
  facet normal 0 1 0
    outer loop
      vertex 29 3.25 7.5
      vertex 29 3.25 5
      vertex 28 3.25 7.5
    endloop
  endfacet
  facet normal 0 1 0
    outer loop
      vertex 28 3.25 7.5
      vertex 29 3.25 5
      vertex 28 3.25 5
    endloop
  endfacet
  facet normal 0 0 1
    outer loop
      vertex 29 3.25 5
      vertex 29 7.25 5
      vertex 28 7.25 5
    endloop
  endfacet
  facet normal 0 0 1
    outer loop
      vertex 28 3.25 5
      vertex 29 3.25 5
      vertex 28 7.25 5
    endloop
  endfacet
  facet normal 0 -1 0
    outer loop
      vertex 29 7.25 5
      vertex 29 7.25 7.5
      vertex 28 7.25 7.5
    endloop
  endfacet
  facet normal 0 -1 0
    outer loop
      vertex 28 7.25 5
      vertex 29 7.25 5
      vertex 28 7.25 7.5
    endloop
  endfacet
  facet normal 0 -1 0
    outer loop
      vertex 28 9.5 1
      vertex 28 9.5 7.5
      vertex 1 9.5 7.5
    endloop
  endfacet
  facet normal 0 -1 0
    outer loop
      vertex 1 9.5 1
      vertex 28 9.5 1
      vertex 1 9.5 7.5
    endloop
  endfacet
  facet normal 0 0 1
    outer loop
      vertex 28 1 1
      vertex 28 9.5 1
      vertex 1 9.5 1
    endloop
  endfacet
  facet normal 0 0 1
    outer loop
      vertex 1 1 1
      vertex 28 1 1
      vertex 1 9.5 1
    endloop
  endfacet
endsolid OpenSCAD_Model
