solid OpenSCAD_Model
  facet normal -1 0 0
    outer loop
      vertex 10 -10 0
      vertex 10 -10 5
      vertex 10 10 0
    endloop
  endfacet
  facet normal -1 0 0
    outer loop
      vertex 10 10 0
      vertex 10 -10 5
      vertex 10 10 5
    endloop
  endfacet
  facet normal 0 -1 0
    outer loop
      vertex 10 -10 5
      vertex 10 -10 0
      vertex 22 -10 0
    endloop
  endfacet
  facet normal 0 -1 0
    outer loop
      vertex 22 -10 5
      vertex 10 -10 5
      vertex 22 -10 0
    endloop
  endfacet
  facet normal 0 0 -1
    outer loop
      vertex 19 7.5 0
      vertex 22 -4 0
      vertex 22 -10 0
    endloop
  endfacet
  facet normal 0 0 -1
    outer loop
      vertex 19 7.5 0
      vertex 10 10 0
      vertex 22 10 0
    endloop
  endfacet
  facet normal 0 0 -1
    outer loop
      vertex 13 -7.5 0
      vertex 10 10 0
      vertex 13 7.5 0
    endloop
  endfacet
  facet normal 0 0 -1
    outer loop
      vertex 22 4 0
      vertex 40 4 0
      vertex 22 -4 0
    endloop
  endfacet
  facet normal 0 0 -1
    outer loop
      vertex 40 4 0
      vertex 40 20 0
      vertex 47.9773 20 0
    endloop
  endfacet
  facet normal 0 0 -1
    outer loop
      vertex 40 4 0
      vertex 47.9773 20 0
      vertex 48.3484 19.1425 0
    endloop
  endfacet
  facet normal 0 0 -1
    outer loop
      vertex 40 4 0
      vertex 48.3484 19.1425 0
      vertex 49.4549 16.0689 0
    endloop
  endfacet
  facet normal 0 0 -1
    outer loop
      vertex 40 4 0
      vertex 49.4549 16.0689 0
      vertex 50.3663 12.9319 0
    endloop
  endfacet
  facet normal 0 0 -1
    outer loop
      vertex 40 4 0
      vertex 50.3663 12.9319 0
      vertex 51.0789 9.74383 0
    endloop
  endfacet
  facet normal 0 0 -1
    outer loop
      vertex 40 -4 0
      vertex 51.8974 3.26511 0
      vertex 52 0 0
    endloop
  endfacet
  facet normal 0 0 -1
    outer loop
      vertex 40 -4 0
      vertex 52 0 0
      vertex 51.8974 -3.26511 0
    endloop
  endfacet
  facet normal 0 0 -1
    outer loop
      vertex 22 -4 0
      vertex 40 4 0
      vertex 51.59 6.51733 0
    endloop
  endfacet
  facet normal 0 0 -1
    outer loop
      vertex 22 -4 0
      vertex 51.59 6.51733 0
      vertex 51.8974 3.26511 0
    endloop
  endfacet
  facet normal 0 0 -1
    outer loop
      vertex 22 -4 0
      vertex 51.8974 3.26511 0
      vertex 40 -4 0
    endloop
  endfacet
  facet normal 0 0 -1
    outer loop
      vertex 40 4 0
      vertex 51.0789 9.74383 0
      vertex 51.59 6.51733 0
    endloop
  endfacet
  facet normal 0 0 -1
    outer loop
      vertex 19 7.5 0
      vertex 22 -10 0
      vertex 19 -7.5 0
    endloop
  endfacet
  facet normal 0 0 -1
    outer loop
      vertex 13 7.5 0
      vertex 10 10 0
      vertex 19 7.5 0
    endloop
  endfacet
  facet normal 0 0 -1
    outer loop
      vertex 10 -10 0
      vertex 10 10 0
      vertex 13 -7.5 0
    endloop
  endfacet
  facet normal 0 0 -1
    outer loop
      vertex 10 -10 0
      vertex 13 -7.5 0
      vertex 22 -10 0
    endloop
  endfacet
  facet normal 0 0 -1
    outer loop
      vertex 19 7.5 0
      vertex 22 4 0
      vertex 22 -4 0
    endloop
  endfacet
  facet normal 0 0 -1
    outer loop
      vertex 13 -7.5 0
      vertex 19 -7.5 0
      vertex 22 -10 0
    endloop
  endfacet
  facet normal 0 0 -1
    outer loop
      vertex 22 4 0
      vertex 19 7.5 0
      vertex 22 10 0
    endloop
  endfacet
  facet normal 0 0 -1
    outer loop
      vertex 40 -4 0
      vertex 51.8974 -3.26511 0
      vertex 51.59 -6.51733 0
    endloop
  endfacet
  facet normal 0 0 -1
    outer loop
      vertex 40 -4 0
      vertex 51.59 -6.51733 0
      vertex 51.0789 -9.74383 0
    endloop
  endfacet
  facet normal 0 0 -1
    outer loop
      vertex 40 -4 0
      vertex 51.0789 -9.74383 0
      vertex 50.3663 -12.9319 0
    endloop
  endfacet
  facet normal 0 0 -1
    outer loop
      vertex 40 -4 0
      vertex 50.3663 -12.9319 0
      vertex 49.4549 -16.0689 0
    endloop
  endfacet
  facet normal 0 0 -1
    outer loop
      vertex 40 -4 0
      vertex 49.4549 -16.0689 0
      vertex 48.3484 -19.1425 0
    endloop
  endfacet
  facet normal 0 0 -1
    outer loop
      vertex 40 -4 0
      vertex 48.3484 -19.1425 0
      vertex 47.9773 -20 0
    endloop
  endfacet
  facet normal 0 0 -1
    outer loop
      vertex 40 -4 0
      vertex 47.9773 -20 0
      vertex 40 -20 0
    endloop
  endfacet
  facet normal 0 1 0
    outer loop
      vertex 10 10 0
      vertex 10 10 5
      vertex 22 10 0
    endloop
  endfacet
  facet normal 0 1 0
    outer loop
      vertex 22 10 0
      vertex 10 10 5
      vertex 22 10 5
    endloop
  endfacet
  facet normal 0 0 1
    outer loop
      vertex 13 -7.5 5
      vertex 10 -10 5
      vertex 22 -10 5
    endloop
  endfacet
  facet normal 0 0 1
    outer loop
      vertex 13 7.5 5
      vertex 19 7.5 5
      vertex 10 10 5
    endloop
  endfacet
  facet normal 0 0 1
    outer loop
      vertex 19 7.5 5
      vertex 22 10 5
      vertex 10 10 5
    endloop
  endfacet
  facet normal 0 0 1
    outer loop
      vertex 40 -4 5
      vertex 22 4 5
      vertex 22 -4 5
    endloop
  endfacet
  facet normal 0 0 1
    outer loop
      vertex 19 -7.5 5
      vertex 13 -7.5 5
      vertex 22 -10 5
    endloop
  endfacet
  facet normal 0 0 1
    outer loop
      vertex 10 10 5
      vertex 10 -10 5
      vertex 13 -7.5 5
    endloop
  endfacet
  facet normal 0 0 1
    outer loop
      vertex 19 7.5 5
      vertex 22 -4 5
      vertex 22 4 5
    endloop
  endfacet
  facet normal 0 0 1
    outer loop
      vertex 22 4 5
      vertex 22 10 5
      vertex 19 7.5 5
    endloop
  endfacet
  facet normal 0 0 1
    outer loop
      vertex 19 7.5 5
      vertex 22 -10 5
      vertex 22 -4 5
    endloop
  endfacet
  facet normal 0 0 1
    outer loop
      vertex 19 7.5 5
      vertex 19 -7.5 5
      vertex 22 -10 5
    endloop
  endfacet
  facet normal 0 0 1
    outer loop
      vertex 40 4 5
      vertex 22 4 5
      vertex 40 -4 5
    endloop
  endfacet
  facet normal 0 0 1
    outer loop
      vertex 13 -7.5 5
      vertex 13 7.5 5
      vertex 10 10 5
    endloop
  endfacet
  facet normal 1 0 0
    outer loop
      vertex 22 -10 5
      vertex 22 -10 0
      vertex 22 -4 0
    endloop
  endfacet
  facet normal 1 0 0
    outer loop
      vertex 22 -4 5
      vertex 22 -10 5
      vertex 22 -4 0
    endloop
  endfacet
  facet normal 0 -1 0
    outer loop
      vertex 22 -4 5
      vertex 22 -4 0
      vertex 40 -4 0
    endloop
  endfacet
  facet normal 0 -1 0
    outer loop
      vertex 40 -4 5
      vertex 22 -4 5
      vertex 40 -4 0
    endloop
  endfacet
  facet normal -1 0 0
    outer loop
      vertex 40 -4 5
      vertex 40 -4 0
      vertex 40 -20 5
    endloop
  endfacet
  facet normal -1 0 0
    outer loop
      vertex 40 -20 5
      vertex 40 -4 0
      vertex 40 -20 0
    endloop
  endfacet
  facet normal 0 -1 0
    outer loop
      vertex 47.9773 -20 0
      vertex 47.9773 -20 8
      vertex 45.908 -20 8
    endloop
  endfacet
  facet normal 0 -1 0
    outer loop
      vertex 43.5121 -20 1
      vertex 47.9773 -20 0
      vertex 45.908 -20 1
    endloop
  endfacet
  facet normal 0 -1 0
    outer loop
      vertex 45.908 -20 1
      vertex 47.9773 -20 0
      vertex 45.908 -20 8
    endloop
  endfacet
  facet normal 0 -1 0
    outer loop
      vertex 40 -20 0
      vertex 47.9773 -20 0
      vertex 43.5121 -20 1
    endloop
  endfacet
  facet normal 0 -1 0
    outer loop
      vertex 41.411 -20 8
      vertex 43.5121 -20 1
      vertex 43.5121 -20 8
    endloop
  endfacet
  facet normal 0 -1 0
    outer loop
      vertex 41.411 -20 5
      vertex 43.5121 -20 1
      vertex 41.411 -20 8
    endloop
  endfacet
  facet normal 0 -1 0
    outer loop
      vertex 40 -20 5
      vertex 43.5121 -20 1
      vertex 41.411 -20 5
    endloop
  endfacet
  facet normal 0 -1 0
    outer loop
      vertex 40 -20 0
      vertex 43.5121 -20 1
      vertex 40 -20 5
    endloop
  endfacet
  facet normal 0.917755 -0.397148 0
    outer loop
      vertex 47.9773 -20 8
      vertex 47.9773 -20 0
      vertex 48.3484 -19.1425 0
    endloop
  endfacet
  facet normal 0.917755 -0.397148 0
    outer loop
      vertex 48.3484 -19.1425 8
      vertex 47.9773 -20 8
      vertex 48.3484 -19.1425 0
    endloop
  endfacet
  facet normal 0.940881 -0.338738 0
    outer loop
      vertex 48.3484 -19.1425 8
      vertex 48.3484 -19.1425 0
      vertex 49.4549 -16.0689 0
    endloop
  endfacet
  facet normal 0.940881 -0.338738 0
    outer loop
      vertex 49.4549 -16.0689 8
      vertex 48.3484 -19.1425 8
      vertex 49.4549 -16.0689 0
    endloop
  endfacet
  facet normal 0.960294 -0.278991 0
    outer loop
      vertex 49.4549 -16.0689 8
      vertex 49.4549 -16.0689 0
      vertex 50.3663 -12.9319 0
    endloop
  endfacet
  facet normal 0.960294 -0.278991 0
    outer loop
      vertex 50.3663 -12.9319 8
      vertex 49.4549 -16.0689 8
      vertex 50.3663 -12.9319 0
    endloop
  endfacet
  facet normal 0.975917 -0.218143 0
    outer loop
      vertex 50.3663 -12.9319 8
      vertex 50.3663 -12.9319 0
      vertex 51.0789 -9.74383 0
    endloop
  endfacet
  facet normal 0.975917 -0.218143 0
    outer loop
      vertex 51.0789 -9.74383 8
      vertex 50.3663 -12.9319 8
      vertex 51.0789 -9.74383 0
    endloop
  endfacet
  facet normal 0.987688 -0.156434 0
    outer loop
      vertex 51.0789 -9.74383 8
      vertex 51.0789 -9.74383 0
      vertex 51.59 -6.51733 0
    endloop
  endfacet
  facet normal 0.987688 -0.156434 0
    outer loop
      vertex 51.59 -6.51733 8
      vertex 51.0789 -9.74383 8
      vertex 51.59 -6.51733 0
    endloop
  endfacet
  facet normal 0.995562 -0.0941085 0
    outer loop
      vertex 51.59 -6.51733 8
      vertex 51.59 -6.51733 0
      vertex 51.8974 -3.26511 0
    endloop
  endfacet
  facet normal 0.995562 -0.0941085 0
    outer loop
      vertex 51.8974 -3.26511 8
      vertex 51.59 -6.51733 8
      vertex 51.8974 -3.26511 0
    endloop
  endfacet
  facet normal 0.999507 -0.0314107 0
    outer loop
      vertex 51.8974 -3.26511 8
      vertex 51.8974 -3.26511 0
      vertex 52 0 0
    endloop
  endfacet
  facet normal 0.999507 -0.0314107 0
    outer loop
      vertex 52 0 8
      vertex 51.8974 -3.26511 8
      vertex 52 0 0
    endloop
  endfacet
  facet normal 0.999507 0.0314107 0
    outer loop
      vertex 52 0 0
      vertex 51.8974 3.26511 0
      vertex 51.8974 3.26511 8
    endloop
  endfacet
  facet normal 0.999507 0.0314107 0
    outer loop
      vertex 52 0 8
      vertex 52 0 0
      vertex 51.8974 3.26511 8
    endloop
  endfacet
  facet normal 0.995562 0.0941085 0
    outer loop
      vertex 51.8974 3.26511 0
      vertex 51.59 6.51733 0
      vertex 51.59 6.51733 8
    endloop
  endfacet
  facet normal 0.995562 0.0941085 0
    outer loop
      vertex 51.8974 3.26511 8
      vertex 51.8974 3.26511 0
      vertex 51.59 6.51733 8
    endloop
  endfacet
  facet normal 0.987688 0.156434 0
    outer loop
      vertex 51.59 6.51733 0
      vertex 51.0789 9.74383 0
      vertex 51.0789 9.74383 8
    endloop
  endfacet
  facet normal 0.987688 0.156434 0
    outer loop
      vertex 51.59 6.51733 8
      vertex 51.59 6.51733 0
      vertex 51.0789 9.74383 8
    endloop
  endfacet
  facet normal 0.975917 0.218143 0
    outer loop
      vertex 51.0789 9.74383 0
      vertex 50.3663 12.9319 0
      vertex 50.3663 12.9319 8
    endloop
  endfacet
  facet normal 0.975917 0.218143 0
    outer loop
      vertex 51.0789 9.74383 8
      vertex 51.0789 9.74383 0
      vertex 50.3663 12.9319 8
    endloop
  endfacet
  facet normal 0.960294 0.278991 0
    outer loop
      vertex 50.3663 12.9319 0
      vertex 49.4549 16.0689 0
      vertex 49.4549 16.0689 8
    endloop
  endfacet
  facet normal 0.960294 0.278991 0
    outer loop
      vertex 50.3663 12.9319 8
      vertex 50.3663 12.9319 0
      vertex 49.4549 16.0689 8
    endloop
  endfacet
  facet normal 0.940881 0.338738 0
    outer loop
      vertex 49.4549 16.0689 0
      vertex 48.3484 19.1425 0
      vertex 48.3484 19.1425 8
    endloop
  endfacet
  facet normal 0.940881 0.338738 0
    outer loop
      vertex 49.4549 16.0689 8
      vertex 49.4549 16.0689 0
      vertex 48.3484 19.1425 8
    endloop
  endfacet
  facet normal 0.917755 0.397148 0
    outer loop
      vertex 48.3484 19.1425 0
      vertex 47.9773 20 0
      vertex 47.9773 20 8
    endloop
  endfacet
  facet normal 0.917755 0.397148 0
    outer loop
      vertex 48.3484 19.1425 8
      vertex 48.3484 19.1425 0
      vertex 47.9773 20 8
    endloop
  endfacet
  facet normal 0 1 0
    outer loop
      vertex 41.411 20 5
      vertex 41.411 20 8
      vertex 43.5121 20 8
    endloop
  endfacet
  facet normal 0 1 0
    outer loop
      vertex 41.411 20 5
      vertex 43.5121 20 8
      vertex 43.5121 20 1
    endloop
  endfacet
  facet normal 0 1 0
    outer loop
      vertex 41.411 20 5
      vertex 43.5121 20 1
      vertex 40 20 5
    endloop
  endfacet
  facet normal 0 1 0
    outer loop
      vertex 45.908 20 1
      vertex 45.908 20 8
      vertex 47.9773 20 8
    endloop
  endfacet
  facet normal 0 1 0
    outer loop
      vertex 45.908 20 1
      vertex 47.9773 20 8
      vertex 47.9773 20 0
    endloop
  endfacet
  facet normal 0 1 0
    outer loop
      vertex 45.908 20 1
      vertex 47.9773 20 0
      vertex 43.5121 20 1
    endloop
  endfacet
  facet normal 0 1 0
    outer loop
      vertex 43.5121 20 1
      vertex 47.9773 20 0
      vertex 40 20 0
    endloop
  endfacet
  facet normal 0 1 0
    outer loop
      vertex 43.5121 20 1
      vertex 40 20 0
      vertex 40 20 5
    endloop
  endfacet
  facet normal -1 0 0
    outer loop
      vertex 40 20 5
      vertex 40 20 0
      vertex 40 4 5
    endloop
  endfacet
  facet normal -1 0 0
    outer loop
      vertex 40 4 5
      vertex 40 20 0
      vertex 40 4 0
    endloop
  endfacet
  facet normal 0 1 0
    outer loop
      vertex 22 4 0
      vertex 22 4 5
      vertex 40 4 0
    endloop
  endfacet
  facet normal 0 1 0
    outer loop
      vertex 40 4 0
      vertex 22 4 5
      vertex 40 4 5
    endloop
  endfacet
  facet normal 1 0 0
    outer loop
      vertex 22 4 5
      vertex 22 4 0
      vertex 22 10 0
    endloop
  endfacet
  facet normal 1 0 0
    outer loop
      vertex 22 10 5
      vertex 22 4 5
      vertex 22 10 0
    endloop
  endfacet
  facet normal 1 0 0
    outer loop
      vertex 13 7.5 0
      vertex 13 7.5 5
      vertex 13 -7.5 5
    endloop
  endfacet
  facet normal 1 0 0
    outer loop
      vertex 13 -7.5 0
      vertex 13 7.5 0
      vertex 13 -7.5 5
    endloop
  endfacet
  facet normal 0 -1 0
    outer loop
      vertex 19 7.5 0
      vertex 19 7.5 5
      vertex 13 7.5 5
    endloop
  endfacet
  facet normal 0 -1 0
    outer loop
      vertex 13 7.5 0
      vertex 19 7.5 0
      vertex 13 7.5 5
    endloop
  endfacet
  facet normal -1 0 0
    outer loop
      vertex 19 7.5 5
      vertex 19 7.5 0
      vertex 19 -7.5 5
    endloop
  endfacet
  facet normal -1 0 0
    outer loop
      vertex 19 -7.5 5
      vertex 19 7.5 0
      vertex 19 -7.5 0
    endloop
  endfacet
  facet normal 0 1 0
    outer loop
      vertex 19 -7.5 5
      vertex 19 -7.5 0
      vertex 13 -7.5 5
    endloop
  endfacet
  facet normal 0 1 0
    outer loop
      vertex 13 -7.5 5
      vertex 19 -7.5 0
      vertex 13 -7.5 0
    endloop
  endfacet
  facet normal 0 0 1
    outer loop
      vertex 41.411 -20 5
      vertex 41.622 -19.5858 5
      vertex 42.7697 -16.9337 5
    endloop
  endfacet
  facet normal 0 0 1
    outer loop
      vertex 44.5548 -11.4397 5
      vertex 41.411 -20 5
      vertex 43.7486 -14.2148 5
    endloop
  endfacet
  facet normal 0 0 1
    outer loop
      vertex 43.7486 -14.2148 5
      vertex 41.411 -20 5
      vertex 42.7697 -16.9337 5
    endloop
  endfacet
  facet normal 0 0 1
    outer loop
      vertex 45.1852 -8.61954 5
      vertex 41.411 -20 5
      vertex 44.5548 -11.4397 5
    endloop
  endfacet
  facet normal 0 0 1
    outer loop
      vertex 45.6373 -5.76533 5
      vertex 41.411 -20 5
      vertex 45.1852 -8.61954 5
    endloop
  endfacet
  facet normal 0 0 1
    outer loop
      vertex 45.9092 -2.88836 5
      vertex 41.411 -20 5
      vertex 45.6373 -5.76533 5
    endloop
  endfacet
  facet normal 0 0 1
    outer loop
      vertex 46 0 5
      vertex 41.411 -20 5
      vertex 45.9092 -2.88836 5
    endloop
  endfacet
  facet normal 0 0 1
    outer loop
      vertex 45.9092 2.88836 5
      vertex 41.411 -20 5
      vertex 46 0 5
    endloop
  endfacet
  facet normal 0 0 1
    outer loop
      vertex 45.6373 5.76533 5
      vertex 41.411 -20 5
      vertex 45.9092 2.88836 5
    endloop
  endfacet
  facet normal 0 0 1
    outer loop
      vertex 45.1852 8.61954 5
      vertex 41.411 -20 5
      vertex 45.6373 5.76533 5
    endloop
  endfacet
  facet normal 0 0 1
    outer loop
      vertex 44.5548 11.4397 5
      vertex 41.411 -20 5
      vertex 45.1852 8.61954 5
    endloop
  endfacet
  facet normal 0 0 1
    outer loop
      vertex 43.7486 14.2148 5
      vertex 41.411 -20 5
      vertex 44.5548 11.4397 5
    endloop
  endfacet
  facet normal 0 0 1
    outer loop
      vertex 42.7697 16.9337 5
      vertex 41.411 -20 5
      vertex 43.7486 14.2148 5
    endloop
  endfacet
  facet normal 0 0 1
    outer loop
      vertex 41.622 19.5858 5
      vertex 41.411 -20 5
      vertex 42.7697 16.9337 5
    endloop
  endfacet
  facet normal 0 0 1
    outer loop
      vertex 41.411 20 5
      vertex 41.411 -20 5
      vertex 41.622 19.5858 5
    endloop
  endfacet
  facet normal 0 0 1
    outer loop
      vertex 40 20 5
      vertex 41.411 -20 5
      vertex 41.411 20 5
    endloop
  endfacet
  facet normal 0 0 1
    outer loop
      vertex 40 4 5
      vertex 41.411 -20 5
      vertex 40 20 5
    endloop
  endfacet
  facet normal 0 0 1
    outer loop
      vertex 40 -4 5
      vertex 41.411 -20 5
      vertex 40 4 5
    endloop
  endfacet
  facet normal 0 0 1
    outer loop
      vertex 40 -20 5
      vertex 41.411 -20 5
      vertex 40 -4 5
    endloop
  endfacet
  facet normal -0.891007 0.45399 0
    outer loop
      vertex 41.622 -19.5858 8
      vertex 41.622 -19.5858 5
      vertex 41.411 -20 8
    endloop
  endfacet
  facet normal -0.891007 0.45399 0
    outer loop
      vertex 41.411 -20 8
      vertex 41.622 -19.5858 5
      vertex 41.411 -20 5
    endloop
  endfacet
  facet normal 0 0 1
    outer loop
      vertex 41.622 -19.5858 8
      vertex 41.411 -20 8
      vertex 43.5121 -20 8
    endloop
  endfacet
  facet normal 0 0 1
    outer loop
      vertex 45.5556 -14.8019 8
      vertex 41.622 -19.5858 8
      vertex 44.5363 -17.6332 8
    endloop
  endfacet
  facet normal 0 0 1
    outer loop
      vertex 44.5363 -17.6332 8
      vertex 41.622 -19.5858 8
      vertex 43.5121 -20 8
    endloop
  endfacet
  facet normal 0 0 1
    outer loop
      vertex 42.7697 -16.9337 8
      vertex 41.622 -19.5858 8
      vertex 47.5223 -6.00346 8
    endloop
  endfacet
  facet normal 0 0 1
    outer loop
      vertex 46.3951 -11.9122 8
      vertex 41.622 -19.5858 8
      vertex 45.5556 -14.8019 8
    endloop
  endfacet
  facet normal 0 0 1
    outer loop
      vertex 47.0516 -8.97556 8
      vertex 41.622 -19.5858 8
      vertex 46.3951 -11.9122 8
    endloop
  endfacet
  facet normal 0 0 1
    outer loop
      vertex 47.5223 -6.00346 8
      vertex 41.622 -19.5858 8
      vertex 47.0516 -8.97556 8
    endloop
  endfacet
  facet normal 0 0 1
    outer loop
      vertex 43.7486 -14.2148 8
      vertex 42.7697 -16.9337 8
      vertex 47.5223 -6.00346 8
    endloop
  endfacet
  facet normal 0 0 1
    outer loop
      vertex 44.5548 -11.4397 8
      vertex 43.7486 -14.2148 8
      vertex 47.8055 -3.00767 8
    endloop
  endfacet
  facet normal 0 0 1
    outer loop
      vertex 45.6373 -5.76533 8
      vertex 45.1852 -8.61954 8
      vertex 47.9 0 8
    endloop
  endfacet
  facet normal 0 0 1
    outer loop
      vertex 45.9092 -2.88836 8
      vertex 45.6373 -5.76533 8
      vertex 47.8055 3.00767 8
    endloop
  endfacet
  facet normal 0 0 1
    outer loop
      vertex 46 0 8
      vertex 45.9092 -2.88836 8
      vertex 47.5223 6.00346 8
    endloop
  endfacet
  facet normal 0 0 1
    outer loop
      vertex 45.6373 5.76533 8
      vertex 45.9092 2.88836 8
      vertex 47.0516 8.97556 8
    endloop
  endfacet
  facet normal 0 0 1
    outer loop
      vertex 45.1852 8.61954 8
      vertex 45.6373 5.76533 8
      vertex 46.3951 11.9122 8
    endloop
  endfacet
  facet normal 0 0 1
    outer loop
      vertex 44.5548 11.4397 8
      vertex 45.1852 8.61954 8
      vertex 45.5556 14.8019 8
    endloop
  endfacet
  facet normal 0 0 1
    outer loop
      vertex 43.7486 14.2148 8
      vertex 44.5548 11.4397 8
      vertex 44.5363 17.6332 8
    endloop
  endfacet
  facet normal 0 0 1
    outer loop
      vertex 41.411 20 8
      vertex 41.622 19.5858 8
      vertex 43.5121 20 8
    endloop
  endfacet
  facet normal 0 0 1
    outer loop
      vertex 41.622 19.5858 8
      vertex 42.7697 16.9337 8
      vertex 43.5121 20 8
    endloop
  endfacet
  facet normal 0 0 1
    outer loop
      vertex 43.5121 20 8
      vertex 43.7486 14.2148 8
      vertex 44.5363 17.6332 8
    endloop
  endfacet
  facet normal 0 0 1
    outer loop
      vertex 44.5363 17.6332 8
      vertex 44.5548 11.4397 8
      vertex 45.5556 14.8019 8
    endloop
  endfacet
  facet normal 0 0 1
    outer loop
      vertex 45.5556 14.8019 8
      vertex 45.1852 8.61954 8
      vertex 46.3951 11.9122 8
    endloop
  endfacet
  facet normal 0 0 1
    outer loop
      vertex 46.3951 11.9122 8
      vertex 45.6373 5.76533 8
      vertex 47.0516 8.97556 8
    endloop
  endfacet
  facet normal 0 0 1
    outer loop
      vertex 47.0516 8.97556 8
      vertex 45.9092 2.88836 8
      vertex 47.5223 6.00346 8
    endloop
  endfacet
  facet normal 0 0 1
    outer loop
      vertex 45.9092 2.88836 8
      vertex 46 0 8
      vertex 47.5223 6.00346 8
    endloop
  endfacet
  facet normal 0 0 1
    outer loop
      vertex 47.5223 6.00346 8
      vertex 45.9092 -2.88836 8
      vertex 47.8055 3.00767 8
    endloop
  endfacet
  facet normal 0 0 1
    outer loop
      vertex 47.8055 3.00767 8
      vertex 45.6373 -5.76533 8
      vertex 47.9 0 8
    endloop
  endfacet
  facet normal 0 0 1
    outer loop
      vertex 47.9 0 8
      vertex 45.1852 -8.61954 8
      vertex 47.8055 -3.00767 8
    endloop
  endfacet
  facet normal 0 0 1
    outer loop
      vertex 45.1852 -8.61954 8
      vertex 44.5548 -11.4397 8
      vertex 47.8055 -3.00767 8
    endloop
  endfacet
  facet normal 0 0 1
    outer loop
      vertex 47.8055 -3.00767 8
      vertex 43.7486 -14.2148 8
      vertex 47.5223 -6.00346 8
    endloop
  endfacet
  facet normal 0 0 1
    outer loop
      vertex 42.7697 16.9337 8
      vertex 43.7486 14.2148 8
      vertex 43.5121 20 8
    endloop
  endfacet
  facet normal 0.917755 -0.397148 0
    outer loop
      vertex 43.5121 -20 8
      vertex 43.5121 -20 1
      vertex 44.5363 -17.6332 1
    endloop
  endfacet
  facet normal 0.917755 -0.397148 0
    outer loop
      vertex 44.5363 -17.6332 8
      vertex 43.5121 -20 8
      vertex 44.5363 -17.6332 1
    endloop
  endfacet
  facet normal 0 0 1
    outer loop
      vertex 45.908 -20 1
      vertex 46.5818 -18.443 1
      vertex 47.6479 -15.4818 1
    endloop
  endfacet
  facet normal 0 0 1
    outer loop
      vertex 49.2126 -9.3878 1
      vertex 45.908 -20 1
      vertex 48.526 -12.4594 1
    endloop
  endfacet
  facet normal 0 0 1
    outer loop
      vertex 48.526 -12.4594 1
      vertex 45.908 -20 1
      vertex 47.6479 -15.4818 1
    endloop
  endfacet
  facet normal 0 0 1
    outer loop
      vertex 49.7049 -6.27919 1
      vertex 45.908 -20 1
      vertex 49.2126 -9.3878 1
    endloop
  endfacet
  facet normal 0 0 1
    outer loop
      vertex 50.0011 -3.1458 1
      vertex 45.908 -20 1
      vertex 49.7049 -6.27919 1
    endloop
  endfacet
  facet normal 0 0 1
    outer loop
      vertex 50.1 0 1
      vertex 45.908 -20 1
      vertex 50.0011 -3.1458 1
    endloop
  endfacet
  facet normal 0 0 1
    outer loop
      vertex 50.0011 3.1458 1
      vertex 45.908 -20 1
      vertex 50.1 0 1
    endloop
  endfacet
  facet normal 0 0 1
    outer loop
      vertex 49.7049 6.27919 1
      vertex 45.908 -20 1
      vertex 50.0011 3.1458 1
    endloop
  endfacet
  facet normal 0 0 1
    outer loop
      vertex 47.5223 -6.00346 1
      vertex 45.908 -20 1
      vertex 49.7049 6.27919 1
    endloop
  endfacet
  facet normal 0 0 1
    outer loop
      vertex 47.5223 -6.00346 1
      vertex 47.0516 -8.97556 1
      vertex 45.908 -20 1
    endloop
  endfacet
  facet normal 0 0 1
    outer loop
      vertex 47.8055 -3.00767 1
      vertex 47.5223 -6.00346 1
      vertex 49.2126 9.3878 1
    endloop
  endfacet
  facet normal 0 0 1
    outer loop
      vertex 46.3951 11.9122 1
      vertex 47.0516 8.97556 1
      vertex 46.5818 18.443 1
    endloop
  endfacet
  facet normal 0 0 1
    outer loop
      vertex 43.5121 20 1
      vertex 44.5363 17.6332 1
      vertex 45.908 20 1
    endloop
  endfacet
  facet normal 0 0 1
    outer loop
      vertex 44.5363 17.6332 1
      vertex 45.5556 14.8019 1
      vertex 45.908 20 1
    endloop
  endfacet
  facet normal 0 0 1
    outer loop
      vertex 45.908 20 1
      vertex 46.3951 11.9122 1
      vertex 46.5818 18.443 1
    endloop
  endfacet
  facet normal 0 0 1
    outer loop
      vertex 46.5818 18.443 1
      vertex 47.0516 8.97556 1
      vertex 47.6479 15.4818 1
    endloop
  endfacet
  facet normal 0 0 1
    outer loop
      vertex 47.6479 15.4818 1
      vertex 47.5223 6.00346 1
      vertex 48.526 12.4594 1
    endloop
  endfacet
  facet normal 0 0 1
    outer loop
      vertex 48.526 12.4594 1
      vertex 47.8055 3.00767 1
      vertex 49.2126 9.3878 1
    endloop
  endfacet
  facet normal 0 0 1
    outer loop
      vertex 47.8055 3.00767 1
      vertex 47.9 0 1
      vertex 49.2126 9.3878 1
    endloop
  endfacet
  facet normal 0 0 1
    outer loop
      vertex 47.9 0 1
      vertex 47.8055 -3.00767 1
      vertex 49.2126 9.3878 1
    endloop
  endfacet
  facet normal 0 0 1
    outer loop
      vertex 49.2126 9.3878 1
      vertex 47.5223 -6.00346 1
      vertex 49.7049 6.27919 1
    endloop
  endfacet
  facet normal 0 0 1
    outer loop
      vertex 47.5223 6.00346 1
      vertex 47.8055 3.00767 1
      vertex 48.526 12.4594 1
    endloop
  endfacet
  facet normal 0 0 1
    outer loop
      vertex 44.5363 -17.6332 1
      vertex 45.908 -20 1
      vertex 45.5556 -14.8019 1
    endloop
  endfacet
  facet normal 0 0 1
    outer loop
      vertex 43.5121 -20 1
      vertex 45.908 -20 1
      vertex 44.5363 -17.6332 1
    endloop
  endfacet
  facet normal 0 0 1
    outer loop
      vertex 45.5556 14.8019 1
      vertex 46.3951 11.9122 1
      vertex 45.908 20 1
    endloop
  endfacet
  facet normal 0 0 1
    outer loop
      vertex 47.0516 8.97556 1
      vertex 47.5223 6.00346 1
      vertex 47.6479 15.4818 1
    endloop
  endfacet
  facet normal 0 0 1
    outer loop
      vertex 47.0516 -8.97556 1
      vertex 46.3951 -11.9122 1
      vertex 45.908 -20 1
    endloop
  endfacet
  facet normal 0 0 1
    outer loop
      vertex 46.3951 -11.9122 1
      vertex 45.5556 -14.8019 1
      vertex 45.908 -20 1
    endloop
  endfacet
  facet normal -0.917755 0.397148 0
    outer loop
      vertex 46.5818 -18.443 8
      vertex 46.5818 -18.443 1
      vertex 45.908 -20 8
    endloop
  endfacet
  facet normal -0.917755 0.397148 0
    outer loop
      vertex 45.908 -20 8
      vertex 46.5818 -18.443 1
      vertex 45.908 -20 1
    endloop
  endfacet
  facet normal 0 0 1
    outer loop
      vertex 46.5818 -18.443 8
      vertex 45.908 -20 8
      vertex 47.9773 -20 8
    endloop
  endfacet
  facet normal 0 0 1
    outer loop
      vertex 49.4549 -16.0689 8
      vertex 46.5818 -18.443 8
      vertex 48.3484 -19.1425 8
    endloop
  endfacet
  facet normal 0 0 1
    outer loop
      vertex 48.3484 -19.1425 8
      vertex 46.5818 -18.443 8
      vertex 47.9773 -20 8
    endloop
  endfacet
  facet normal 0 0 1
    outer loop
      vertex 50.3663 -12.9319 8
      vertex 46.5818 -18.443 8
      vertex 49.4549 -16.0689 8
    endloop
  endfacet
  facet normal 0 0 1
    outer loop
      vertex 51.0789 -9.74383 8
      vertex 46.5818 -18.443 8
      vertex 50.3663 -12.9319 8
    endloop
  endfacet
  facet normal 0 0 1
    outer loop
      vertex 51.59 -6.51733 8
      vertex 46.5818 -18.443 8
      vertex 51.0789 -9.74383 8
    endloop
  endfacet
  facet normal 0 0 1
    outer loop
      vertex 47.6479 15.4818 8
      vertex 48.3484 19.1425 8
      vertex 47.9773 20 8
    endloop
  endfacet
  facet normal 0 0 1
    outer loop
      vertex 48.526 -12.4594 8
      vertex 47.6479 -15.4818 8
      vertex 51.8974 -3.26511 8
    endloop
  endfacet
  facet normal 0 0 1
    outer loop
      vertex 49.7049 -6.27919 8
      vertex 49.2126 -9.3878 8
      vertex 52 0 8
    endloop
  endfacet
  facet normal 0 0 1
    outer loop
      vertex 50.0011 -3.1458 8
      vertex 49.7049 -6.27919 8
      vertex 51.8974 3.26511 8
    endloop
  endfacet
  facet normal 0 0 1
    outer loop
      vertex 50.1 0 8
      vertex 50.0011 -3.1458 8
      vertex 51.59 6.51733 8
    endloop
  endfacet
  facet normal 0 0 1
    outer loop
      vertex 49.7049 6.27919 8
      vertex 50.0011 3.1458 8
      vertex 51.0789 9.74383 8
    endloop
  endfacet
  facet normal 0 0 1
    outer loop
      vertex 49.2126 9.3878 8
      vertex 49.7049 6.27919 8
      vertex 50.3663 12.9319 8
    endloop
  endfacet
  facet normal 0 0 1
    outer loop
      vertex 48.526 12.4594 8
      vertex 49.2126 9.3878 8
      vertex 49.4549 16.0689 8
    endloop
  endfacet
  facet normal 0 0 1
    outer loop
      vertex 45.908 20 8
      vertex 46.5818 18.443 8
      vertex 47.9773 20 8
    endloop
  endfacet
  facet normal 0 0 1
    outer loop
      vertex 46.5818 18.443 8
      vertex 47.6479 15.4818 8
      vertex 47.9773 20 8
    endloop
  endfacet
  facet normal 0 0 1
    outer loop
      vertex 48.3484 19.1425 8
      vertex 48.526 12.4594 8
      vertex 49.4549 16.0689 8
    endloop
  endfacet
  facet normal 0 0 1
    outer loop
      vertex 49.4549 16.0689 8
      vertex 49.2126 9.3878 8
      vertex 50.3663 12.9319 8
    endloop
  endfacet
  facet normal 0 0 1
    outer loop
      vertex 50.3663 12.9319 8
      vertex 49.7049 6.27919 8
      vertex 51.0789 9.74383 8
    endloop
  endfacet
  facet normal 0 0 1
    outer loop
      vertex 51.0789 9.74383 8
      vertex 50.0011 3.1458 8
      vertex 51.59 6.51733 8
    endloop
  endfacet
  facet normal 0 0 1
    outer loop
      vertex 50.0011 3.1458 8
      vertex 50.1 0 8
      vertex 51.59 6.51733 8
    endloop
  endfacet
  facet normal 0 0 1
    outer loop
      vertex 51.59 6.51733 8
      vertex 50.0011 -3.1458 8
      vertex 51.8974 3.26511 8
    endloop
  endfacet
  facet normal 0 0 1
    outer loop
      vertex 51.8974 3.26511 8
      vertex 49.7049 -6.27919 8
      vertex 52 0 8
    endloop
  endfacet
  facet normal 0 0 1
    outer loop
      vertex 52 0 8
      vertex 49.2126 -9.3878 8
      vertex 51.8974 -3.26511 8
    endloop
  endfacet
  facet normal 0 0 1
    outer loop
      vertex 49.2126 -9.3878 8
      vertex 48.526 -12.4594 8
      vertex 51.8974 -3.26511 8
    endloop
  endfacet
  facet normal 0 0 1
    outer loop
      vertex 51.8974 -3.26511 8
      vertex 47.6479 -15.4818 8
      vertex 51.59 -6.51733 8
    endloop
  endfacet
  facet normal 0 0 1
    outer loop
      vertex 47.6479 -15.4818 8
      vertex 46.5818 -18.443 8
      vertex 51.59 -6.51733 8
    endloop
  endfacet
  facet normal 0 0 1
    outer loop
      vertex 47.6479 15.4818 8
      vertex 48.526 12.4594 8
      vertex 48.3484 19.1425 8
    endloop
  endfacet
  facet normal -0.917755 -0.397148 0
    outer loop
      vertex 46.5818 18.443 8
      vertex 45.908 20 8
      vertex 46.5818 18.443 1
    endloop
  endfacet
  facet normal -0.917755 -0.397148 0
    outer loop
      vertex 46.5818 18.443 1
      vertex 45.908 20 8
      vertex 45.908 20 1
    endloop
  endfacet
  facet normal 0.917755 0.397148 0
    outer loop
      vertex 44.5363 17.6332 1
      vertex 43.5121 20 1
      vertex 43.5121 20 8
    endloop
  endfacet
  facet normal 0.917755 0.397148 0
    outer loop
      vertex 44.5363 17.6332 8
      vertex 44.5363 17.6332 1
      vertex 43.5121 20 8
    endloop
  endfacet
  facet normal -0.891007 -0.45399 0
    outer loop
      vertex 41.622 19.5858 8
      vertex 41.411 20 8
      vertex 41.622 19.5858 5
    endloop
  endfacet
  facet normal -0.891007 -0.45399 0
    outer loop
      vertex 41.622 19.5858 5
      vertex 41.411 20 8
      vertex 41.411 20 5
    endloop
  endfacet
  facet normal -0.917755 -0.397148 0
    outer loop
      vertex 42.7697 16.9337 8
      vertex 41.622 19.5858 8
      vertex 42.7697 16.9337 5
    endloop
  endfacet
  facet normal -0.917755 -0.397148 0
    outer loop
      vertex 42.7697 16.9337 5
      vertex 41.622 19.5858 8
      vertex 41.622 19.5858 5
    endloop
  endfacet
  facet normal -0.940881 -0.338738 0
    outer loop
      vertex 43.7486 14.2148 8
      vertex 42.7697 16.9337 8
      vertex 43.7486 14.2148 5
    endloop
  endfacet
  facet normal -0.940881 -0.338738 0
    outer loop
      vertex 43.7486 14.2148 5
      vertex 42.7697 16.9337 8
      vertex 42.7697 16.9337 5
    endloop
  endfacet
  facet normal -0.960294 -0.278991 0
    outer loop
      vertex 44.5548 11.4397 8
      vertex 43.7486 14.2148 8
      vertex 44.5548 11.4397 5
    endloop
  endfacet
  facet normal -0.960294 -0.278991 0
    outer loop
      vertex 44.5548 11.4397 5
      vertex 43.7486 14.2148 8
      vertex 43.7486 14.2148 5
    endloop
  endfacet
  facet normal -0.975917 -0.218143 0
    outer loop
      vertex 45.1852 8.61954 8
      vertex 44.5548 11.4397 8
      vertex 45.1852 8.61954 5
    endloop
  endfacet
  facet normal -0.975917 -0.218143 0
    outer loop
      vertex 45.1852 8.61954 5
      vertex 44.5548 11.4397 8
      vertex 44.5548 11.4397 5
    endloop
  endfacet
  facet normal -0.987688 -0.156434 0
    outer loop
      vertex 45.6373 5.76533 8
      vertex 45.1852 8.61954 8
      vertex 45.6373 5.76533 5
    endloop
  endfacet
  facet normal -0.987688 -0.156434 0
    outer loop
      vertex 45.6373 5.76533 5
      vertex 45.1852 8.61954 8
      vertex 45.1852 8.61954 5
    endloop
  endfacet
  facet normal -0.995562 -0.0941086 0
    outer loop
      vertex 45.9092 2.88836 8
      vertex 45.6373 5.76533 8
      vertex 45.9092 2.88836 5
    endloop
  endfacet
  facet normal -0.995562 -0.0941086 0
    outer loop
      vertex 45.9092 2.88836 5
      vertex 45.6373 5.76533 8
      vertex 45.6373 5.76533 5
    endloop
  endfacet
  facet normal -0.999507 -0.0314106 0
    outer loop
      vertex 46 0 8
      vertex 45.9092 2.88836 8
      vertex 46 0 5
    endloop
  endfacet
  facet normal -0.999507 -0.0314106 0
    outer loop
      vertex 46 0 5
      vertex 45.9092 2.88836 8
      vertex 45.9092 2.88836 5
    endloop
  endfacet
  facet normal -0.999507 0.0314106 0
    outer loop
      vertex 46 0 8
      vertex 46 0 5
      vertex 45.9092 -2.88836 8
    endloop
  endfacet
  facet normal -0.999507 0.0314106 0
    outer loop
      vertex 45.9092 -2.88836 8
      vertex 46 0 5
      vertex 45.9092 -2.88836 5
    endloop
  endfacet
  facet normal -0.995562 0.0941086 0
    outer loop
      vertex 45.9092 -2.88836 8
      vertex 45.9092 -2.88836 5
      vertex 45.6373 -5.76533 8
    endloop
  endfacet
  facet normal -0.995562 0.0941086 0
    outer loop
      vertex 45.6373 -5.76533 8
      vertex 45.9092 -2.88836 5
      vertex 45.6373 -5.76533 5
    endloop
  endfacet
  facet normal -0.987688 0.156434 0
    outer loop
      vertex 45.6373 -5.76533 8
      vertex 45.6373 -5.76533 5
      vertex 45.1852 -8.61954 8
    endloop
  endfacet
  facet normal -0.987688 0.156434 0
    outer loop
      vertex 45.1852 -8.61954 8
      vertex 45.6373 -5.76533 5
      vertex 45.1852 -8.61954 5
    endloop
  endfacet
  facet normal -0.975917 0.218143 0
    outer loop
      vertex 45.1852 -8.61954 8
      vertex 45.1852 -8.61954 5
      vertex 44.5548 -11.4397 8
    endloop
  endfacet
  facet normal -0.975917 0.218143 0
    outer loop
      vertex 44.5548 -11.4397 8
      vertex 45.1852 -8.61954 5
      vertex 44.5548 -11.4397 5
    endloop
  endfacet
  facet normal -0.960294 0.278991 0
    outer loop
      vertex 44.5548 -11.4397 8
      vertex 44.5548 -11.4397 5
      vertex 43.7486 -14.2148 8
    endloop
  endfacet
  facet normal -0.960294 0.278991 0
    outer loop
      vertex 43.7486 -14.2148 8
      vertex 44.5548 -11.4397 5
      vertex 43.7486 -14.2148 5
    endloop
  endfacet
  facet normal -0.940881 0.338738 0
    outer loop
      vertex 43.7486 -14.2148 8
      vertex 43.7486 -14.2148 5
      vertex 42.7697 -16.9337 8
    endloop
  endfacet
  facet normal -0.940881 0.338738 0
    outer loop
      vertex 42.7697 -16.9337 8
      vertex 43.7486 -14.2148 5
      vertex 42.7697 -16.9337 5
    endloop
  endfacet
  facet normal -0.917755 0.397148 0
    outer loop
      vertex 42.7697 -16.9337 8
      vertex 42.7697 -16.9337 5
      vertex 41.622 -19.5858 8
    endloop
  endfacet
  facet normal -0.917755 0.397148 0
    outer loop
      vertex 41.622 -19.5858 8
      vertex 42.7697 -16.9337 5
      vertex 41.622 -19.5858 5
    endloop
  endfacet
  facet normal 0.940881 0.338738 0
    outer loop
      vertex 45.5556 14.8019 1
      vertex 44.5363 17.6332 1
      vertex 44.5363 17.6332 8
    endloop
  endfacet
  facet normal 0.940881 0.338738 0
    outer loop
      vertex 45.5556 14.8019 8
      vertex 45.5556 14.8019 1
      vertex 44.5363 17.6332 8
    endloop
  endfacet
  facet normal 0.960294 0.278991 0
    outer loop
      vertex 46.3951 11.9122 1
      vertex 45.5556 14.8019 1
      vertex 45.5556 14.8019 8
    endloop
  endfacet
  facet normal 0.960294 0.278991 0
    outer loop
      vertex 46.3951 11.9122 8
      vertex 46.3951 11.9122 1
      vertex 45.5556 14.8019 8
    endloop
  endfacet
  facet normal 0.975917 0.218143 0
    outer loop
      vertex 47.0516 8.97556 1
      vertex 46.3951 11.9122 1
      vertex 46.3951 11.9122 8
    endloop
  endfacet
  facet normal 0.975917 0.218143 0
    outer loop
      vertex 47.0516 8.97556 8
      vertex 47.0516 8.97556 1
      vertex 46.3951 11.9122 8
    endloop
  endfacet
  facet normal 0.987688 0.156435 0
    outer loop
      vertex 47.5223 6.00346 1
      vertex 47.0516 8.97556 1
      vertex 47.0516 8.97556 8
    endloop
  endfacet
  facet normal 0.987688 0.156435 0
    outer loop
      vertex 47.5223 6.00346 8
      vertex 47.5223 6.00346 1
      vertex 47.0516 8.97556 8
    endloop
  endfacet
  facet normal 0.995562 0.0941083 0
    outer loop
      vertex 47.8055 3.00767 1
      vertex 47.5223 6.00346 1
      vertex 47.5223 6.00346 8
    endloop
  endfacet
  facet normal 0.995562 0.0941083 0
    outer loop
      vertex 47.8055 3.00767 8
      vertex 47.8055 3.00767 1
      vertex 47.5223 6.00346 8
    endloop
  endfacet
  facet normal 0.999507 0.0314109 0
    outer loop
      vertex 47.9 0 1
      vertex 47.8055 3.00767 1
      vertex 47.8055 3.00767 8
    endloop
  endfacet
  facet normal 0.999507 0.0314109 0
    outer loop
      vertex 47.9 0 8
      vertex 47.9 0 1
      vertex 47.8055 3.00767 8
    endloop
  endfacet
  facet normal 0.999507 -0.0314109 0
    outer loop
      vertex 47.8055 -3.00767 8
      vertex 47.8055 -3.00767 1
      vertex 47.9 0 1
    endloop
  endfacet
  facet normal 0.999507 -0.0314109 0
    outer loop
      vertex 47.9 0 8
      vertex 47.8055 -3.00767 8
      vertex 47.9 0 1
    endloop
  endfacet
  facet normal 0.995562 -0.0941083 0
    outer loop
      vertex 47.5223 -6.00346 8
      vertex 47.5223 -6.00346 1
      vertex 47.8055 -3.00767 1
    endloop
  endfacet
  facet normal 0.995562 -0.0941083 0
    outer loop
      vertex 47.8055 -3.00767 8
      vertex 47.5223 -6.00346 8
      vertex 47.8055 -3.00767 1
    endloop
  endfacet
  facet normal 0.987688 -0.156435 0
    outer loop
      vertex 47.0516 -8.97556 8
      vertex 47.0516 -8.97556 1
      vertex 47.5223 -6.00346 1
    endloop
  endfacet
  facet normal 0.987688 -0.156435 0
    outer loop
      vertex 47.5223 -6.00346 8
      vertex 47.0516 -8.97556 8
      vertex 47.5223 -6.00346 1
    endloop
  endfacet
  facet normal 0.975917 -0.218143 0
    outer loop
      vertex 46.3951 -11.9122 8
      vertex 46.3951 -11.9122 1
      vertex 47.0516 -8.97556 1
    endloop
  endfacet
  facet normal 0.975917 -0.218143 0
    outer loop
      vertex 47.0516 -8.97556 8
      vertex 46.3951 -11.9122 8
      vertex 47.0516 -8.97556 1
    endloop
  endfacet
  facet normal 0.960294 -0.278991 0
    outer loop
      vertex 45.5556 -14.8019 8
      vertex 45.5556 -14.8019 1
      vertex 46.3951 -11.9122 1
    endloop
  endfacet
  facet normal 0.960294 -0.278991 0
    outer loop
      vertex 46.3951 -11.9122 8
      vertex 45.5556 -14.8019 8
      vertex 46.3951 -11.9122 1
    endloop
  endfacet
  facet normal 0.940881 -0.338738 0
    outer loop
      vertex 44.5363 -17.6332 8
      vertex 44.5363 -17.6332 1
      vertex 45.5556 -14.8019 1
    endloop
  endfacet
  facet normal 0.940881 -0.338738 0
    outer loop
      vertex 45.5556 -14.8019 8
      vertex 44.5363 -17.6332 8
      vertex 45.5556 -14.8019 1
    endloop
  endfacet
  facet normal -0.940881 -0.338738 0
    outer loop
      vertex 47.6479 15.4818 8
      vertex 46.5818 18.443 8
      vertex 47.6479 15.4818 1
    endloop
  endfacet
  facet normal -0.940881 -0.338738 0
    outer loop
      vertex 47.6479 15.4818 1
      vertex 46.5818 18.443 8
      vertex 46.5818 18.443 1
    endloop
  endfacet
  facet normal -0.960294 -0.278991 0
    outer loop
      vertex 48.526 12.4594 8
      vertex 47.6479 15.4818 8
      vertex 48.526 12.4594 1
    endloop
  endfacet
  facet normal -0.960294 -0.278991 0
    outer loop
      vertex 48.526 12.4594 1
      vertex 47.6479 15.4818 8
      vertex 47.6479 15.4818 1
    endloop
  endfacet
  facet normal -0.975917 -0.218143 0
    outer loop
      vertex 49.2126 9.3878 8
      vertex 48.526 12.4594 8
      vertex 49.2126 9.3878 1
    endloop
  endfacet
  facet normal -0.975917 -0.218143 0
    outer loop
      vertex 49.2126 9.3878 1
      vertex 48.526 12.4594 8
      vertex 48.526 12.4594 1
    endloop
  endfacet
  facet normal -0.987688 -0.156435 0
    outer loop
      vertex 49.7049 6.27919 8
      vertex 49.2126 9.3878 8
      vertex 49.7049 6.27919 1
    endloop
  endfacet
  facet normal -0.987688 -0.156435 0
    outer loop
      vertex 49.7049 6.27919 1
      vertex 49.2126 9.3878 8
      vertex 49.2126 9.3878 1
    endloop
  endfacet
  facet normal -0.995562 -0.0941081 0
    outer loop
      vertex 50.0011 3.1458 8
      vertex 49.7049 6.27919 8
      vertex 50.0011 3.1458 1
    endloop
  endfacet
  facet normal -0.995562 -0.0941081 0
    outer loop
      vertex 50.0011 3.1458 1
      vertex 49.7049 6.27919 8
      vertex 49.7049 6.27919 1
    endloop
  endfacet
  facet normal -0.999507 -0.0314108 0
    outer loop
      vertex 50.1 0 8
      vertex 50.0011 3.1458 8
      vertex 50.1 0 1
    endloop
  endfacet
  facet normal -0.999507 -0.0314108 0
    outer loop
      vertex 50.1 0 1
      vertex 50.0011 3.1458 8
      vertex 50.0011 3.1458 1
    endloop
  endfacet
  facet normal -0.999507 0.0314108 0
    outer loop
      vertex 50.1 0 8
      vertex 50.1 0 1
      vertex 50.0011 -3.1458 8
    endloop
  endfacet
  facet normal -0.999507 0.0314108 0
    outer loop
      vertex 50.0011 -3.1458 8
      vertex 50.1 0 1
      vertex 50.0011 -3.1458 1
    endloop
  endfacet
  facet normal -0.995562 0.0941081 0
    outer loop
      vertex 50.0011 -3.1458 8
      vertex 50.0011 -3.1458 1
      vertex 49.7049 -6.27919 8
    endloop
  endfacet
  facet normal -0.995562 0.0941081 0
    outer loop
      vertex 49.7049 -6.27919 8
      vertex 50.0011 -3.1458 1
      vertex 49.7049 -6.27919 1
    endloop
  endfacet
  facet normal -0.987688 0.156435 0
    outer loop
      vertex 49.7049 -6.27919 8
      vertex 49.7049 -6.27919 1
      vertex 49.2126 -9.3878 8
    endloop
  endfacet
  facet normal -0.987688 0.156435 0
    outer loop
      vertex 49.2126 -9.3878 8
      vertex 49.7049 -6.27919 1
      vertex 49.2126 -9.3878 1
    endloop
  endfacet
  facet normal -0.975917 0.218143 0
    outer loop
      vertex 49.2126 -9.3878 8
      vertex 49.2126 -9.3878 1
      vertex 48.526 -12.4594 8
    endloop
  endfacet
  facet normal -0.975917 0.218143 0
    outer loop
      vertex 48.526 -12.4594 8
      vertex 49.2126 -9.3878 1
      vertex 48.526 -12.4594 1
    endloop
  endfacet
  facet normal -0.960294 0.278991 0
    outer loop
      vertex 48.526 -12.4594 8
      vertex 48.526 -12.4594 1
      vertex 47.6479 -15.4818 8
    endloop
  endfacet
  facet normal -0.960294 0.278991 0
    outer loop
      vertex 47.6479 -15.4818 8
      vertex 48.526 -12.4594 1
      vertex 47.6479 -15.4818 1
    endloop
  endfacet
  facet normal -0.940881 0.338738 0
    outer loop
      vertex 47.6479 -15.4818 8
      vertex 47.6479 -15.4818 1
      vertex 46.5818 -18.443 8
    endloop
  endfacet
  facet normal -0.940881 0.338738 0
    outer loop
      vertex 46.5818 -18.443 8
      vertex 47.6479 -15.4818 1
      vertex 46.5818 -18.443 1
    endloop
  endfacet
endsolid OpenSCAD_Model
