solid OpenSCAD_Model
  facet normal -2.22045e-016 0 -1
    outer loop
      vertex -2.22045e-016 0 -1
      vertex -7 0 -1
      vertex -2.22045e-016 9 -1
    endloop
  endfacet
  facet normal -2.22045e-016 0 -1
    outer loop
      vertex -2.22045e-016 9 -1
      vertex -7 0 -1
      vertex -7 9 -1
    endloop
  endfacet
  facet normal 0 -1 0
    outer loop
      vertex -7 0 -1
      vertex -2.22045e-016 0 -1
      vertex 2.22045e-017 0 0.1
    endloop
  endfacet
  facet normal 0 -1 0
    outer loop
      vertex -5.5 0 3
      vertex -7 0 -1
      vertex -5.5 0 0.1
    endloop
  endfacet
  facet normal 0 -1 0
    outer loop
      vertex -5.5 0 0.1
      vertex -7 0 -1
      vertex 2.22045e-017 0 0.1
    endloop
  endfacet
  facet normal 0 -1 0
    outer loop
      vertex -7 0 3
      vertex -7 0 -1
      vertex -5.5 0 3
    endloop
  endfacet
  facet normal 1 0 -2.22045e-016
    outer loop
      vertex 2.22045e-017 0 0.1
      vertex -2.22045e-016 0 -1
      vertex -2.22045e-016 9 -1
    endloop
  endfacet
  facet normal 1 0 -2.22045e-016
    outer loop
      vertex 2.22045e-017 0.1 0.1
      vertex 2.22045e-017 0 0.1
      vertex -2.22045e-016 9 -1
    endloop
  endfacet
  facet normal 1 0 -2.22045e-016
    outer loop
      vertex 2.22045e-017 8.80955 0.1
      vertex 2.22045e-017 0.1 0.1
      vertex -2.22045e-016 9 -1
    endloop
  endfacet
  facet normal 1 0 -2.22045e-016
    outer loop
      vertex 2.22045e-017 9 0.1
      vertex 2.22045e-017 8.80955 0.1
      vertex -2.22045e-016 9 -1
    endloop
  endfacet
  facet normal 1 0 -2.22045e-016
    outer loop
      vertex 6.66134e-016 5.90955 3
      vertex 2.22045e-017 0.1 0.1
      vertex 2.22045e-017 8.80955 0.1
    endloop
  endfacet
  facet normal 1 0 -2.22045e-016
    outer loop
      vertex 6.66134e-016 3 3
      vertex 2.22045e-017 0.1 0.1
      vertex 6.66134e-016 5.90955 3
    endloop
  endfacet
  facet normal 0 1 0
    outer loop
      vertex -2.22045e-016 9 -1
      vertex -7 9 -1
      vertex 2.22045e-017 9 0.1
    endloop
  endfacet
  facet normal 0 1 0
    outer loop
      vertex -5.5 9 0.1
      vertex -7 9 -1
      vertex -7 9 3
    endloop
  endfacet
  facet normal 0 1 0
    outer loop
      vertex 2.22045e-017 9 0.1
      vertex -7 9 -1
      vertex -5.5 9 0.1
    endloop
  endfacet
  facet normal 0 1 0
    outer loop
      vertex -5.5 9 0.1
      vertex -7 9 3
      vertex -5.5 9 3
    endloop
  endfacet
  facet normal -1 0 2.22045e-016
    outer loop
      vertex -7 0 -1
      vertex -7 0 3
      vertex -7 9 -1
    endloop
  endfacet
  facet normal -1 0 2.22045e-016
    outer loop
      vertex -7 9 -1
      vertex -7 0 3
      vertex -7 9 3
    endloop
  endfacet
  facet normal 2.22045e-016 0 1
    outer loop
      vertex -7 0 3
      vertex -5.5 0 3
      vertex -5.5 9 3
    endloop
  endfacet
  facet normal 2.22045e-016 0 1
    outer loop
      vertex -7 9 3
      vertex -7 0 3
      vertex -5.5 9 3
    endloop
  endfacet
  facet normal 1 0 -2.22045e-016
    outer loop
      vertex -5.5 9 0.1
      vertex -5.5 9 3
      vertex -5.5 0 3
    endloop
  endfacet
  facet normal 1 0 -2.22045e-016
    outer loop
      vertex -5.5 0 0.1
      vertex -5.5 9 0.1
      vertex -5.5 0 3
    endloop
  endfacet
  facet normal 2.22045e-016 0 1
    outer loop
      vertex -5.5 9 0.1
      vertex -1.5 0.1 0.1
      vertex -1.5 8.80955 0.1
    endloop
  endfacet
  facet normal 2.22045e-016 0 1
    outer loop
      vertex 2.22045e-017 0.1 0.1
      vertex -1.5 0.1 0.1
      vertex -5.5 0 0.1
    endloop
  endfacet
  facet normal 2.22045e-016 0 1
    outer loop
      vertex 2.22045e-017 8.80955 0.1
      vertex 2.22045e-017 9 0.1
      vertex -1.5 8.80955 0.1
    endloop
  endfacet
  facet normal 2.22045e-016 0 1
    outer loop
      vertex 2.22045e-017 9 0.1
      vertex -5.5 9 0.1
      vertex -1.5 8.80955 0.1
    endloop
  endfacet
  facet normal 2.22045e-016 0 1
    outer loop
      vertex -5.5 9 0.1
      vertex -5.5 0 0.1
      vertex -1.5 0.1 0.1
    endloop
  endfacet
  facet normal 2.22045e-016 0 1
    outer loop
      vertex -5.5 0 0.1
      vertex 2.22045e-017 0 0.1
      vertex 2.22045e-017 0.1 0.1
    endloop
  endfacet
  facet normal 1.57009e-016 -0.707107 0.707107
    outer loop
      vertex -1.5 0.1 0.1
      vertex 2.22045e-017 0.1 0.1
      vertex 6.66134e-016 3 3
    endloop
  endfacet
  facet normal 1.57009e-016 -0.707107 0.707107
    outer loop
      vertex -1.5 3 3
      vertex -1.5 0.1 0.1
      vertex 6.66134e-016 3 3
    endloop
  endfacet
  facet normal 2.22045e-016 0 1
    outer loop
      vertex 6.66134e-016 5.90955 3
      vertex -1.5 5.90955 3
      vertex -1.5 3 3
    endloop
  endfacet
  facet normal 2.22045e-016 0 1
    outer loop
      vertex 6.66134e-016 3 3
      vertex 6.66134e-016 5.90955 3
      vertex -1.5 3 3
    endloop
  endfacet
  facet normal 1.57009e-016 0.707107 0.707107
    outer loop
      vertex 2.22045e-017 8.80955 0.1
      vertex -1.5 8.80955 0.1
      vertex 6.66134e-016 5.90955 3
    endloop
  endfacet
  facet normal 1.57009e-016 0.707107 0.707107
    outer loop
      vertex 6.66134e-016 5.90955 3
      vertex -1.5 8.80955 0.1
      vertex -1.5 5.90955 3
    endloop
  endfacet
  facet normal -1 0 2.22045e-016
    outer loop
      vertex -1.5 0.1 0.1
      vertex -1.5 3 3
      vertex -1.5 8.80955 0.1
    endloop
  endfacet
  facet normal -1 0 2.22045e-016
    outer loop
      vertex -1.5 8.80955 0.1
      vertex -1.5 3 3
      vertex -1.5 5.90955 3
    endloop
  endfacet
endsolid OpenSCAD_Model
