solid OpenSCAD_Model
  facet normal -1 0 0
    outer loop
      vertex -1 1 0
      vertex -1 1 3.5
      vertex -1 13.5 0
    endloop
  endfacet
  facet normal -1 0 0
    outer loop
      vertex -1 13.5 0
      vertex -1 1 3.5
      vertex -1 13.5 3.5
    endloop
  endfacet
  facet normal 0 -1 0
    outer loop
      vertex -1 1 3.5
      vertex -1 1 0
      vertex 0 1 0
    endloop
  endfacet
  facet normal 0 -1 0
    outer loop
      vertex 0 1 3.5
      vertex -1 1 3.5
      vertex 0 1 0
    endloop
  endfacet
  facet normal 0 0 -1
    outer loop
      vertex -1 1 0
      vertex -1 13.5 0
      vertex 0 1 0
    endloop
  endfacet
  facet normal 0 0 -1
    outer loop
      vertex 0 11.25 0
      vertex -1 13.5 0
      vertex 0 13.5 0
    endloop
  endfacet
  facet normal 0 0 -1
    outer loop
      vertex 0 1 0
      vertex -1 13.5 0
      vertex 0 3.25 0
    endloop
  endfacet
  facet normal 0 0 -1
    outer loop
      vertex 1 11.25 0
      vertex 1 13.5 0
      vertex 29 13.5 0
    endloop
  endfacet
  facet normal 0 0 -1
    outer loop
      vertex 0 3.25 0
      vertex 1 11.25 0
      vertex 1 3.25 0
    endloop
  endfacet
  facet normal 0 0 -1
    outer loop
      vertex 30 11.25 0
      vertex 30 13.5 0
      vertex 31 13.5 0
    endloop
  endfacet
  facet normal 0 0 -1
    outer loop
      vertex 30 11.25 0
      vertex 31 13.5 0
      vertex 31 1 0
    endloop
  endfacet
  facet normal 0 0 -1
    outer loop
      vertex 30 3.25 0
      vertex 31 1 0
      vertex 30 1 0
    endloop
  endfacet
  facet normal 0 0 -1
    outer loop
      vertex 30 11.25 0
      vertex 31 1 0
      vertex 30 3.25 0
    endloop
  endfacet
  facet normal 0 0 -1
    outer loop
      vertex 1 3.25 0
      vertex 30 11.25 0
      vertex 29 3.25 0
    endloop
  endfacet
  facet normal 0 0 -1
    outer loop
      vertex 30 11.25 0
      vertex 30 3.25 0
      vertex 29 3.25 0
    endloop
  endfacet
  facet normal 0 0 -1
    outer loop
      vertex 1 3.25 0
      vertex 29 13.5 0
      vertex 29 11.25 0
    endloop
  endfacet
  facet normal 0 0 -1
    outer loop
      vertex 1 3.25 0
      vertex 29 11.25 0
      vertex 30 11.25 0
    endloop
  endfacet
  facet normal 0 0 -1
    outer loop
      vertex 1 11.25 0
      vertex 29 13.5 0
      vertex 1 3.25 0
    endloop
  endfacet
  facet normal 0 0 -1
    outer loop
      vertex 0 11.25 0
      vertex 1 11.25 0
      vertex 0 3.25 0
    endloop
  endfacet
  facet normal 0 0 -1
    outer loop
      vertex 0 11.25 0
      vertex 0 3.25 0
      vertex -1 13.5 0
    endloop
  endfacet
  facet normal 0 0 -1
    outer loop
      vertex 29 1 0
      vertex 1 1 0
      vertex 29 3.25 0
    endloop
  endfacet
  facet normal 0 0 -1
    outer loop
      vertex 1 3.25 0
      vertex 29 3.25 0
      vertex 1 1 0
    endloop
  endfacet
  facet normal 0 1 0
    outer loop
      vertex -1 13.5 0
      vertex -1 13.5 3.5
      vertex 0 13.5 0
    endloop
  endfacet
  facet normal 0 1 0
    outer loop
      vertex 0 13.5 0
      vertex -1 13.5 3.5
      vertex 0 13.5 3.5
    endloop
  endfacet
  facet normal 0 0 1
    outer loop
      vertex -1 13.5 3.5
      vertex -1 1 3.5
      vertex 0 1 3.5
    endloop
  endfacet
  facet normal 0 0 1
    outer loop
      vertex 1 3.25 3.5
      vertex -1 13.5 3.5
      vertex 0 3.25 3.5
    endloop
  endfacet
  facet normal 0 0 1
    outer loop
      vertex 0 3.25 3.5
      vertex -1 13.5 3.5
      vertex 0 1 3.5
    endloop
  endfacet
  facet normal 0 0 1
    outer loop
      vertex 0 11.25 3.5
      vertex -1 13.5 3.5
      vertex 1 3.25 3.5
    endloop
  endfacet
  facet normal 0 0 1
    outer loop
      vertex 1 11.25 3.5
      vertex 0 11.25 3.5
      vertex 1 3.25 3.5
    endloop
  endfacet
  facet normal 0 0 1
    outer loop
      vertex 0 11.25 3.5
      vertex 0 13.5 3.5
      vertex -1 13.5 3.5
    endloop
  endfacet
  facet normal 1 0 0
    outer loop
      vertex 0 3.25 0
      vertex 0 3.25 3.5
      vertex 0 1 3.5
    endloop
  endfacet
  facet normal 1 0 0
    outer loop
      vertex 0 1 0
      vertex 0 3.25 0
      vertex 0 1 3.5
    endloop
  endfacet
  facet normal 0 -1 0
    outer loop
      vertex 0 3.25 3.5
      vertex 0 3.25 0
      vertex 1 3.25 0
    endloop
  endfacet
  facet normal 0 -1 0
    outer loop
      vertex 1 3.25 3.5
      vertex 0 3.25 3.5
      vertex 1 3.25 2
    endloop
  endfacet
  facet normal 0 -1 0
    outer loop
      vertex 1 3.25 2
      vertex 0 3.25 3.5
      vertex 1 3.25 0
    endloop
  endfacet
  facet normal -1 0 0
    outer loop
      vertex 1 1 0
      vertex 1 1 1
      vertex 1 3.25 0
    endloop
  endfacet
  facet normal -1 0 0
    outer loop
      vertex 1 3.25 0
      vertex 1 1 1
      vertex 1 2 1
    endloop
  endfacet
  facet normal -1 0 0
    outer loop
      vertex 1 3.25 0
      vertex 1 2 1
      vertex 1 2 2
    endloop
  endfacet
  facet normal -1 0 0
    outer loop
      vertex 1 3.25 0
      vertex 1 2 2
      vertex 1 3.25 2
    endloop
  endfacet
  facet normal 0 -1 0
    outer loop
      vertex 1 1 1
      vertex 1 1 0
      vertex 29 1 0
    endloop
  endfacet
  facet normal 0 -1 0
    outer loop
      vertex 29 1 1
      vertex 1 1 1
      vertex 29 1 0
    endloop
  endfacet
  facet normal 1 0 0
    outer loop
      vertex 29 1 1
      vertex 29 1 0
      vertex 29 3.25 0
    endloop
  endfacet
  facet normal 1 0 0
    outer loop
      vertex 29 2 1
      vertex 29 1 1
      vertex 29 3.25 0
    endloop
  endfacet
  facet normal 1 0 0
    outer loop
      vertex 29 3.25 2
      vertex 29 2 1
      vertex 29 3.25 0
    endloop
  endfacet
  facet normal 1 0 0
    outer loop
      vertex 29 2 2
      vertex 29 2 1
      vertex 29 3.25 2
    endloop
  endfacet
  facet normal 0 -1 0
    outer loop
      vertex 29 3.25 2
      vertex 29 3.25 0
      vertex 30 3.25 0
    endloop
  endfacet
  facet normal 0 -1 0
    outer loop
      vertex 29 3.25 3.5
      vertex 29 3.25 2
      vertex 30 3.25 3.5
    endloop
  endfacet
  facet normal 0 -1 0
    outer loop
      vertex 30 3.25 3.5
      vertex 29 3.25 2
      vertex 30 3.25 0
    endloop
  endfacet
  facet normal -1 0 0
    outer loop
      vertex 30 3.25 3.5
      vertex 30 3.25 0
      vertex 30 1 3.5
    endloop
  endfacet
  facet normal -1 0 0
    outer loop
      vertex 30 1 3.5
      vertex 30 3.25 0
      vertex 30 1 0
    endloop
  endfacet
  facet normal 0 -1 0
    outer loop
      vertex 30 1 3.5
      vertex 30 1 0
      vertex 31 1 0
    endloop
  endfacet
  facet normal 0 -1 0
    outer loop
      vertex 31 1 3.5
      vertex 30 1 3.5
      vertex 31 1 0
    endloop
  endfacet
  facet normal 1 0 0
    outer loop
      vertex 31 1 3.5
      vertex 31 1 0
      vertex 31 13.5 0
    endloop
  endfacet
  facet normal 1 0 0
    outer loop
      vertex 31 13.5 3.5
      vertex 31 1 3.5
      vertex 31 13.5 0
    endloop
  endfacet
  facet normal 0 1 0
    outer loop
      vertex 30 13.5 0
      vertex 30 13.5 3.5
      vertex 31 13.5 0
    endloop
  endfacet
  facet normal 0 1 0
    outer loop
      vertex 31 13.5 0
      vertex 30 13.5 3.5
      vertex 31 13.5 3.5
    endloop
  endfacet
  facet normal -1 0 0
    outer loop
      vertex 30 13.5 3.5
      vertex 30 13.5 0
      vertex 30 11.25 3.5
    endloop
  endfacet
  facet normal -1 0 0
    outer loop
      vertex 30 11.25 3.5
      vertex 30 13.5 0
      vertex 30 11.25 0
    endloop
  endfacet
  facet normal 0 1 0
    outer loop
      vertex 29 11.25 0
      vertex 29 11.25 2
      vertex 30 11.25 0
    endloop
  endfacet
  facet normal 0 1 0
    outer loop
      vertex 30 11.25 0
      vertex 29 11.25 2
      vertex 29 11.25 3.5
    endloop
  endfacet
  facet normal 0 1 0
    outer loop
      vertex 30 11.25 0
      vertex 29 11.25 3.5
      vertex 30 11.25 3.5
    endloop
  endfacet
  facet normal 1 0 0
    outer loop
      vertex 29 11.25 2
      vertex 29 11.25 0
      vertex 29 13.5 0
    endloop
  endfacet
  facet normal 1 0 0
    outer loop
      vertex 29 12.5 1
      vertex 29 11.25 2
      vertex 29 13.5 0
    endloop
  endfacet
  facet normal 1 0 0
    outer loop
      vertex 29 13.5 1
      vertex 29 12.5 1
      vertex 29 13.5 0
    endloop
  endfacet
  facet normal 1 0 0
    outer loop
      vertex 29 12.5 1
      vertex 29 12.5 2
      vertex 29 11.25 2
    endloop
  endfacet
  facet normal 0 1 0
    outer loop
      vertex 1 13.5 0
      vertex 1 13.5 1
      vertex 29 13.5 0
    endloop
  endfacet
  facet normal 0 1 0
    outer loop
      vertex 29 13.5 0
      vertex 1 13.5 1
      vertex 29 13.5 1
    endloop
  endfacet
  facet normal -1 0 0
    outer loop
      vertex 1 11.25 0
      vertex 1 11.25 2
      vertex 1 13.5 0
    endloop
  endfacet
  facet normal -1 0 0
    outer loop
      vertex 1 12.5 1
      vertex 1 11.25 2
      vertex 1 12.5 2
    endloop
  endfacet
  facet normal -1 0 0
    outer loop
      vertex 1 13.5 0
      vertex 1 11.25 2
      vertex 1 12.5 1
    endloop
  endfacet
  facet normal -1 0 0
    outer loop
      vertex 1 13.5 1
      vertex 1 13.5 0
      vertex 1 12.5 1
    endloop
  endfacet
  facet normal 0 1 0
    outer loop
      vertex 0 11.25 0
      vertex 0 11.25 3.5
      vertex 1 11.25 0
    endloop
  endfacet
  facet normal 0 1 0
    outer loop
      vertex 1 11.25 2
      vertex 0 11.25 3.5
      vertex 1 11.25 3.5
    endloop
  endfacet
  facet normal 0 1 0
    outer loop
      vertex 1 11.25 0
      vertex 0 11.25 3.5
      vertex 1 11.25 2
    endloop
  endfacet
  facet normal 1 0 0
    outer loop
      vertex 0 13.5 0
      vertex 0 13.5 3.5
      vertex 0 11.25 3.5
    endloop
  endfacet
  facet normal 1 0 0
    outer loop
      vertex 0 11.25 0
      vertex 0 13.5 0
      vertex 0 11.25 3.5
    endloop
  endfacet
  facet normal 1 0 0
    outer loop
      vertex 1 11.25 2
      vertex 1 11.25 3.5
      vertex 1 3.25 3.5
    endloop
  endfacet
  facet normal 1 0 0
    outer loop
      vertex 1 3.25 2
      vertex 1 11.25 2
      vertex 1 3.25 3.5
    endloop
  endfacet
  facet normal 0 0 1
    outer loop
      vertex 1 3.25 2
      vertex 1 2 2
      vertex 2.5 2 2
    endloop
  endfacet
  facet normal 0 0 1
    outer loop
      vertex 1 11.25 2
      vertex 1 3.25 2
      vertex 2.5 12.5 2
    endloop
  endfacet
  facet normal 0 0 1
    outer loop
      vertex 2.5 12.5 2
      vertex 1 3.25 2
      vertex 2.5 2 2
    endloop
  endfacet
  facet normal 0 0 1
    outer loop
      vertex 1 12.5 2
      vertex 1 11.25 2
      vertex 2.5 12.5 2
    endloop
  endfacet
  facet normal 0 -1 0
    outer loop
      vertex 1 2 2
      vertex 1 2 1
      vertex 2.5 2 1
    endloop
  endfacet
  facet normal 0 -1 0
    outer loop
      vertex 2.5 2 2
      vertex 1 2 2
      vertex 2.5 2 1
    endloop
  endfacet
  facet normal 0 0 1
    outer loop
      vertex 1 2 1
      vertex 1 1 1
      vertex 29 1 1
    endloop
  endfacet
  facet normal 0 0 1
    outer loop
      vertex 2.5 2 1
      vertex 1 2 1
      vertex 29 1 1
    endloop
  endfacet
  facet normal 0 0 1
    outer loop
      vertex 27.5 2 1
      vertex 2.5 2 1
      vertex 29 1 1
    endloop
  endfacet
  facet normal 0 0 1
    outer loop
      vertex 29 2 1
      vertex 27.5 2 1
      vertex 29 1 1
    endloop
  endfacet
  facet normal 0 0 1
    outer loop
      vertex 29 12.5 1
      vertex 29 13.5 1
      vertex 27.5 12.5 1
    endloop
  endfacet
  facet normal 0 0 1
    outer loop
      vertex 29 13.5 1
      vertex 1 13.5 1
      vertex 1 12.5 1
    endloop
  endfacet
  facet normal 0 0 1
    outer loop
      vertex 29 13.5 1
      vertex 1 12.5 1
      vertex 2.5 12.5 1
    endloop
  endfacet
  facet normal 0 0 1
    outer loop
      vertex 27.5 12.5 1
      vertex 2.5 2 1
      vertex 27.5 2 1
    endloop
  endfacet
  facet normal 0 0 1
    outer loop
      vertex 2.5 12.5 1
      vertex 27.5 12.5 1
      vertex 29 13.5 1
    endloop
  endfacet
  facet normal 0 0 1
    outer loop
      vertex 2.5 12.5 1
      vertex 2.5 2 1
      vertex 27.5 12.5 1
    endloop
  endfacet
  facet normal 0 -1 0
    outer loop
      vertex 27.5 2 2
      vertex 27.5 2 1
      vertex 29 2 1
    endloop
  endfacet
  facet normal 0 -1 0
    outer loop
      vertex 29 2 2
      vertex 27.5 2 2
      vertex 29 2 1
    endloop
  endfacet
  facet normal 0 0 1
    outer loop
      vertex 27.5 12.5 2
      vertex 27.5 2 2
      vertex 29 2 2
    endloop
  endfacet
  facet normal 0 0 1
    outer loop
      vertex 29 11.25 2
      vertex 27.5 12.5 2
      vertex 29 3.25 2
    endloop
  endfacet
  facet normal 0 0 1
    outer loop
      vertex 29 3.25 2
      vertex 27.5 12.5 2
      vertex 29 2 2
    endloop
  endfacet
  facet normal 0 0 1
    outer loop
      vertex 29 12.5 2
      vertex 27.5 12.5 2
      vertex 29 11.25 2
    endloop
  endfacet
  facet normal -1 0 0
    outer loop
      vertex 29 11.25 3.5
      vertex 29 11.25 2
      vertex 29 3.25 3.5
    endloop
  endfacet
  facet normal -1 0 0
    outer loop
      vertex 29 3.25 3.5
      vertex 29 11.25 2
      vertex 29 3.25 2
    endloop
  endfacet
  facet normal 0 0 1
    outer loop
      vertex 29 11.25 3.5
      vertex 29 3.25 3.5
      vertex 30 3.25 3.5
    endloop
  endfacet
  facet normal 0 0 1
    outer loop
      vertex 31 1 3.5
      vertex 29 11.25 3.5
      vertex 30 3.25 3.5
    endloop
  endfacet
  facet normal 0 0 1
    outer loop
      vertex 30 1 3.5
      vertex 31 1 3.5
      vertex 30 3.25 3.5
    endloop
  endfacet
  facet normal 0 0 1
    outer loop
      vertex 31 1 3.5
      vertex 30 11.25 3.5
      vertex 29 11.25 3.5
    endloop
  endfacet
  facet normal 0 0 1
    outer loop
      vertex 31 1 3.5
      vertex 31 13.5 3.5
      vertex 30 11.25 3.5
    endloop
  endfacet
  facet normal 0 0 1
    outer loop
      vertex 30 13.5 3.5
      vertex 30 11.25 3.5
      vertex 31 13.5 3.5
    endloop
  endfacet
  facet normal 0 1 0
    outer loop
      vertex 27.5 12.5 1
      vertex 27.5 12.5 2
      vertex 29 12.5 1
    endloop
  endfacet
  facet normal 0 1 0
    outer loop
      vertex 29 12.5 1
      vertex 27.5 12.5 2
      vertex 29 12.5 2
    endloop
  endfacet
  facet normal 0 1 0
    outer loop
      vertex 1 12.5 1
      vertex 1 12.5 2
      vertex 2.5 12.5 1
    endloop
  endfacet
  facet normal 0 1 0
    outer loop
      vertex 2.5 12.5 1
      vertex 1 12.5 2
      vertex 2.5 12.5 2
    endloop
  endfacet
  facet normal 1 0 0
    outer loop
      vertex 2.5 12.5 1
      vertex 2.5 12.5 2
      vertex 2.5 2 2
    endloop
  endfacet
  facet normal 1 0 0
    outer loop
      vertex 2.5 2 1
      vertex 2.5 12.5 1
      vertex 2.5 2 2
    endloop
  endfacet
  facet normal -1 0 0
    outer loop
      vertex 27.5 12.5 2
      vertex 27.5 12.5 1
      vertex 27.5 2 2
    endloop
  endfacet
  facet normal -1 0 0
    outer loop
      vertex 27.5 2 2
      vertex 27.5 12.5 1
      vertex 27.5 2 1
    endloop
  endfacet
endsolid OpenSCAD_Model
