solid OpenSCAD_Model
  facet normal -1 0 0
    outer loop
      vertex 0 0 0
      vertex 0 0 5
      vertex 0 8 1
    endloop
  endfacet
  facet normal -1 0 0
    outer loop
      vertex 0 0 0
      vertex 0 8 1
      vertex 0 31 0
    endloop
  endfacet
  facet normal -1 0 0
    outer loop
      vertex 0 22.5 5
      vertex 0 31 0
      vertex 0 22.5 1
    endloop
  endfacet
  facet normal -1 0 0
    outer loop
      vertex 0 8 1
      vertex 0 22.5 1
      vertex 0 31 0
    endloop
  endfacet
  facet normal -1 0 0
    outer loop
      vertex 0 31 0
      vertex 0 22.5 5
      vertex 0 31 5
    endloop
  endfacet
  facet normal -1 0 0
    outer loop
      vertex 0 8 1
      vertex 0 0 5
      vertex 0 8 5
    endloop
  endfacet
  facet normal 0 -1 0
    outer loop
      vertex 8.25 0 2.5
      vertex 0 0 0
      vertex 20.5 0 0
    endloop
  endfacet
  facet normal 0 -1 0
    outer loop
      vertex 8.25 0 2.5
      vertex 8.25 0 5
      vertex 0 0 5
    endloop
  endfacet
  facet normal 0 -1 0
    outer loop
      vertex 20.5 0 5
      vertex 12.25 0 5
      vertex 20.5 0 0
    endloop
  endfacet
  facet normal 0 -1 0
    outer loop
      vertex 12.25 0 5
      vertex 12.25 0 2.5
      vertex 20.5 0 0
    endloop
  endfacet
  facet normal 0 -1 0
    outer loop
      vertex 0 0 5
      vertex 0 0 0
      vertex 8.25 0 2.5
    endloop
  endfacet
  facet normal 0 -1 0
    outer loop
      vertex 12.25 0 2.5
      vertex 8.25 0 2.5
      vertex 20.5 0 0
    endloop
  endfacet
  facet normal 0 0 -1
    outer loop
      vertex 0 0 0
      vertex 0 31 0
      vertex 20.5 0 0
    endloop
  endfacet
  facet normal 0 0 -1
    outer loop
      vertex 20.5 19.25 0
      vertex 0 31 0
      vertex 20.5 31 0
    endloop
  endfacet
  facet normal 0 0 -1
    outer loop
      vertex 20.5 0 0
      vertex 0 31 0
      vertex 20.5 19.25 0
    endloop
  endfacet
  facet normal 0 1 0
    outer loop
      vertex 12.25 31 5
      vertex 20.5 31 0
      vertex 12.25 31 2.5
    endloop
  endfacet
  facet normal 0 1 0
    outer loop
      vertex 0 31 0
      vertex 0 31 5
      vertex 8.25 31 2.5
    endloop
  endfacet
  facet normal 0 1 0
    outer loop
      vertex 0 31 0
      vertex 8.25 31 2.5
      vertex 20.5 31 0
    endloop
  endfacet
  facet normal 0 1 0
    outer loop
      vertex 20.5 31 0
      vertex 12.25 31 5
      vertex 20.5 31 5
    endloop
  endfacet
  facet normal 0 1 0
    outer loop
      vertex 8.25 31 2.5
      vertex 0 31 5
      vertex 8.25 31 5
    endloop
  endfacet
  facet normal 0 1 0
    outer loop
      vertex 12.25 31 2.5
      vertex 20.5 31 0
      vertex 8.25 31 2.5
    endloop
  endfacet
  facet normal 0 0 1
    outer loop
      vertex 0 31 5
      vertex 0 22.5 5
      vertex 1 22.5 5
    endloop
  endfacet
  facet normal 0 0 1
    outer loop
      vertex 8.25 30 5
      vertex 0 31 5
      vertex 1 30 5
    endloop
  endfacet
  facet normal 0 0 1
    outer loop
      vertex 1 30 5
      vertex 0 31 5
      vertex 1 22.5 5
    endloop
  endfacet
  facet normal 0 0 1
    outer loop
      vertex 8.25 31 5
      vertex 0 31 5
      vertex 8.25 30 5
    endloop
  endfacet
  facet normal 0 -1 0
    outer loop
      vertex 1 22.5 1
      vertex 1 22.5 5
      vertex 0 22.5 5
    endloop
  endfacet
  facet normal 0 -1 0
    outer loop
      vertex 0 22.5 1
      vertex 1 22.5 1
      vertex 0 22.5 5
    endloop
  endfacet
  facet normal 0 0 1
    outer loop
      vertex 1 8 1
      vertex 1 1 1
      vertex 19.5 1 1
    endloop
  endfacet
  facet normal 0 0 1
    outer loop
      vertex 19.5 19.25 1
      vertex 1 8 1
      vertex 19.5 11.75 1
    endloop
  endfacet
  facet normal 0 0 1
    outer loop
      vertex 19.5 11.75 1
      vertex 1 8 1
      vertex 19.5 1 1
    endloop
  endfacet
  facet normal 0 0 1
    outer loop
      vertex 19.5 30 1
      vertex 1 8 1
      vertex 19.5 19.25 1
    endloop
  endfacet
  facet normal 0 0 1
    outer loop
      vertex 1 22.5 1
      vertex 1 8 1
      vertex 19.5 30 1
    endloop
  endfacet
  facet normal 0 0 1
    outer loop
      vertex 0 22.5 1
      vertex 1 8 1
      vertex 1 22.5 1
    endloop
  endfacet
  facet normal 0 0 1
    outer loop
      vertex 1 30 1
      vertex 1 22.5 1
      vertex 19.5 30 1
    endloop
  endfacet
  facet normal 0 0 1
    outer loop
      vertex 0 8 1
      vertex 1 8 1
      vertex 0 22.5 1
    endloop
  endfacet
  facet normal 0 1 0
    outer loop
      vertex 1 8 5
      vertex 1 8 1
      vertex 0 8 5
    endloop
  endfacet
  facet normal 0 1 0
    outer loop
      vertex 0 8 5
      vertex 1 8 1
      vertex 0 8 1
    endloop
  endfacet
  facet normal 0 0 1
    outer loop
      vertex 1 1 5
      vertex 0 0 5
      vertex 8.25 0 5
    endloop
  endfacet
  facet normal 0 0 1
    outer loop
      vertex 1 1 5
      vertex 1 8 5
      vertex 0 8 5
    endloop
  endfacet
  facet normal 0 0 1
    outer loop
      vertex 0 8 5
      vertex 0 0 5
      vertex 1 1 5
    endloop
  endfacet
  facet normal 0 0 1
    outer loop
      vertex 8.25 1 5
      vertex 1 1 5
      vertex 8.25 0 5
    endloop
  endfacet
  facet normal 1 0 0
    outer loop
      vertex 8.25 1 2.5
      vertex 8.25 1 5
      vertex 8.25 0 5
    endloop
  endfacet
  facet normal 1 0 0
    outer loop
      vertex 8.25 0 2.5
      vertex 8.25 1 2.5
      vertex 8.25 0 5
    endloop
  endfacet
  facet normal 0 0 1
    outer loop
      vertex 12.25 0 2.5
      vertex 12.25 1 2.5
      vertex 8.25 1 2.5
    endloop
  endfacet
  facet normal 0 0 1
    outer loop
      vertex 8.25 0 2.5
      vertex 12.25 0 2.5
      vertex 8.25 1 2.5
    endloop
  endfacet
  facet normal -1 0 0
    outer loop
      vertex 12.25 1 5
      vertex 12.25 1 2.5
      vertex 12.25 0 5
    endloop
  endfacet
  facet normal -1 0 0
    outer loop
      vertex 12.25 0 5
      vertex 12.25 1 2.5
      vertex 12.25 0 2.5
    endloop
  endfacet
  facet normal 0 0 1
    outer loop
      vertex 12.25 1 5
      vertex 12.25 0 5
      vertex 20.5 0 5
    endloop
  endfacet
  facet normal 0 0 1
    outer loop
      vertex 16.5 1 5
      vertex 12.25 1 5
      vertex 20.5 0 5
    endloop
  endfacet
  facet normal 0 0 1
    outer loop
      vertex 20.5 11.75 5
      vertex 19.5 5 5
      vertex 20.5 0 5
    endloop
  endfacet
  facet normal 0 0 1
    outer loop
      vertex 16.5 5 5
      vertex 16.5 1 5
      vertex 19.5 5 5
    endloop
  endfacet
  facet normal 0 0 1
    outer loop
      vertex 19.5 5 5
      vertex 16.5 1 5
      vertex 20.5 0 5
    endloop
  endfacet
  facet normal 0 0 1
    outer loop
      vertex 19.5 11.75 5
      vertex 19.5 5 5
      vertex 20.5 11.75 5
    endloop
  endfacet
  facet normal 1 0 0
    outer loop
      vertex 20.5 11.75 1.66533e-015
      vertex 20.5 0 0
      vertex 20.5 19.25 0
    endloop
  endfacet
  facet normal 1 0 0
    outer loop
      vertex 20.5 0 5
      vertex 20.5 0 0
      vertex 20.5 11.75 1.66533e-015
    endloop
  endfacet
  facet normal 1 0 0
    outer loop
      vertex 20.5 11.75 1.66533e-015
      vertex 20.5 11.75 5
      vertex 20.5 0 5
    endloop
  endfacet
  facet normal 0 -2.22045e-016 -1
    outer loop
      vertex 29.5 14 1.16573e-015
      vertex 29.5 11.75 1.66533e-015
      vertex 21.5 14 1.16573e-015
    endloop
  endfacet
  facet normal 0 -2.22045e-016 -1
    outer loop
      vertex 29.5 17 4.996e-016
      vertex 20.5 19.25 0
      vertex 29.5 19.25 0
    endloop
  endfacet
  facet normal 0 -2.22045e-016 -1
    outer loop
      vertex 20.5 11.75 1.66533e-015
      vertex 20.5 19.25 0
      vertex 21.5 17 4.996e-016
    endloop
  endfacet
  facet normal 0 -2.22045e-016 -1
    outer loop
      vertex 20.5 11.75 1.66533e-015
      vertex 21.5 17 4.996e-016
      vertex 21.5 14 1.16573e-015
    endloop
  endfacet
  facet normal 0 -2.22045e-016 -1
    outer loop
      vertex 20.5 11.75 1.66533e-015
      vertex 21.5 14 1.16573e-015
      vertex 29.5 11.75 1.66533e-015
    endloop
  endfacet
  facet normal 0 -2.22045e-016 -1
    outer loop
      vertex 21.5 17 4.996e-016
      vertex 20.5 19.25 0
      vertex 29.5 17 4.996e-016
    endloop
  endfacet
  facet normal 0 1 -2.22045e-016
    outer loop
      vertex 20.5 19.25 0
      vertex 20.5 19.25 5
      vertex 29.5 19.25 0
    endloop
  endfacet
  facet normal 0 1 -2.22045e-016
    outer loop
      vertex 29.5 19.25 0
      vertex 20.5 19.25 5
      vertex 29.5 19.25 5
    endloop
  endfacet
  facet normal 1 0 0
    outer loop
      vertex 20.5 19.25 5
      vertex 20.5 19.25 0
      vertex 20.5 31 0
    endloop
  endfacet
  facet normal 1 0 0
    outer loop
      vertex 20.5 31 5
      vertex 20.5 19.25 5
      vertex 20.5 31 0
    endloop
  endfacet
  facet normal 0 0 1
    outer loop
      vertex 19.5 26 5
      vertex 20.5 31 5
      vertex 16.5 30 5
    endloop
  endfacet
  facet normal 0 0 1
    outer loop
      vertex 12.25 31 5
      vertex 12.25 30 5
      vertex 16.5 30 5
    endloop
  endfacet
  facet normal 0 0 1
    outer loop
      vertex 20.5 31 5
      vertex 12.25 31 5
      vertex 16.5 30 5
    endloop
  endfacet
  facet normal 0 0 1
    outer loop
      vertex 16.5 26 5
      vertex 19.5 26 5
      vertex 16.5 30 5
    endloop
  endfacet
  facet normal 0 0 1
    outer loop
      vertex 19.5 19.25 5
      vertex 20.5 19.25 5
      vertex 19.5 26 5
    endloop
  endfacet
  facet normal 0 0 1
    outer loop
      vertex 20.5 19.25 5
      vertex 20.5 31 5
      vertex 19.5 26 5
    endloop
  endfacet
  facet normal -1 0 0
    outer loop
      vertex 12.25 31 5
      vertex 12.25 31 2.5
      vertex 12.25 30 5
    endloop
  endfacet
  facet normal -1 0 0
    outer loop
      vertex 12.25 30 5
      vertex 12.25 31 2.5
      vertex 12.25 30 2.5
    endloop
  endfacet
  facet normal 0 0 1
    outer loop
      vertex 12.25 30 2.5
      vertex 12.25 31 2.5
      vertex 8.25 31 2.5
    endloop
  endfacet
  facet normal 0 0 1
    outer loop
      vertex 8.25 30 2.5
      vertex 12.25 30 2.5
      vertex 8.25 31 2.5
    endloop
  endfacet
  facet normal 1 0 0
    outer loop
      vertex 8.25 31 2.5
      vertex 8.25 31 5
      vertex 8.25 30 5
    endloop
  endfacet
  facet normal 1 0 0
    outer loop
      vertex 8.25 30 2.5
      vertex 8.25 31 2.5
      vertex 8.25 30 5
    endloop
  endfacet
  facet normal 0 -1 0
    outer loop
      vertex 12.25 30 2.5
      vertex 8.25 30 2.5
      vertex 19.5 30 1
    endloop
  endfacet
  facet normal 0 -1 0
    outer loop
      vertex 19.5 30 1
      vertex 19.5 30 3
      vertex 16.5 30 3
    endloop
  endfacet
  facet normal 0 -1 0
    outer loop
      vertex 12.25 30 5
      vertex 19.5 30 1
      vertex 16.5 30 3
    endloop
  endfacet
  facet normal 0 -1 0
    outer loop
      vertex 16.5 30 5
      vertex 12.25 30 5
      vertex 16.5 30 3
    endloop
  endfacet
  facet normal 0 -1 0
    outer loop
      vertex 12.25 30 5
      vertex 12.25 30 2.5
      vertex 19.5 30 1
    endloop
  endfacet
  facet normal 0 -1 0
    outer loop
      vertex 8.25 30 2.5
      vertex 1 30 1
      vertex 19.5 30 1
    endloop
  endfacet
  facet normal 0 -1 0
    outer loop
      vertex 8.25 30 5
      vertex 1 30 5
      vertex 8.25 30 2.5
    endloop
  endfacet
  facet normal 0 -1 0
    outer loop
      vertex 1 30 5
      vertex 1 30 1
      vertex 8.25 30 2.5
    endloop
  endfacet
  facet normal 1 0 0
    outer loop
      vertex 1 30 1
      vertex 1 30 5
      vertex 1 22.5 5
    endloop
  endfacet
  facet normal 1 0 0
    outer loop
      vertex 1 22.5 1
      vertex 1 30 1
      vertex 1 22.5 5
    endloop
  endfacet
  facet normal 1 0 0
    outer loop
      vertex 1 8 1
      vertex 1 8 5
      vertex 1 1 5
    endloop
  endfacet
  facet normal 1 0 0
    outer loop
      vertex 1 1 1
      vertex 1 8 1
      vertex 1 1 5
    endloop
  endfacet
  facet normal -1 0 0
    outer loop
      vertex 19.5 26 5
      vertex 19.5 26 3
      vertex 19.5 19.25 5
    endloop
  endfacet
  facet normal -1 0 0
    outer loop
      vertex 19.5 30 1
      vertex 19.5 26 3
      vertex 19.5 30 3
    endloop
  endfacet
  facet normal -1 0 0
    outer loop
      vertex 19.5 19.25 5
      vertex 19.5 26 3
      vertex 19.5 30 1
    endloop
  endfacet
  facet normal -1 0 0
    outer loop
      vertex 19.5 19.25 5
      vertex 19.5 30 1
      vertex 19.5 19.25 1
    endloop
  endfacet
  facet normal -1 0 0
    outer loop
      vertex 19.5 11.75 5
      vertex 19.5 19.25 5
      vertex 19.5 19.25 1
    endloop
  endfacet
  facet normal -1 0 0
    outer loop
      vertex 19.5 11.75 5
      vertex 19.5 19.25 1
      vertex 19.5 11.75 1
    endloop
  endfacet
  facet normal -1 0 0
    outer loop
      vertex 19.5 5 3
      vertex 19.5 5 5
      vertex 19.5 11.75 5
    endloop
  endfacet
  facet normal -1 0 0
    outer loop
      vertex 19.5 5 3
      vertex 19.5 11.75 5
      vertex 19.5 11.75 1
    endloop
  endfacet
  facet normal -1 0 0
    outer loop
      vertex 19.5 5 3
      vertex 19.5 11.75 1
      vertex 19.5 1 3
    endloop
  endfacet
  facet normal -1 0 0
    outer loop
      vertex 19.5 11.75 1
      vertex 19.5 1 1
      vertex 19.5 1 3
    endloop
  endfacet
  facet normal 0 1 0
    outer loop
      vertex 8.25 1 5
      vertex 8.25 1 2.5
      vertex 1 1 5
    endloop
  endfacet
  facet normal 0 1 0
    outer loop
      vertex 1 1 1
      vertex 8.25 1 2.5
      vertex 19.5 1 1
    endloop
  endfacet
  facet normal 0 1 0
    outer loop
      vertex 16.5 1 5
      vertex 12.25 1 2.5
      vertex 12.25 1 5
    endloop
  endfacet
  facet normal 0 1 0
    outer loop
      vertex 16.5 1 3
      vertex 12.25 1 2.5
      vertex 16.5 1 5
    endloop
  endfacet
  facet normal 0 1 0
    outer loop
      vertex 19.5 1 1
      vertex 12.25 1 2.5
      vertex 19.5 1 3
    endloop
  endfacet
  facet normal 0 1 0
    outer loop
      vertex 12.25 1 2.5
      vertex 16.5 1 3
      vertex 19.5 1 3
    endloop
  endfacet
  facet normal 0 1 0
    outer loop
      vertex 8.25 1 2.5
      vertex 12.25 1 2.5
      vertex 19.5 1 1
    endloop
  endfacet
  facet normal 0 1 0
    outer loop
      vertex 1 1 5
      vertex 8.25 1 2.5
      vertex 1 1 1
    endloop
  endfacet
  facet normal -1 0 0
    outer loop
      vertex 16.5 1 3
      vertex 16.5 1 5
      vertex 16.5 5 3
    endloop
  endfacet
  facet normal -1 0 0
    outer loop
      vertex 16.5 5 3
      vertex 16.5 1 5
      vertex 16.5 5 5
    endloop
  endfacet
  facet normal 0 1 0
    outer loop
      vertex 16.5 5 3
      vertex 16.5 5 5
      vertex 19.5 5 3
    endloop
  endfacet
  facet normal 0 1 0
    outer loop
      vertex 19.5 5 3
      vertex 16.5 5 5
      vertex 19.5 5 5
    endloop
  endfacet
  facet normal 0 -1 2.22045e-016
    outer loop
      vertex 29.5 11.75 5
      vertex 19.5 11.75 5
      vertex 20.5 11.75 5
    endloop
  endfacet
  facet normal 0 -1 2.22045e-016
    outer loop
      vertex 20.5 11.75 1.66533e-015
      vertex 29.5 11.75 1.66533e-015
      vertex 20.5 11.75 5
    endloop
  endfacet
  facet normal 0 -1 2.22045e-016
    outer loop
      vertex 29.5 11.75 1.66533e-015
      vertex 29.5 11.75 5
      vertex 20.5 11.75 5
    endloop
  endfacet
  facet normal 1 0 0
    outer loop
      vertex 29.5 11.75 5
      vertex 29.5 11.75 1.66533e-015
      vertex 29.5 14 1.16573e-015
    endloop
  endfacet
  facet normal 1 0 0
    outer loop
      vertex 29.5 14 5
      vertex 29.5 11.75 5
      vertex 29.5 14 1.16573e-015
    endloop
  endfacet
  facet normal 0 1 -2.22045e-016
    outer loop
      vertex 29.5 14 5
      vertex 29.5 14 1.16573e-015
      vertex 21.5 14 5
    endloop
  endfacet
  facet normal 0 1 -2.22045e-016
    outer loop
      vertex 21.5 14 5
      vertex 29.5 14 1.16573e-015
      vertex 21.5 14 1.16573e-015
    endloop
  endfacet
  facet normal 1 0 0
    outer loop
      vertex 21.5 17 4.996e-016
      vertex 21.5 17 5
      vertex 21.5 14 5
    endloop
  endfacet
  facet normal 1 0 0
    outer loop
      vertex 21.5 14 1.16573e-015
      vertex 21.5 17 4.996e-016
      vertex 21.5 14 5
    endloop
  endfacet
  facet normal 0 -1 2.22045e-016
    outer loop
      vertex 29.5 17 4.996e-016
      vertex 29.5 17 5
      vertex 21.5 17 5
    endloop
  endfacet
  facet normal 0 -1 2.22045e-016
    outer loop
      vertex 21.5 17 4.996e-016
      vertex 29.5 17 4.996e-016
      vertex 21.5 17 5
    endloop
  endfacet
  facet normal 1 0 0
    outer loop
      vertex 29.5 17 5
      vertex 29.5 17 4.996e-016
      vertex 29.5 19.25 0
    endloop
  endfacet
  facet normal 1 0 0
    outer loop
      vertex 29.5 19.25 5
      vertex 29.5 17 5
      vertex 29.5 19.25 0
    endloop
  endfacet
  facet normal 0 2.22045e-016 1
    outer loop
      vertex 21.5 14 5
      vertex 19.5 11.75 5
      vertex 29.5 11.75 5
    endloop
  endfacet
  facet normal 0 2.22045e-016 1
    outer loop
      vertex 19.5 19.25 5
      vertex 19.5 11.75 5
      vertex 21.5 14 5
    endloop
  endfacet
  facet normal 0 2.22045e-016 1
    outer loop
      vertex 21.5 17 5
      vertex 29.5 17 5
      vertex 19.5 19.25 5
    endloop
  endfacet
  facet normal 0 2.22045e-016 1
    outer loop
      vertex 19.5 19.25 5
      vertex 21.5 14 5
      vertex 21.5 17 5
    endloop
  endfacet
  facet normal 0 2.22045e-016 1
    outer loop
      vertex 20.5 19.25 5
      vertex 19.5 19.25 5
      vertex 29.5 17 5
    endloop
  endfacet
  facet normal 0 2.22045e-016 1
    outer loop
      vertex 29.5 19.25 5
      vertex 20.5 19.25 5
      vertex 29.5 17 5
    endloop
  endfacet
  facet normal 0 2.22045e-016 1
    outer loop
      vertex 29.5 14 5
      vertex 21.5 14 5
      vertex 29.5 11.75 5
    endloop
  endfacet
  facet normal 0 -1 0
    outer loop
      vertex 16.5 26 5
      vertex 16.5 26 3
      vertex 19.5 26 3
    endloop
  endfacet
  facet normal 0 -1 0
    outer loop
      vertex 19.5 26 5
      vertex 16.5 26 5
      vertex 19.5 26 3
    endloop
  endfacet
  facet normal -1 0 0
    outer loop
      vertex 16.5 26 3
      vertex 16.5 26 5
      vertex 16.5 30 3
    endloop
  endfacet
  facet normal -1 0 0
    outer loop
      vertex 16.5 30 3
      vertex 16.5 26 5
      vertex 16.5 30 5
    endloop
  endfacet
  facet normal 0 0 -1
    outer loop
      vertex 16.5 26 3
      vertex 16.5 30 3
      vertex 19.5 26 3
    endloop
  endfacet
  facet normal 0 0 -1
    outer loop
      vertex 19.5 26 3
      vertex 16.5 30 3
      vertex 19.5 30 3
    endloop
  endfacet
  facet normal 0 0 -1
    outer loop
      vertex 16.5 1 3
      vertex 16.5 5 3
      vertex 19.5 1 3
    endloop
  endfacet
  facet normal 0 0 -1
    outer loop
      vertex 19.5 1 3
      vertex 16.5 5 3
      vertex 19.5 5 3
    endloop
  endfacet
endsolid OpenSCAD_Model
