solid OpenSCAD_Model
  facet normal -1 0 0
    outer loop
      vertex -2.6 2.6 1
      vertex -2.6 2.6 -1
      vertex -2.6 -2.4 1
    endloop
  endfacet
  facet normal -1 0 0
    outer loop
      vertex -2.6 -2.4 1
      vertex -2.6 2.6 -1
      vertex -2.6 -2.4 -1
    endloop
  endfacet
  facet normal 0 1 -1.22461e-016
    outer loop
      vertex -2.6 2.6 1
      vertex 2.4 2.6 1
      vertex -2.6 2.6 -1
    endloop
  endfacet
  facet normal 0 1 -1.22461e-016
    outer loop
      vertex -2.6 2.6 -1
      vertex 2.4 2.6 1
      vertex 2.4 2.6 -1
    endloop
  endfacet
  facet normal 0 1.22461e-016 1
    outer loop
      vertex -1.6 -1.3 1
      vertex -2.6 2.6 1
      vertex -2.6 -2.4 1
    endloop
  endfacet
  facet normal 0 1.22461e-016 1
    outer loop
      vertex 1.3 1.6 1
      vertex 1.3 -1.3 1
      vertex 2.4 2.6 1
    endloop
  endfacet
  facet normal 0 1.22461e-016 1
    outer loop
      vertex -1.6 1.6 1
      vertex -2.6 2.6 1
      vertex -1.6 -1.3 1
    endloop
  endfacet
  facet normal 0 1.22461e-016 1
    outer loop
      vertex 2.4 2.6 1
      vertex -2.6 2.6 1
      vertex -1.6 1.6 1
    endloop
  endfacet
  facet normal 0 1.22461e-016 1
    outer loop
      vertex 2.4 2.6 1
      vertex -1.6 1.6 1
      vertex 1.3 1.6 1
    endloop
  endfacet
  facet normal 0 1.22461e-016 1
    outer loop
      vertex 2.4 -2.4 1
      vertex 1.3 -1.3 1
      vertex -2.6 -2.4 1
    endloop
  endfacet
  facet normal 0 1.22461e-016 1
    outer loop
      vertex 2.4 -2.4 1
      vertex 2.4 2.6 1
      vertex 1.3 -1.3 1
    endloop
  endfacet
  facet normal 0 1.22461e-016 1
    outer loop
      vertex 1.3 -1.3 1
      vertex -1.6 -1.3 1
      vertex -2.6 -2.4 1
    endloop
  endfacet
  facet normal 0 -1 1.22461e-016
    outer loop
      vertex 2.4 -2.4 1
      vertex -2.6 -2.4 1
      vertex -2.6 -2.4 -1
    endloop
  endfacet
  facet normal 0 -1 1.22461e-016
    outer loop
      vertex 2.4 -2.4 -1
      vertex 2.4 -2.4 1
      vertex -2.6 -2.4 -1
    endloop
  endfacet
  facet normal 0 -1.22461e-016 -1
    outer loop
      vertex 1.3 -1.3 -1
      vertex 2.4 2.6 -1
      vertex 2.4 -2.4 -1
    endloop
  endfacet
  facet normal 0 -1.22461e-016 -1
    outer loop
      vertex -2.6 2.6 -1
      vertex 2.4 2.6 -1
      vertex -1.6 1.6 -1
    endloop
  endfacet
  facet normal 0 -1.22461e-016 -1
    outer loop
      vertex -2.6 2.6 -1
      vertex -1.6 1.6 -1
      vertex -2.6 -2.4 -1
    endloop
  endfacet
  facet normal 0 -1.22461e-016 -1
    outer loop
      vertex -1.6 1.6 -1
      vertex -1.6 -1.3 -1
      vertex -2.6 -2.4 -1
    endloop
  endfacet
  facet normal 0 -1.22461e-016 -1
    outer loop
      vertex 1.3 1.6 -1
      vertex 2.4 2.6 -1
      vertex 1.3 -1.3 -1
    endloop
  endfacet
  facet normal 0 -1.22461e-016 -1
    outer loop
      vertex -2.6 -2.4 -1
      vertex 1.3 -1.3 -1
      vertex 2.4 -2.4 -1
    endloop
  endfacet
  facet normal 0 -1.22461e-016 -1
    outer loop
      vertex -1.6 1.6 -1
      vertex 2.4 2.6 -1
      vertex 1.3 1.6 -1
    endloop
  endfacet
  facet normal 0 -1.22461e-016 -1
    outer loop
      vertex 1.3 -1.3 -1
      vertex -2.6 -2.4 -1
      vertex -1.6 -1.3 -1
    endloop
  endfacet
  facet normal 1 0 0
    outer loop
      vertex 2.4 2.6 -1
      vertex 2.4 2.6 1
      vertex 2.4 -2.4 1
    endloop
  endfacet
  facet normal 1 0 0
    outer loop
      vertex 2.4 -2.4 -1
      vertex 2.4 2.6 -1
      vertex 2.4 -2.4 1
    endloop
  endfacet
  facet normal 1 0 0
    outer loop
      vertex -1.6 -1.3 1
      vertex -1.6 -1.3 -1
      vertex -1.6 1.6 -1
    endloop
  endfacet
  facet normal 1 0 0
    outer loop
      vertex -1.6 1.6 1
      vertex -1.6 -1.3 1
      vertex -1.6 1.6 -1
    endloop
  endfacet
  facet normal 0 1 -1.22461e-016
    outer loop
      vertex 1.3 -1.3 -1
      vertex -1.6 -1.3 -1
      vertex 1.3 -1.3 1
    endloop
  endfacet
  facet normal 0 1 -1.22461e-016
    outer loop
      vertex 1.3 -1.3 1
      vertex -1.6 -1.3 -1
      vertex -1.6 -1.3 1
    endloop
  endfacet
  facet normal -1 0 0
    outer loop
      vertex 1.3 -1.3 -1
      vertex 1.3 -1.3 1
      vertex 1.3 1.6 -1
    endloop
  endfacet
  facet normal -1 0 0
    outer loop
      vertex 1.3 1.6 -1
      vertex 1.3 -1.3 1
      vertex 1.3 1.6 1
    endloop
  endfacet
  facet normal 0 -1 1.22461e-016
    outer loop
      vertex -1.6 1.6 -1
      vertex 1.3 1.6 -1
      vertex 1.3 1.6 1
    endloop
  endfacet
  facet normal 0 -1 1.22461e-016
    outer loop
      vertex -1.6 1.6 1
      vertex -1.6 1.6 -1
      vertex 1.3 1.6 1
    endloop
  endfacet
endsolid OpenSCAD_Model
