solid OpenSCAD_Model
  facet normal -1 0 0
    outer loop
      vertex 0 0 0
      vertex 0 0 8
      vertex 0 10 0
    endloop
  endfacet
  facet normal -1 0 0
    outer loop
      vertex 0 10 0
      vertex 0 0 8
      vertex 0 10 8
    endloop
  endfacet
  facet normal 0 -1 0
    outer loop
      vertex 7.5 0 2
      vertex 0 0 0
      vertex 10.5 0 0
    endloop
  endfacet
  facet normal 0 -1 0
    outer loop
      vertex 1.5 0 2
      vertex 1.5 0 8
      vertex 0 0 8
    endloop
  endfacet
  facet normal 0 -1 0
    outer loop
      vertex 10.5 0 8
      vertex 8.75 0 8
      vertex 10.5 0 0
    endloop
  endfacet
  facet normal 0 -1 0
    outer loop
      vertex 8.75 0 8
      vertex 8.75 0 2
      vertex 10.5 0 0
    endloop
  endfacet
  facet normal 0 -1 0
    outer loop
      vertex 5.75 0 8
      vertex 5.75 0 2
      vertex 7.5 0 2
    endloop
  endfacet
  facet normal 0 -1 0
    outer loop
      vertex 5.75 0 2
      vertex 0 0 0
      vertex 7.5 0 2
    endloop
  endfacet
  facet normal 0 -1 0
    outer loop
      vertex 2.75 0 8
      vertex 2.75 0 2
      vertex 4.5 0 2
    endloop
  endfacet
  facet normal 0 -1 0
    outer loop
      vertex 4.5 0 2
      vertex 0 0 0
      vertex 5.75 0 2
    endloop
  endfacet
  facet normal 0 -1 0
    outer loop
      vertex 2.75 0 2
      vertex 0 0 0
      vertex 4.5 0 2
    endloop
  endfacet
  facet normal 0 -1 0
    outer loop
      vertex 1.5 0 2
      vertex 0 0 0
      vertex 2.75 0 2
    endloop
  endfacet
  facet normal 0 -1 0
    outer loop
      vertex 0 0 8
      vertex 0 0 0
      vertex 1.5 0 2
    endloop
  endfacet
  facet normal 0 -1 0
    outer loop
      vertex 8.75 0 2
      vertex 7.5 0 2
      vertex 10.5 0 0
    endloop
  endfacet
  facet normal 0 -1 0
    outer loop
      vertex 4.5 0 2
      vertex 4.5 0 8
      vertex 2.75 0 8
    endloop
  endfacet
  facet normal 0 -1 0
    outer loop
      vertex 7.5 0 2
      vertex 7.5 0 8
      vertex 5.75 0 8
    endloop
  endfacet
  facet normal 0 0 -1
    outer loop
      vertex 0 0 0
      vertex 0 10 0
      vertex 10.5 0 0
    endloop
  endfacet
  facet normal 0 0 -1
    outer loop
      vertex 10.5 0 0
      vertex 0 10 0
      vertex 10.5 10 0
    endloop
  endfacet
  facet normal 0 1 0
    outer loop
      vertex 0 10 0
      vertex 0 10 8
      vertex 1.5 10 2
    endloop
  endfacet
  facet normal 0 1 0
    outer loop
      vertex 0 10 0
      vertex 1.5 10 2
      vertex 10.5 10 0
    endloop
  endfacet
  facet normal 0 1 0
    outer loop
      vertex 5.75 10 8
      vertex 7.5 10 2
      vertex 5.75 10 2
    endloop
  endfacet
  facet normal 0 1 0
    outer loop
      vertex 1.5 10 2
      vertex 2.75 10 2
      vertex 10.5 10 0
    endloop
  endfacet
  facet normal 0 1 0
    outer loop
      vertex 4.5 10 2
      vertex 2.75 10 8
      vertex 4.5 10 8
    endloop
  endfacet
  facet normal 0 1 0
    outer loop
      vertex 8.75 10 8
      vertex 10.5 10 0
      vertex 8.75 10 2
    endloop
  endfacet
  facet normal 0 1 0
    outer loop
      vertex 2.75 10 2
      vertex 4.5 10 2
      vertex 10.5 10 0
    endloop
  endfacet
  facet normal 0 1 0
    outer loop
      vertex 4.5 10 2
      vertex 5.75 10 2
      vertex 10.5 10 0
    endloop
  endfacet
  facet normal 0 1 0
    outer loop
      vertex 7.5 10 2
      vertex 5.75 10 8
      vertex 7.5 10 8
    endloop
  endfacet
  facet normal 0 1 0
    outer loop
      vertex 2.75 10 8
      vertex 4.5 10 2
      vertex 2.75 10 2
    endloop
  endfacet
  facet normal 0 1 0
    outer loop
      vertex 5.75 10 2
      vertex 7.5 10 2
      vertex 10.5 10 0
    endloop
  endfacet
  facet normal 0 1 0
    outer loop
      vertex 10.5 10 0
      vertex 8.75 10 8
      vertex 10.5 10 8
    endloop
  endfacet
  facet normal 0 1 0
    outer loop
      vertex 1.5 10 2
      vertex 0 10 8
      vertex 1.5 10 8
    endloop
  endfacet
  facet normal 0 1 0
    outer loop
      vertex 8.75 10 2
      vertex 10.5 10 0
      vertex 7.5 10 2
    endloop
  endfacet
  facet normal 0 0 1
    outer loop
      vertex 0 10 8
      vertex 0 0 8
      vertex 1.5 0 8
    endloop
  endfacet
  facet normal 0 0 1
    outer loop
      vertex 1.5 10 8
      vertex 0 10 8
      vertex 1.5 0 8
    endloop
  endfacet
  facet normal 1 0 0
    outer loop
      vertex 1.5 10 2
      vertex 1.5 10 8
      vertex 1.5 0 8
    endloop
  endfacet
  facet normal 1 0 0
    outer loop
      vertex 1.5 0 2
      vertex 1.5 10 2
      vertex 1.5 0 8
    endloop
  endfacet
  facet normal 0 0 1
    outer loop
      vertex 2.75 0 2
      vertex 2.75 10 2
      vertex 1.5 10 2
    endloop
  endfacet
  facet normal 0 0 1
    outer loop
      vertex 1.5 0 2
      vertex 2.75 0 2
      vertex 1.5 10 2
    endloop
  endfacet
  facet normal -1 0 0
    outer loop
      vertex 2.75 10 8
      vertex 2.75 10 2
      vertex 2.75 0 8
    endloop
  endfacet
  facet normal -1 0 0
    outer loop
      vertex 2.75 0 8
      vertex 2.75 10 2
      vertex 2.75 0 2
    endloop
  endfacet
  facet normal 0 0 1
    outer loop
      vertex 2.75 10 8
      vertex 2.75 0 8
      vertex 4.5 0 8
    endloop
  endfacet
  facet normal 0 0 1
    outer loop
      vertex 4.5 10 8
      vertex 2.75 10 8
      vertex 4.5 0 8
    endloop
  endfacet
  facet normal 1 0 0
    outer loop
      vertex 4.5 10 2
      vertex 4.5 10 8
      vertex 4.5 0 8
    endloop
  endfacet
  facet normal 1 0 0
    outer loop
      vertex 4.5 0 2
      vertex 4.5 10 2
      vertex 4.5 0 8
    endloop
  endfacet
  facet normal 0 0 1
    outer loop
      vertex 5.75 0 2
      vertex 5.75 10 2
      vertex 4.5 10 2
    endloop
  endfacet
  facet normal 0 0 1
    outer loop
      vertex 4.5 0 2
      vertex 5.75 0 2
      vertex 4.5 10 2
    endloop
  endfacet
  facet normal -1 0 0
    outer loop
      vertex 5.75 10 8
      vertex 5.75 10 2
      vertex 5.75 0 8
    endloop
  endfacet
  facet normal -1 0 0
    outer loop
      vertex 5.75 0 8
      vertex 5.75 10 2
      vertex 5.75 0 2
    endloop
  endfacet
  facet normal 0 0 1
    outer loop
      vertex 5.75 10 8
      vertex 5.75 0 8
      vertex 7.5 0 8
    endloop
  endfacet
  facet normal 0 0 1
    outer loop
      vertex 7.5 10 8
      vertex 5.75 10 8
      vertex 7.5 0 8
    endloop
  endfacet
  facet normal 1 0 0
    outer loop
      vertex 7.5 10 2
      vertex 7.5 10 8
      vertex 7.5 0 8
    endloop
  endfacet
  facet normal 1 0 0
    outer loop
      vertex 7.5 0 2
      vertex 7.5 10 2
      vertex 7.5 0 8
    endloop
  endfacet
  facet normal 0 0 1
    outer loop
      vertex 8.75 0 2
      vertex 8.75 10 2
      vertex 7.5 10 2
    endloop
  endfacet
  facet normal 0 0 1
    outer loop
      vertex 7.5 0 2
      vertex 8.75 0 2
      vertex 7.5 10 2
    endloop
  endfacet
  facet normal -1 0 0
    outer loop
      vertex 8.75 10 8
      vertex 8.75 10 2
      vertex 8.75 0 8
    endloop
  endfacet
  facet normal -1 0 0
    outer loop
      vertex 8.75 0 8
      vertex 8.75 10 2
      vertex 8.75 0 2
    endloop
  endfacet
  facet normal 0 0 1
    outer loop
      vertex 8.75 10 8
      vertex 8.75 0 8
      vertex 10.5 0 8
    endloop
  endfacet
  facet normal 0 0 1
    outer loop
      vertex 10.5 10 8
      vertex 8.75 10 8
      vertex 10.5 0 8
    endloop
  endfacet
  facet normal 1 0 0
    outer loop
      vertex 10.5 0 8
      vertex 10.5 0 0
      vertex 10.5 10 0
    endloop
  endfacet
  facet normal 1 0 0
    outer loop
      vertex 10.5 10 8
      vertex 10.5 0 8
      vertex 10.5 10 0
    endloop
  endfacet
endsolid OpenSCAD_Model
