solid OpenSCAD_Model
  facet normal -1 0 0
    outer loop
      vertex 0 -7 1.55431e-015
      vertex 0 -7 6
      vertex 0 0 0
    endloop
  endfacet
  facet normal -1 0 0
    outer loop
      vertex 0 0 0
      vertex 0 -7 6
      vertex 0 1.33227e-015 6
    endloop
  endfacet
  facet normal 0 -1 2.22045e-016
    outer loop
      vertex 0 -7 6
      vertex 0 -7 1.55431e-015
      vertex 5 -7 1.55431e-015
    endloop
  endfacet
  facet normal 0 -1 2.22045e-016
    outer loop
      vertex 5 -7 6
      vertex 0 -7 6
      vertex 5 -7 1.55431e-015
    endloop
  endfacet
  facet normal 0 -2.22045e-016 -1
    outer loop
      vertex 5 -5.65 1.25455e-015
      vertex 5 -7 1.55431e-015
      vertex 2 -5.65 1.25455e-015
    endloop
  endfacet
  facet normal 0 -2.22045e-016 -1
    outer loop
      vertex 5 -2 4.44089e-016
      vertex 0 0 0
      vertex 5 0 0
    endloop
  endfacet
  facet normal 0 -2.22045e-016 -1
    outer loop
      vertex 5 -4 8.88178e-016
      vertex 0 0 0
      vertex 5 -2 4.44089e-016
    endloop
  endfacet
  facet normal 0 -2.22045e-016 -1
    outer loop
      vertex 0 -7 1.55431e-015
      vertex 0 0 0
      vertex 2 -4 8.88178e-016
    endloop
  endfacet
  facet normal 0 -2.22045e-016 -1
    outer loop
      vertex 0 -7 1.55431e-015
      vertex 2 -4 8.88178e-016
      vertex 2 -5.65 1.25455e-015
    endloop
  endfacet
  facet normal 0 -2.22045e-016 -1
    outer loop
      vertex 0 -7 1.55431e-015
      vertex 2 -5.65 1.25455e-015
      vertex 5 -7 1.55431e-015
    endloop
  endfacet
  facet normal 0 -2.22045e-016 -1
    outer loop
      vertex 2 -4 8.88178e-016
      vertex 0 0 0
      vertex 5 -4 8.88178e-016
    endloop
  endfacet
  facet normal 0 1 -2.22045e-016
    outer loop
      vertex 0 0 0
      vertex 0 1.33227e-015 6
      vertex 5 0 0
    endloop
  endfacet
  facet normal 0 1 -2.22045e-016
    outer loop
      vertex 5 0 0
      vertex 0 1.33227e-015 6
      vertex 28 1.33227e-015 6
    endloop
  endfacet
  facet normal 0 1 -2.22045e-016
    outer loop
      vertex 23 0 0
      vertex 28 1.33227e-015 6
      vertex 28 0 0
    endloop
  endfacet
  facet normal 0 1 -2.22045e-016
    outer loop
      vertex 5 0 0
      vertex 28 1.33227e-015 6
      vertex 23 0 0
    endloop
  endfacet
  facet normal 0 2.22045e-016 1
    outer loop
      vertex 2 -5.65 6
      vertex 0 -7 6
      vertex 5 -7 6
    endloop
  endfacet
  facet normal 0 2.22045e-016 1
    outer loop
      vertex 0 1.33227e-015 6
      vertex 0 -7 6
      vertex 2 -5.65 6
    endloop
  endfacet
  facet normal 0 2.22045e-016 1
    outer loop
      vertex 2 -4 6
      vertex 5 -4 6
      vertex 0 1.33227e-015 6
    endloop
  endfacet
  facet normal 0 2.22045e-016 1
    outer loop
      vertex 0 1.33227e-015 6
      vertex 2 -5.65 6
      vertex 2 -4 6
    endloop
  endfacet
  facet normal 0 2.22045e-016 1
    outer loop
      vertex 5 -2 6
      vertex 0 1.33227e-015 6
      vertex 5 -4 6
    endloop
  endfacet
  facet normal 0 2.22045e-016 1
    outer loop
      vertex 5 0 6
      vertex 0 1.33227e-015 6
      vertex 5 -2 6
    endloop
  endfacet
  facet normal 0 2.22045e-016 1
    outer loop
      vertex 23 0 6
      vertex 0 1.33227e-015 6
      vertex 5 0 6
    endloop
  endfacet
  facet normal 0 2.22045e-016 1
    outer loop
      vertex 28 1.33227e-015 6
      vertex 0 1.33227e-015 6
      vertex 23 0 6
    endloop
  endfacet
  facet normal 0 2.22045e-016 1
    outer loop
      vertex 26 -4 6
      vertex 23 0 6
      vertex 23 -2 6
    endloop
  endfacet
  facet normal 0 2.22045e-016 1
    outer loop
      vertex 26 -4 6
      vertex 23 -2 6
      vertex 23 -4 6
    endloop
  endfacet
  facet normal 0 2.22045e-016 1
    outer loop
      vertex 28 1.33227e-015 6
      vertex 23 0 6
      vertex 26 -4 6
    endloop
  endfacet
  facet normal 0 2.22045e-016 1
    outer loop
      vertex 28 -7 6
      vertex 26 -4 6
      vertex 26 -5.65 6
    endloop
  endfacet
  facet normal 0 2.22045e-016 1
    outer loop
      vertex 28 -7 6
      vertex 26 -5.65 6
      vertex 23 -7 6
    endloop
  endfacet
  facet normal 0 2.22045e-016 1
    outer loop
      vertex 28 1.33227e-015 6
      vertex 26 -4 6
      vertex 28 -7 6
    endloop
  endfacet
  facet normal 0 2.22045e-016 1
    outer loop
      vertex 23 -5.65 6
      vertex 23 -7 6
      vertex 26 -5.65 6
    endloop
  endfacet
  facet normal 0 2.22045e-016 1
    outer loop
      vertex 5 -5.65 6
      vertex 2 -5.65 6
      vertex 5 -7 6
    endloop
  endfacet
  facet normal 1 0 0
    outer loop
      vertex 5 -5.65 1.25455e-015
      vertex 5 -5.65 6
      vertex 5 -7 6
    endloop
  endfacet
  facet normal 1 0 0
    outer loop
      vertex 5 -7 1.55431e-015
      vertex 5 -5.65 1.25455e-015
      vertex 5 -7 6
    endloop
  endfacet
  facet normal 0 1 -2.22045e-016
    outer loop
      vertex 5 -5.65 6
      vertex 5 -5.65 1.25455e-015
      vertex 2 -5.65 6
    endloop
  endfacet
  facet normal 0 1 -2.22045e-016
    outer loop
      vertex 2 -5.65 6
      vertex 5 -5.65 1.25455e-015
      vertex 2 -5.65 1.25455e-015
    endloop
  endfacet
  facet normal 1 0 0
    outer loop
      vertex 2 -4 8.88178e-016
      vertex 2 -4 6
      vertex 2 -5.65 6
    endloop
  endfacet
  facet normal 1 0 0
    outer loop
      vertex 2 -5.65 1.25455e-015
      vertex 2 -4 8.88178e-016
      vertex 2 -5.65 6
    endloop
  endfacet
  facet normal 0 -1 2.22045e-016
    outer loop
      vertex 5 -4 8.88178e-016
      vertex 5 -4 6
      vertex 2 -4 6
    endloop
  endfacet
  facet normal 0 -1 2.22045e-016
    outer loop
      vertex 2 -4 8.88178e-016
      vertex 5 -4 8.88178e-016
      vertex 2 -4 6
    endloop
  endfacet
  facet normal 1 0 0
    outer loop
      vertex 5 -2 4.44089e-016
      vertex 5 -2 6
      vertex 5 -4 6
    endloop
  endfacet
  facet normal 1 0 0
    outer loop
      vertex 5 -4 8.88178e-016
      vertex 5 -2 4.44089e-016
      vertex 5 -4 6
    endloop
  endfacet
  facet normal 0 -1 0
    outer loop
      vertex 5 -2 4.44089e-016
      vertex 5 -2 0
      vertex 23 -2 0
    endloop
  endfacet
  facet normal 0 -1 0
    outer loop
      vertex 23 -2 6
      vertex 5 -2 4.44089e-016
      vertex 23 -2 4.44089e-016
    endloop
  endfacet
  facet normal 0 -1 0
    outer loop
      vertex 23 -2 4.44089e-016
      vertex 5 -2 4.44089e-016
      vertex 23 -2 0
    endloop
  endfacet
  facet normal 0 -1 0
    outer loop
      vertex 23 -2 10
      vertex 5 -2 4.44089e-016
      vertex 23 -2 6
    endloop
  endfacet
  facet normal 0 -1 0
    outer loop
      vertex 5 -2 6
      vertex 5 -2 4.44089e-016
      vertex 23 -2 10
    endloop
  endfacet
  facet normal 0 -1 0
    outer loop
      vertex 5 -2 10
      vertex 5 -2 6
      vertex 23 -2 10
    endloop
  endfacet
  facet normal -1 0 0
    outer loop
      vertex 5 0 0
      vertex 5 -2 0
      vertex 5 -2 4.44089e-016
    endloop
  endfacet
  facet normal 0 0 -1
    outer loop
      vertex 5 -2 0
      vertex 5 0 0
      vertex 23 -2 0
    endloop
  endfacet
  facet normal 0 0 -1
    outer loop
      vertex 23 -2 0
      vertex 5 0 0
      vertex 23 0 0
    endloop
  endfacet
  facet normal 1 0 0
    outer loop
      vertex 23 -2 4.44089e-016
      vertex 23 -2 0
      vertex 23 0 0
    endloop
  endfacet
  facet normal 0 -2.22045e-016 -1
    outer loop
      vertex 23 -7 1.55431e-015
      vertex 23 -5.65 1.25455e-015
      vertex 28 -7 1.55431e-015
    endloop
  endfacet
  facet normal 0 -2.22045e-016 -1
    outer loop
      vertex 28 -7 1.55431e-015
      vertex 23 -5.65 1.25455e-015
      vertex 26 -5.65 1.25455e-015
    endloop
  endfacet
  facet normal 0 -2.22045e-016 -1
    outer loop
      vertex 28 -7 1.55431e-015
      vertex 26 -5.65 1.25455e-015
      vertex 26 -4 8.88178e-016
    endloop
  endfacet
  facet normal 0 -2.22045e-016 -1
    outer loop
      vertex 26 -4 8.88178e-016
      vertex 23 -4 8.88178e-016
      vertex 23 -2 4.44089e-016
    endloop
  endfacet
  facet normal 0 -2.22045e-016 -1
    outer loop
      vertex 26 -4 8.88178e-016
      vertex 23 -2 4.44089e-016
      vertex 23 0 0
    endloop
  endfacet
  facet normal 0 -2.22045e-016 -1
    outer loop
      vertex 26 -4 8.88178e-016
      vertex 23 0 0
      vertex 28 0 0
    endloop
  endfacet
  facet normal 0 -2.22045e-016 -1
    outer loop
      vertex 26 -4 8.88178e-016
      vertex 28 0 0
      vertex 28 -7 1.55431e-015
    endloop
  endfacet
  facet normal 1 0 0
    outer loop
      vertex 28 -7 6
      vertex 28 -7 1.55431e-015
      vertex 28 0 0
    endloop
  endfacet
  facet normal 1 0 0
    outer loop
      vertex 28 1.33227e-015 6
      vertex 28 -7 6
      vertex 28 0 0
    endloop
  endfacet
  facet normal 0 -1 2.22045e-016
    outer loop
      vertex 23 -7 6
      vertex 23 -7 1.55431e-015
      vertex 28 -7 1.55431e-015
    endloop
  endfacet
  facet normal 0 -1 2.22045e-016
    outer loop
      vertex 28 -7 6
      vertex 23 -7 6
      vertex 28 -7 1.55431e-015
    endloop
  endfacet
  facet normal -1 0 0
    outer loop
      vertex 23 -5.65 6
      vertex 23 -5.65 1.25455e-015
      vertex 23 -7 6
    endloop
  endfacet
  facet normal -1 0 0
    outer loop
      vertex 23 -7 6
      vertex 23 -5.65 1.25455e-015
      vertex 23 -7 1.55431e-015
    endloop
  endfacet
  facet normal 0 1 -2.22045e-016
    outer loop
      vertex 26 -5.65 6
      vertex 26 -5.65 1.25455e-015
      vertex 23 -5.65 6
    endloop
  endfacet
  facet normal 0 1 -2.22045e-016
    outer loop
      vertex 23 -5.65 6
      vertex 26 -5.65 1.25455e-015
      vertex 23 -5.65 1.25455e-015
    endloop
  endfacet
  facet normal -1 0 0
    outer loop
      vertex 26 -4 6
      vertex 26 -4 8.88178e-016
      vertex 26 -5.65 6
    endloop
  endfacet
  facet normal -1 0 0
    outer loop
      vertex 26 -5.65 6
      vertex 26 -4 8.88178e-016
      vertex 26 -5.65 1.25455e-015
    endloop
  endfacet
  facet normal 0 -1 2.22045e-016
    outer loop
      vertex 26 -4 8.88178e-016
      vertex 26 -4 6
      vertex 23 -4 6
    endloop
  endfacet
  facet normal 0 -1 2.22045e-016
    outer loop
      vertex 23 -4 8.88178e-016
      vertex 26 -4 8.88178e-016
      vertex 23 -4 6
    endloop
  endfacet
  facet normal -1 0 0
    outer loop
      vertex 23 -2 6
      vertex 23 -2 4.44089e-016
      vertex 23 -4 6
    endloop
  endfacet
  facet normal -1 0 0
    outer loop
      vertex 23 -4 6
      vertex 23 -2 4.44089e-016
      vertex 23 -4 8.88178e-016
    endloop
  endfacet
  facet normal 1 0 0
    outer loop
      vertex 23 -2 10
      vertex 23 -2 6
      vertex 23 0 6
    endloop
  endfacet
  facet normal 1 0 0
    outer loop
      vertex 23 0 10
      vertex 23 -2 10
      vertex 23 0 6
    endloop
  endfacet
  facet normal 0 1 0
    outer loop
      vertex 5 0 6
      vertex 5 0 10
      vertex 23 0 6
    endloop
  endfacet
  facet normal 0 1 0
    outer loop
      vertex 23 0 6
      vertex 5 0 10
      vertex 23 0 10
    endloop
  endfacet
  facet normal -1 0 0
    outer loop
      vertex 5 -2 6
      vertex 5 -2 10
      vertex 5 0 6
    endloop
  endfacet
  facet normal -1 0 0
    outer loop
      vertex 5 0 6
      vertex 5 -2 10
      vertex 5 0 10
    endloop
  endfacet
  facet normal 0 0 1
    outer loop
      vertex 5 0 10
      vertex 5 -2 10
      vertex 23 -2 10
    endloop
  endfacet
  facet normal 0 0 1
    outer loop
      vertex 23 0 10
      vertex 5 0 10
      vertex 23 -2 10
    endloop
  endfacet
endsolid OpenSCAD_Model
