solid OpenSCAD_Model
  facet normal -1 0 0
    outer loop
      vertex -24 -6 0
      vertex -24 -6 20
      vertex -24 20 0
    endloop
  endfacet
  facet normal -1 0 0
    outer loop
      vertex -24 20 0
      vertex -24 -6 20
      vertex -24 20 20
    endloop
  endfacet
  facet normal 0 -1 0
    outer loop
      vertex -24 -6 20
      vertex -24 -6 0
      vertex -21 -6 0
    endloop
  endfacet
  facet normal 0 -1 0
    outer loop
      vertex -21 -6 20
      vertex -24 -6 20
      vertex -21 -6 0
    endloop
  endfacet
  facet normal 0 0 -1
    outer loop
      vertex -24 -6 0
      vertex -24 20 0
      vertex -21 -6 0
    endloop
  endfacet
  facet normal 0 0 -1
    outer loop
      vertex -21 17 0
      vertex -24 20 0
      vertex 0 20 0
    endloop
  endfacet
  facet normal 0 0 -1
    outer loop
      vertex 3.125 30 0
      vertex 0 33 0
      vertex 55 33 0
    endloop
  endfacet
  facet normal 0 0 -1
    outer loop
      vertex 51.875 30 0
      vertex 55 33 0
      vertex 55 3 0
    endloop
  endfacet
  facet normal 0 0 -1
    outer loop
      vertex 51.875 0 0
      vertex 66 3 0
      vertex 66 0 0
    endloop
  endfacet
  facet normal 0 0 -1
    outer loop
      vertex -21 17 0
      vertex 0 20 0
      vertex 1 17 0
    endloop
  endfacet
  facet normal 0 0 -1
    outer loop
      vertex 3.125 30 0
      vertex 55 33 0
      vertex 51.875 30 0
    endloop
  endfacet
  facet normal 0 0 -1
    outer loop
      vertex 0 20 0
      vertex 0 33 0
      vertex 3.125 30 0
    endloop
  endfacet
  facet normal 0 0 -1
    outer loop
      vertex 3.125 17 0
      vertex 0 20 0
      vertex 3.125 30 0
    endloop
  endfacet
  facet normal 0 0 -1
    outer loop
      vertex 0 20 0
      vertex 3.125 17 0
      vertex 1 17 0
    endloop
  endfacet
  facet normal 0 0 -1
    outer loop
      vertex -21 -6 0
      vertex -24 20 0
      vertex -21 17 0
    endloop
  endfacet
  facet normal 0 0 -1
    outer loop
      vertex 55 3 0
      vertex 66 3 0
      vertex 51.875 0 0
    endloop
  endfacet
  facet normal 0 0 -1
    outer loop
      vertex 51.875 30 0
      vertex 55 3 0
      vertex 51.875 0 0
    endloop
  endfacet
  facet normal 0 1 0
    outer loop
      vertex -24 20 0
      vertex -24 20 20
      vertex 0 20 0
    endloop
  endfacet
  facet normal 0 1 0
    outer loop
      vertex 0 20 0
      vertex -24 20 20
      vertex 0 20 20
    endloop
  endfacet
  facet normal 0 0 1
    outer loop
      vertex -24 20 20
      vertex -24 -6 20
      vertex -21 -6 20
    endloop
  endfacet
  facet normal 0 0 1
    outer loop
      vertex 1 17 20
      vertex -24 20 20
      vertex -21 17 20
    endloop
  endfacet
  facet normal 0 0 1
    outer loop
      vertex -21 17 20
      vertex -24 20 20
      vertex -21 -6 20
    endloop
  endfacet
  facet normal 0 0 1
    outer loop
      vertex 3.125 17 20
      vertex -24 20 20
      vertex 1 17 20
    endloop
  endfacet
  facet normal 0 0 1
    outer loop
      vertex 0 20 20
      vertex -24 20 20
      vertex 3.125 17 20
    endloop
  endfacet
  facet normal 0 0 1
    outer loop
      vertex 55 33 20
      vertex 3.125 30 20
      vertex 51.875 30 20
    endloop
  endfacet
  facet normal 0 0 1
    outer loop
      vertex 55 3 20
      vertex 51.875 30 20
      vertex 51.875 0 20
    endloop
  endfacet
  facet normal 0 0 1
    outer loop
      vertex 55 3 20
      vertex 55 33 20
      vertex 51.875 30 20
    endloop
  endfacet
  facet normal 0 0 1
    outer loop
      vertex 66 0 20
      vertex 55 3 20
      vertex 51.875 0 20
    endloop
  endfacet
  facet normal 0 0 1
    outer loop
      vertex 0 33 20
      vertex 3.125 30 20
      vertex 55 33 20
    endloop
  endfacet
  facet normal 0 0 1
    outer loop
      vertex 3.125 30 20
      vertex 0 20 20
      vertex 3.125 17 20
    endloop
  endfacet
  facet normal 0 0 1
    outer loop
      vertex 0 33 20
      vertex 0 20 20
      vertex 3.125 30 20
    endloop
  endfacet
  facet normal 0 0 1
    outer loop
      vertex 66 3 20
      vertex 55 3 20
      vertex 66 0 20
    endloop
  endfacet
  facet normal 1 0 0
    outer loop
      vertex -21 -6 20
      vertex -21 -6 0
      vertex -21 17 0
    endloop
  endfacet
  facet normal 1 0 0
    outer loop
      vertex -21 17 20
      vertex -21 -6 20
      vertex -21 17 0
    endloop
  endfacet
  facet normal 0 -1 0
    outer loop
      vertex 1 17 0
      vertex 1 17 20
      vertex -21 17 20
    endloop
  endfacet
  facet normal 0 -1 0
    outer loop
      vertex -21 17 0
      vertex 1 17 0
      vertex -21 17 20
    endloop
  endfacet
  facet normal 0 -1 0
    outer loop
      vertex 3.125 17 0
      vertex 3.125 17 20
      vertex 1 17 20
    endloop
  endfacet
  facet normal 0 -1 0
    outer loop
      vertex 1 17 0
      vertex 3.125 17 0
      vertex 1 17 20
    endloop
  endfacet
  facet normal 1 0 0
    outer loop
      vertex 3.125 30 0
      vertex 3.125 30 20
      vertex 3.125 17 20
    endloop
  endfacet
  facet normal 1 0 0
    outer loop
      vertex 3.125 17 0
      vertex 3.125 30 0
      vertex 3.125 17 20
    endloop
  endfacet
  facet normal 0 -1 0
    outer loop
      vertex 51.875 30 0
      vertex 51.875 30 20
      vertex 3.125 30 20
    endloop
  endfacet
  facet normal 0 -1 0
    outer loop
      vertex 3.125 30 0
      vertex 51.875 30 0
      vertex 3.125 30 20
    endloop
  endfacet
  facet normal -1 0 0
    outer loop
      vertex 51.875 30 20
      vertex 51.875 30 0
      vertex 51.875 0 20
    endloop
  endfacet
  facet normal -1 0 0
    outer loop
      vertex 51.875 0 20
      vertex 51.875 30 0
      vertex 51.875 0 0
    endloop
  endfacet
  facet normal 0 -1 0
    outer loop
      vertex 51.875 0 20
      vertex 51.875 0 0
      vertex 66 0 0
    endloop
  endfacet
  facet normal 0 -1 0
    outer loop
      vertex 66 0 20
      vertex 51.875 0 20
      vertex 66 0 0
    endloop
  endfacet
  facet normal 1 0 0
    outer loop
      vertex 66 0 20
      vertex 66 0 0
      vertex 66 3 0
    endloop
  endfacet
  facet normal 1 0 0
    outer loop
      vertex 66 3 20
      vertex 66 0 20
      vertex 66 3 0
    endloop
  endfacet
  facet normal 0 1 0
    outer loop
      vertex 55 3 0
      vertex 55 3 20
      vertex 66 3 0
    endloop
  endfacet
  facet normal 0 1 0
    outer loop
      vertex 66 3 0
      vertex 55 3 20
      vertex 66 3 20
    endloop
  endfacet
  facet normal 1 0 0
    outer loop
      vertex 55 3 20
      vertex 55 3 0
      vertex 55 33 0
    endloop
  endfacet
  facet normal 1 0 0
    outer loop
      vertex 55 33 20
      vertex 55 3 20
      vertex 55 33 0
    endloop
  endfacet
  facet normal 0 1 0
    outer loop
      vertex 0 33 0
      vertex 0 33 20
      vertex 55 33 0
    endloop
  endfacet
  facet normal 0 1 0
    outer loop
      vertex 55 33 0
      vertex 0 33 20
      vertex 55 33 20
    endloop
  endfacet
  facet normal -1 0 0
    outer loop
      vertex 0 20 0
      vertex 0 20 20
      vertex 0 33 0
    endloop
  endfacet
  facet normal -1 0 0
    outer loop
      vertex 0 33 0
      vertex 0 20 20
      vertex 0 33 20
    endloop
  endfacet
endsolid OpenSCAD_Model
